NotoSans-Bold.ufo
<glyph name="quotedbl" format="2">
  <advance width="967"/>
  <unicode hex="0022"/>
  <outline>
    <contour>
      <point x="412" y="1462" type="line"/>
      <point x="133" y="1462" type="line"/>
      <point x="174" y="934" type="line"/>
      <point x="371" y="934" type="line"/>
    </contour>
    <contour>
      <point x="834" y="1462" type="line"/>
      <point x="555" y="1462" type="line"/>
      <point x="596" y="934" type="line"/>
      <point x="793" y="934" type="line"/>
    </contour>
  </outline>
</glyph>
<glyph name="parenright" format="2">
  <advance width="694"/>
  <unicode hex="0029"/>
  <outline>
    <contour>
      <point x="612" y="561" type="curve" smooth="yes"/>
      <point x="612" y="895"/>
      <point x="518" y="1214"/>
      <point x="311" y="1462" type="curve"/>
      <point x="61" y="1462" type="line"/>
      <point x="248" y="1206"/>
      <point x="346" y="887"/>
      <point x="346" y="563" type="curve" smooth="yes"/>
      <point x="346" y="246"/>
      <point x="248" y="-72"/>
      <point x="63" y="-324" type="curve"/>
      <point x="311" y="-324" type="line"/>
      <point x="518" y="-84"/>
      <point x="612" y="231"/>
    </contour>
  </outline>
</glyph>
<glyph name="plus" format="2">
  <advance width="1171"/>
  <unicode hex="002B"/>
  <outline>
    <contour>
      <point x="694" y="831" type="line"/>
      <point x="694" y="1221" type="line"/>
      <point x="475" y="1221" type="line"/>
      <point x="475" y="831" type="line"/>
      <point x="88" y="831" type="line"/>
      <point x="88" y="612" type="line"/>
      <point x="475" y="612" type="line"/>
      <point x="475" y="227" type="line"/>
      <point x="694" y="227" type="line"/>
      <point x="694" y="612" type="line"/>
      <point x="1081" y="612" type="line"/>
      <point x="1081" y="831" type="line"/>
    </contour>
  </outline>
</glyph>
<glyph name="zero" format="2">
  <advance width="1171"/>
  <unicode hex="0030"/>
  <outline>
    <contour>
      <point x="1096" y="731" type="curve" smooth="yes"/>
      <point x="1096" y="1206"/>
      <point x="934" y="1485"/>
      <point x="584" y="1485" type="curve" smooth="yes"/>
      <point x="209" y="1485"/>
      <point x="74" y="1204"/>
      <point x="74" y="731" type="curve" smooth="yes"/>
      <point x="74" y="260"/>
      <point x="231" y="-20"/>
      <point x="584" y="-20" type="curve" smooth="yes"/>
      <point x="958" y="-20"/>
      <point x="1096" y="260"/>
    </contour>
    <contour>
      <point x="381" y="731" type="curve" smooth="yes"/>
      <point x="381" y="1065"/>
      <point x="428" y="1235"/>
      <point x="584" y="1235" type="curve" smooth="yes"/>
      <point x="737" y="1235"/>
      <point x="788" y="1065"/>
      <point x="788" y="731" type="curve" smooth="yes"/>
      <point x="788" y="395"/>
      <point x="737" y="229"/>
      <point x="584" y="229" type="curve" smooth="yes"/>
      <point x="428" y="229"/>
      <point x="381" y="397"/>
    </contour>
  </outline>
</glyph>
<glyph name="six" format="2">
  <advance width="1171"/>
  <unicode hex="0036"/>
  <outline>
    <contour>
      <point x="72" y="621" type="curve" smooth="yes"/>
      <point x="72" y="182"/>
      <point x="307" y="-20"/>
      <point x="606" y="-20" type="curve" smooth="yes"/>
      <point x="911" y="-20"/>
      <point x="1104" y="170"/>
      <point x="1104" y="487" type="curve" smooth="yes"/>
      <point x="1104" y="782"/>
      <point x="942" y="950"/>
      <point x="686" y="950" type="curve" smooth="yes"/>
      <point x="522" y="950"/>
      <point x="424" y="877"/>
      <point x="369" y="780" type="curve"/>
      <point x="356" y="780" type="line"/>
      <point x="369" y="1051"/>
      <point x="461" y="1237"/>
      <point x="825" y="1237" type="curve" smooth="yes"/>
      <point x="885" y="1237"/>
      <point x="948" y="1229"/>
      <point x="1001" y="1217" type="curve"/>
      <point x="1001" y="1464" type="line"/>
      <point x="950" y="1475"/>
      <point x="862" y="1479"/>
      <point x="805" y="1479" type="curve" smooth="yes"/>
      <point x="197" y="1479"/>
      <point x="72" y="1040"/>
    </contour>
    <contour>
      <point x="600" y="227" type="curve" smooth="yes"/>
      <point x="455" y="227"/>
      <point x="379" y="375"/>
      <point x="379" y="510" type="curve" smooth="yes"/>
      <point x="379" y="608"/>
      <point x="469" y="713"/>
      <point x="606" y="713" type="curve" smooth="yes"/>
      <point x="739" y="713"/>
      <point x="805" y="625"/>
      <point x="805" y="483" type="curve" smooth="yes"/>
      <point x="805" y="307"/>
      <point x="721" y="227"/>
    </contour>
  </outline>
</glyph>
<glyph name="colon" format="2">
  <advance width="584"/>
  <unicode hex="003A"/>
  <outline>
    <contour>
      <point x="117" y="143" type="curve"/>
      <point x="117" y="23"/>
      <point x="195" y="-27"/>
      <point x="293" y="-27" type="curve" smooth="yes"/>
      <point x="387" y="-27"/>
      <point x="467" y="23"/>
      <point x="467" y="143" type="curve" smooth="yes"/>
      <point x="467" y="268"/>
      <point x="387" y="313"/>
      <point x="293" y="313" type="curve" smooth="yes"/>
      <point x="195" y="313"/>
      <point x="117" y="268"/>
    </contour>
    <contour>
      <point x="117" y="969" type="curve"/>
      <point x="117" y="848"/>
      <point x="195" y="799"/>
      <point x="293" y="799" type="curve" smooth="yes"/>
      <point x="387" y="799"/>
      <point x="467" y="848"/>
      <point x="467" y="969" type="curve" smooth="yes"/>
      <point x="467" y="1094"/>
      <point x="387" y="1139"/>
      <point x="293" y="1139" type="curve" smooth="yes"/>
      <point x="195" y="1139"/>
      <point x="117" y="1094"/>
    </contour>
  </outline>
</glyph>
<glyph name="F" format="2">
  <advance width="1124"/>
  <unicode hex="0046"/>
  <anchor x="563" y="0" name="bottom"/>
  <anchor x="610" y="1462" name="top"/>
  <anchor x="1083" y="1462" name="topright"/>
  <outline>
    <contour>
      <point x="489" y="0" type="line"/>
      <point x="489" y="578" type="line"/>
      <point x="985" y="578" type="line"/>
      <point x="985" y="831" type="line"/>
      <point x="489" y="831" type="line"/>
      <point x="489" y="1208" type="line"/>
      <point x="1022" y="1208" type="line"/>
      <point x="1022" y="1462" type="line"/>
      <point x="184" y="1462" type="line"/>
      <point x="184" y="0" type="line"/>
    </contour>
  </outline>
</glyph>
<glyph name="G" format="2">
  <advance width="1483"/>
  <unicode hex="0047"/>
  <anchor x="799" y="0" name="bottom"/>
  <anchor x="819" y="1462" name="top"/>
  <anchor x="1442" y="1462" name="topright"/>
  <outline>
    <contour>
      <point x="739" y="821" type="line"/>
      <point x="739" y="563" type="line"/>
      <point x="1016" y="563" type="line"/>
      <point x="1016" y="258" type="line"/>
      <point x="963" y="248"/>
      <point x="907" y="238"/>
      <point x="819" y="238" type="curve" smooth="yes"/>
      <point x="549" y="238"/>
      <point x="438" y="440"/>
      <point x="438" y="727" type="curve" smooth="yes"/>
      <point x="438" y="1028"/>
      <point x="610" y="1225"/>
      <point x="881" y="1225" type="curve" smooth="yes"/>
      <point x="1006" y="1225"/>
      <point x="1124" y="1190"/>
      <point x="1214" y="1145" type="curve"/>
      <point x="1317" y="1393" type="line"/>
      <point x="1194" y="1446"/>
      <point x="1038" y="1483"/>
      <point x="883" y="1483" type="curve" smooth="yes"/>
      <point x="391" y="1483"/>
      <point x="119" y="1192"/>
      <point x="119" y="733" type="curve" smooth="yes"/>
      <point x="119" y="242"/>
      <point x="362" y="-20"/>
      <point x="799" y="-20" type="curve" smooth="yes"/>
      <point x="1008" y="-20"/>
      <point x="1165" y="12"/>
      <point x="1319" y="63" type="curve"/>
      <point x="1319" y="821" type="line"/>
    </contour>
  </outline>
</glyph>
<glyph name="H" format="2">
  <advance width="1567"/>
  <unicode hex="0048"/>
  <anchor x="776" y="0" name="bottom"/>
  <anchor x="784" y="731" name="center"/>
  <anchor x="784" y="1462" name="top"/>
  <anchor x="1526" y="1462" name="topright"/>
  <outline>
    <contour>
      <point x="1382" y="0" type="line"/>
      <point x="1382" y="1462" type="line"/>
      <point x="1073" y="1462" type="line"/>
      <point x="1073" y="889" type="line"/>
      <point x="494" y="889" type="line"/>
      <point x="494" y="1462" type="line"/>
      <point x="184" y="1462" type="line"/>
      <point x="184" y="0" type="line"/>
      <point x="494" y="0" type="line"/>
      <point x="494" y="631" type="line"/>
      <point x="1073" y="631" type="line"/>
      <point x="1073" y="0" type="line"/>
    </contour>
  </outline>
</glyph>
<glyph name="J" format="2">
  <advance width="678"/>
  <unicode hex="004A"/>
  <anchor x="31" y="-389" name="bottom"/>
  <anchor x="340" y="1462" name="top"/>
  <anchor x="637" y="1462" name="topright"/>
  <outline>
    <contour>
      <point x="31" y="-430" type="curve" smooth="yes"/>
      <point x="305" y="-430"/>
      <point x="494" y="-283"/>
      <point x="494" y="94" type="curve" smooth="yes"/>
      <point x="494" y="1462" type="line"/>
      <point x="184" y="1462" type="line"/>
      <point x="184" y="92" type="line" smooth="yes"/>
      <point x="184" y="-123"/>
      <point x="102" y="-170"/>
      <point x="-6" y="-170" type="curve" smooth="yes"/>
      <point x="-61" y="-170"/>
      <point x="-109" y="-160"/>
      <point x="-152" y="-150" type="curve"/>
      <point x="-152" y="-408" type="line"/>
      <point x="-109" y="-420"/>
      <point x="-49" y="-430"/>
    </contour>
  </outline>
</glyph>
<glyph name="Y" format="2">
  <advance width="1278"/>
  <unicode hex="0059"/>
  <anchor x="639" y="0" name="bottom"/>
  <anchor x="639" y="1462" name="top"/>
  <anchor x="1237" y="1462" name="topright"/>
  <outline>
    <contour>
      <point x="639" y="860" type="line"/>
      <point x="336" y="1462" type="line"/>
      <point x="0" y="1462" type="line"/>
      <point x="485" y="559" type="line"/>
      <point x="485" y="0" type="line"/>
      <point x="793" y="0" type="line"/>
      <point x="793" y="569" type="line"/>
      <point x="1278" y="1462" type="line"/>
      <point x="944" y="1462" type="line"/>
    </contour>
  </outline>
</glyph>
<glyph name="Z" format="2">
  <advance width="1186"/>
  <unicode hex="005A"/>
  <anchor x="627" y="0" name="bottom"/>
  <anchor x="604" y="1462" name="top"/>
  <anchor x="1145" y="1462" name="topright"/>
  <outline>
    <contour>
      <point x="1137" y="0" type="line"/>
      <point x="1137" y="256" type="line"/>
      <point x="418" y="256" type="line"/>
      <point x="1118" y="1262" type="line"/>
      <point x="1118" y="1462" type="line"/>
      <point x="68" y="1462" type="line"/>
      <point x="68" y="1206" type="line"/>
      <point x="750" y="1206" type="line"/>
      <point x="49" y="201" type="line"/>
      <point x="49" y="0" type="line"/>
    </contour>
  </outline>
</glyph>
<glyph name="underscore" format="2">
  <advance width="842"/>
  <unicode hex="005F"/>
  <outline>
    <contour>
      <point x="846" y="-324" type="line"/>
      <point x="846" y="-184" type="line"/>
      <point x="-4" y="-184" type="line"/>
      <point x="-4" y="-324" type="line"/>
    </contour>
  </outline>
</glyph>
<glyph name="k" format="2">
  <advance width="1270"/>
  <unicode hex="006B"/>
  <anchor x="635" y="0" name="bottom"/>
  <anchor x="326" y="1556" name="top"/>
  <anchor x="1266" y="1556" name="topright"/>
  <outline>
    <contour>
      <point x="465" y="1556" type="line"/>
      <point x="160" y="1556" type="line"/>
      <point x="160" y="0" type="line"/>
      <point x="465" y="0" type="line"/>
      <point x="465" y="348" type="line"/>
      <point x="596" y="453" type="line"/>
      <point x="918" y="0" type="line"/>
      <point x="1270" y="0" type="line"/>
      <point x="799" y="633" type="line"/>
      <point x="1243" y="1118" type="line"/>
      <point x="899" y="1118" type="line"/>
      <point x="586" y="778" type="line" smooth="yes"/>
      <point x="537" y="725"/>
      <point x="494" y="666"/>
      <point x="453" y="608" type="curve"/>
      <point x="449" y="608" type="line"/>
      <point x="457" y="692"/>
      <point x="465" y="776"/>
      <point x="465" y="860" type="curve" smooth="yes"/>
    </contour>
  </outline>
</glyph>
<glyph name="w" format="2">
  <advance width="1753"/>
  <unicode hex="0077"/>
  <anchor x="881" y="0" name="bottom"/>
  <anchor x="877" y="1118" name="top"/>
  <anchor x="1712" y="1118" name="topright"/>
  <outline>
    <contour>
      <point x="1079" y="0" type="line"/>
      <point x="1411" y="0" type="line"/>
      <point x="1733" y="1118" type="line"/>
      <point x="1434" y="1118" type="line"/>
      <point x="1300" y="623" type="line" smooth="yes"/>
      <point x="1272" y="518"/>
      <point x="1243" y="324"/>
      <point x="1235" y="256" type="curve"/>
      <point x="1227" y="256" type="line"/>
      <point x="1225" y="332"/>
      <point x="1192" y="524"/>
      <point x="1178" y="582" type="curve" smooth="yes"/>
      <point x="1047" y="1118" type="line"/>
      <point x="711" y="1118" type="line"/>
      <point x="573" y="582" type="line" smooth="yes"/>
      <point x="563" y="541"/>
      <point x="526" y="334"/>
      <point x="522" y="256" type="curve"/>
      <point x="514" y="256" type="line"/>
      <point x="504" y="334"/>
      <point x="479" y="518"/>
      <point x="453" y="623" type="curve" smooth="yes"/>
      <point x="324" y="1118" type="line"/>
      <point x="20" y="1118" type="line"/>
      <point x="338" y="0" type="line"/>
      <point x="666" y="0" type="line"/>
      <point x="756" y="387" type="line" smooth="yes"/>
      <point x="778" y="483"/>
      <point x="852" y="803"/>
      <point x="870" y="885" type="curve"/>
      <point x="879" y="885" type="line"/>
      <point x="897" y="803"/>
      <point x="973" y="483"/>
      <point x="993" y="391" type="curve" smooth="yes"/>
    </contour>
  </outline>
</glyph>
<glyph name="x" format="2">
  <advance width="1184"/>
  <unicode hex="0078"/>
  <anchor x="592" y="0" name="bottom"/>
  <anchor x="590" y="1118" name="top"/>
  <anchor x="1143" y="1118" name="topright"/>
  <outline>
    <contour>
      <point x="389" y="571" type="line"/>
      <point x="10" y="0" type="line"/>
      <point x="356" y="0" type="line"/>
      <point x="592" y="383" type="line"/>
      <point x="827" y="0" type="line"/>
      <point x="1174" y="0" type="line"/>
      <point x="793" y="571" type="line"/>
      <point x="1157" y="1118" type="line"/>
      <point x="811" y="1118" type="line"/>
      <point x="592" y="762" type="line"/>
      <point x="375" y="1118" type="line"/>
      <point x="29" y="1118" type="line"/>
    </contour>
  </outline>
</glyph>
<glyph name="dieresis" format="2">
  <advance width="1243"/>
  <unicode hex="00A8"/>
  <outline>
    <contour>
      <point x="279" y="1405" type="curve"/>
      <point x="279" y="1315"/>
      <point x="340" y="1272"/>
      <point x="418" y="1272" type="curve" smooth="yes"/>
      <point x="494" y="1272"/>
      <point x="559" y="1315"/>
      <point x="559" y="1405" type="curve" smooth="yes"/>
      <point x="559" y="1499"/>
      <point x="494" y="1540"/>
      <point x="418" y="1540" type="curve" smooth="yes"/>
      <point x="340" y="1540"/>
      <point x="279" y="1499"/>
    </contour>
    <contour>
      <point x="682" y="1405" type="curve"/>
      <point x="682" y="1315"/>
      <point x="743" y="1272"/>
      <point x="823" y="1272" type="curve" smooth="yes"/>
      <point x="899" y="1272"/>
      <point x="965" y="1315"/>
      <point x="965" y="1405" type="curve" smooth="yes"/>
      <point x="965" y="1499"/>
      <point x="899" y="1540"/>
      <point x="823" y="1540" type="curve" smooth="yes"/>
      <point x="743" y="1540"/>
      <point x="682" y="1499"/>
    </contour>
  </outline>
</glyph>
<glyph name="onehalf" format="2">
  <advance width="1790"/>
  <unicode hex="00BD"/>
  <outline>
    <contour>
      <point x="319" y="0" type="line"/>
      <point x="559" y="0" type="line"/>
      <point x="1370" y="1462" type="line"/>
      <point x="1130" y="1462" type="line"/>
    </contour>
    <contour>
      <point x="299" y="586" type="line"/>
      <point x="537" y="586" type="line"/>
      <point x="537" y="1462" type="line"/>
      <point x="346" y="1462" type="line"/>
      <point x="45" y="1227" type="line"/>
      <point x="154" y="1100" type="line"/>
      <point x="231" y="1161" type="line"/>
      <point x="254" y="1180"/>
      <point x="291" y="1217"/>
      <point x="307" y="1239" type="curve"/>
      <point x="303" y="1208"/>
      <point x="299" y="1085"/>
      <point x="299" y="1032" type="curve" smooth="yes"/>
    </contour>
    <contour>
      <point x="1069" y="0" type="line"/>
      <point x="1716" y="0" type="line"/>
      <point x="1716" y="201" type="line"/>
      <point x="1364" y="201" type="line"/>
      <point x="1468" y="295" type="line" smooth="yes"/>
      <point x="1628" y="440"/>
      <point x="1692" y="524"/>
      <point x="1692" y="647" type="curve" smooth="yes"/>
      <point x="1692" y="809"/>
      <point x="1573" y="897"/>
      <point x="1397" y="897" type="curve" smooth="yes"/>
      <point x="1251" y="897"/>
      <point x="1147" y="844"/>
      <point x="1061" y="768" type="curve"/>
      <point x="1184" y="616" type="line"/>
      <point x="1253" y="678"/>
      <point x="1311" y="705"/>
      <point x="1364" y="705" type="curve" smooth="yes"/>
      <point x="1417" y="705"/>
      <point x="1452" y="676"/>
      <point x="1452" y="627" type="curve" smooth="yes"/>
      <point x="1452" y="555"/>
      <point x="1415" y="506"/>
      <point x="1292" y="387" type="curve" smooth="yes"/>
      <point x="1069" y="168" type="line"/>
    </contour>
  </outline>
</glyph>
<glyph name="Lslash" format="2">
  <advance width="1157"/>
  <unicode hex="0141"/>
  <anchor x="631" y="0" name="bottom"/>
  <anchor x="336" y="1462" name="top"/>
  <outline>
    <contour>
      <point x="184" y="0" type="line"/>
      <point x="1087" y="0" type="line"/>
      <point x="1087" y="256" type="line"/>
      <point x="494" y="256" type="line"/>
      <point x="494" y="680" type="line"/>
      <point x="754" y="838" type="line"/>
      <point x="637" y="1034" type="line"/>
      <point x="494" y="946" type="line"/>
      <point x="494" y="1462" type="line"/>
      <point x="184" y="1462" type="line"/>
      <point x="184" y="758" type="line"/>
      <point x="2" y="647" type="line"/>
      <point x="115" y="451" type="line"/>
      <point x="184" y="492" type="line"/>
    </contour>
  </outline>
</glyph>
<glyph name="OE" format="2">
  <advance width="1993"/>
  <unicode hex="0152"/>
  <anchor x="997" y="0" name="bottom"/>
  <anchor x="997" y="1462" name="top"/>
  <outline>
    <contour>
      <point x="776" y="1485" type="curve" smooth="yes"/>
      <point x="326" y="1485"/>
      <point x="119" y="1188"/>
      <point x="119" y="735" type="curve" smooth="yes"/>
      <point x="119" y="281"/>
      <point x="326" y="-20"/>
      <point x="774" y="-20" type="curve" smooth="yes"/>
      <point x="844" y="-20"/>
      <point x="940" y="-12"/>
      <point x="999" y="0" type="curve"/>
      <point x="1872" y="0" type="line"/>
      <point x="1872" y="256" type="line"/>
      <point x="1309" y="256" type="line"/>
      <point x="1309" y="633" type="line"/>
      <point x="1835" y="633" type="line"/>
      <point x="1835" y="887" type="line"/>
      <point x="1309" y="887" type="line"/>
      <point x="1309" y="1208" type="line"/>
      <point x="1872" y="1208" type="line"/>
      <point x="1872" y="1462" type="line"/>
      <point x="1004" y="1462" type="line"/>
      <point x="944" y="1477"/>
      <point x="848" y="1485"/>
    </contour>
    <contour>
      <point x="776" y="1227" type="curve" smooth="yes"/>
      <point x="856" y="1227"/>
      <point x="950" y="1212"/>
      <point x="999" y="1186" type="curve"/>
      <point x="999" y="279" type="line"/>
      <point x="948" y="254"/>
      <point x="854" y="240"/>
      <point x="774" y="240" type="curve" smooth="yes"/>
      <point x="543" y="240"/>
      <point x="438" y="426"/>
      <point x="438" y="733" type="curve" smooth="yes"/>
      <point x="438" y="1040"/>
      <point x="543" y="1227"/>
    </contour>
  </outline>
</glyph>
<glyph name="tbar" format="2">
  <advance width="889"/>
  <unicode hex="0167"/>
  <anchor x="494" y="0" name="bottom"/>
  <anchor x="406" y="1356" name="top"/>
  <outline>
    <contour>
      <point x="66" y="498" type="line"/>
      <point x="776" y="498" type="line"/>
      <point x="776" y="696" type="line"/>
      <point x="66" y="696" type="line"/>
    </contour>
    <component base="t"/>
  </outline>
</glyph>
<glyph name="uni018B" format="2">
  <advance width="1307"/>
  <unicode hex="018B"/>
  <anchor x="653" y="0" name="bottom"/>
  <anchor x="653" y="1462" name="top"/>
  <outline>
    <contour>
      <point x="672" y="0" type="curve" smooth="yes"/>
      <point x="1122" y="0" type="line"/>
      <point x="1122" y="1462" type="line"/>
      <point x="199" y="1462" type="line"/>
      <point x="199" y="1206" type="line"/>
      <point x="813" y="1206" type="line"/>
      <point x="813" y="901" type="line"/>
      <point x="700" y="901" type="line" smooth="yes"/>
      <point x="279" y="901"/>
      <point x="92" y="709"/>
      <point x="92" y="449" type="curve" smooth="yes"/>
      <point x="92" y="162"/>
      <point x="262" y="0"/>
    </contour>
    <contour>
      <point x="709" y="254" type="line" smooth="yes"/>
      <point x="520" y="254"/>
      <point x="406" y="305"/>
      <point x="406" y="455" type="curve" smooth="yes"/>
      <point x="406" y="610"/>
      <point x="530" y="647"/>
      <point x="733" y="647" type="curve" smooth="yes"/>
      <point x="813" y="647" type="line"/>
      <point x="813" y="254" type="line"/>
    </contour>
  </outline>
</glyph>
<glyph name="uni0190" format="2">
  <advance width="1327"/>
  <unicode hex="0190"/>
  <anchor x="664" y="0" name="bottom"/>
  <anchor x="664" y="1462" name="top"/>
  <outline>
    <contour>
      <point x="678" y="1483" type="curve" smooth="yes"/>
      <point x="348" y="1483"/>
      <point x="133" y="1331"/>
      <point x="133" y="1100" type="curve" smooth="yes"/>
      <point x="133" y="897"/>
      <point x="289" y="801"/>
      <point x="502" y="770" type="curve"/>
      <point x="502" y="764" type="line"/>
      <point x="242" y="741"/>
      <point x="88" y="614"/>
      <point x="88" y="414" type="curve" smooth="yes"/>
      <point x="88" y="154"/>
      <point x="293" y="-20"/>
      <point x="696" y="-20" type="curve" smooth="yes"/>
      <point x="918" y="-20"/>
      <point x="1096" y="8"/>
      <point x="1221" y="59" type="curve"/>
      <point x="1221" y="319" type="line"/>
      <point x="1094" y="258"/>
      <point x="903" y="223"/>
      <point x="764" y="223" type="curve" smooth="yes"/>
      <point x="506" y="223"/>
      <point x="395" y="301"/>
      <point x="395" y="438" type="curve" smooth="yes"/>
      <point x="395" y="578"/>
      <point x="557" y="639"/>
      <point x="864" y="639" type="curve" smooth="yes"/>
      <point x="1001" y="639" type="line"/>
      <point x="1001" y="881" type="line"/>
      <point x="879" y="881" type="line" smooth="yes"/>
      <point x="535" y="881"/>
      <point x="434" y="954"/>
      <point x="434" y="1071" type="curve" smooth="yes"/>
      <point x="434" y="1171"/>
      <point x="524" y="1235"/>
      <point x="700" y="1235" type="curve" smooth="yes"/>
      <point x="852" y="1235"/>
      <point x="983" y="1188"/>
      <point x="1098" y="1116" type="curve"/>
      <point x="1233" y="1323" type="line"/>
      <point x="1079" y="1423"/>
      <point x="915" y="1483"/>
    </contour>
  </outline>
</glyph>
<glyph name="ohorn" format="2">
  <advance width="1391"/>
  <unicode hex="01A1"/>
  <anchor x="631" y="0" name="bottom"/>
  <anchor x="635" y="1118" name="top"/>
  <outline>
    <contour>
      <point x="1176" y="561" type="curve" smooth="yes"/>
      <point x="1176" y="668"/>
      <point x="1157" y="760"/>
      <point x="1124" y="840" type="curve"/>
      <point x="1374" y="905"/>
      <point x="1444" y="1065"/>
      <point x="1485" y="1264" type="curve"/>
      <point x="1470" y="1286" type="line"/>
      <point x="1169" y="1286" type="line"/>
      <point x="1169" y="1143"/>
      <point x="1128" y="1034"/>
      <point x="1020" y="1001" type="curve"/>
      <point x="926" y="1092"/>
      <point x="786" y="1139"/>
      <point x="637" y="1139" type="curve" smooth="yes"/>
      <point x="299" y="1139"/>
      <point x="92" y="932"/>
      <point x="92" y="561" type="curve" smooth="yes"/>
      <point x="92" y="188"/>
      <point x="317" y="-20"/>
      <point x="631" y="-20" type="curve" smooth="yes"/>
      <point x="967" y="-20"/>
      <point x="1176" y="188"/>
    </contour>
    <contour>
      <point x="403" y="561" type="curve" smooth="yes"/>
      <point x="403" y="782"/>
      <point x="471" y="893"/>
      <point x="633" y="893" type="curve" smooth="yes"/>
      <point x="797" y="893"/>
      <point x="864" y="782"/>
      <point x="864" y="561" type="curve" smooth="yes"/>
      <point x="864" y="340"/>
      <point x="797" y="225"/>
      <point x="635" y="225" type="curve" smooth="yes"/>
      <point x="471" y="225"/>
      <point x="403" y="340"/>
    </contour>
  </outline>
</glyph>
<glyph name="uni01B1" format="2">
  <advance width="1610"/>
  <unicode hex="01B1"/>
  <anchor x="805" y="0" name="bottom"/>
  <anchor x="805" y="1462" name="top"/>
  <outline>
    <contour>
      <point x="805" y="238" type="curve"/>
      <point x="571" y="238"/>
      <point x="428" y="381"/>
      <point x="428" y="653" type="curve" smooth="yes"/>
      <point x="428" y="887"/>
      <point x="494" y="1077"/>
      <point x="698" y="1184" type="curve"/>
      <point x="698" y="1462" type="line"/>
      <point x="55" y="1462" type="line"/>
      <point x="55" y="1202" type="line"/>
      <point x="430" y="1202" type="line"/>
      <point x="233" y="1083"/>
      <point x="109" y="866"/>
      <point x="109" y="592" type="curve" smooth="yes"/>
      <point x="109" y="219"/>
      <point x="377" y="-20"/>
      <point x="805" y="-20" type="curve"/>
      <point x="1233" y="-20"/>
      <point x="1501" y="219"/>
      <point x="1501" y="590" type="curve" smooth="yes"/>
      <point x="1501" y="864"/>
      <point x="1376" y="1085"/>
      <point x="1184" y="1202" type="curve"/>
      <point x="1554" y="1202" type="line"/>
      <point x="1554" y="1462" type="line"/>
      <point x="915" y="1462" type="line"/>
      <point x="915" y="1184" type="line"/>
      <point x="1118" y="1073"/>
      <point x="1182" y="891"/>
      <point x="1182" y="655" type="curve" smooth="yes"/>
      <point x="1182" y="381"/>
      <point x="1038" y="238"/>
    </contour>
  </outline>
</glyph>
<glyph name="uni01B5" format="2">
  <advance width="1186"/>
  <unicode hex="01B5"/>
  <anchor x="594" y="0" name="bottom"/>
  <anchor x="594" y="1462" name="top"/>
  <outline>
    <contour>
      <point x="127" y="850" type="line"/>
      <point x="127" y="596" type="line"/>
      <point x="326" y="596" type="line"/>
      <point x="49" y="201" type="line"/>
      <point x="49" y="0" type="line"/>
      <point x="1137" y="0" type="line"/>
      <point x="1137" y="256" type="line"/>
      <point x="418" y="256" type="line"/>
      <point x="653" y="596" type="line"/>
      <point x="1022" y="596" type="line"/>
      <point x="1022" y="850" type="line"/>
      <point x="831" y="850" type="line"/>
      <point x="1118" y="1262" type="line"/>
      <point x="1118" y="1462" type="line"/>
      <point x="68" y="1462" type="line"/>
      <point x="68" y="1206" type="line"/>
      <point x="750" y="1206" type="line"/>
      <point x="502" y="850" type="line"/>
    </contour>
  </outline>
</glyph>
<glyph name="uni01B9" format="2">
  <advance width="1190"/>
  <unicode hex="01B9"/>
  <anchor x="596" y="-492" name="bottom"/>
  <anchor x="596" y="1118" name="top"/>
  <outline>
    <contour>
      <point x="659" y="-492" type="curve" smooth="yes"/>
      <point x="846" y="-492"/>
      <point x="987" y="-461"/>
      <point x="1112" y="-408" type="curve"/>
      <point x="1112" y="-150" type="line"/>
      <point x="981" y="-213"/>
      <point x="827" y="-246"/>
      <point x="702" y="-246" type="curve" smooth="yes"/>
      <point x="475" y="-246"/>
      <point x="389" y="-129"/>
      <point x="389" y="18" type="curve" smooth="yes"/>
      <point x="389" y="168"/>
      <point x="477" y="285"/>
      <point x="788" y="285" type="curve" smooth="yes"/>
      <point x="907" y="285" type="line"/>
      <point x="907" y="502" type="line"/>
      <point x="512" y="885" type="line"/>
      <point x="1102" y="885" type="line"/>
      <point x="1102" y="1118" type="line"/>
      <point x="135" y="1118" type="line"/>
      <point x="135" y="920" type="line"/>
      <point x="567" y="506" type="line"/>
      <point x="217" y="455"/>
      <point x="80" y="256"/>
      <point x="80" y="0" type="curve" smooth="yes"/>
      <point x="80" y="-291"/>
      <point x="274" y="-492"/>
    </contour>
  </outline>
</glyph>
<glyph name="uni01F6" format="2">
  <advance width="2146"/>
  <unicode hex="01F6"/>
  <anchor x="1073" y="0" name="bottom"/>
  <anchor x="1073" y="1462" name="top"/>
  <outline>
    <contour>
      <point x="184" y="0" type="line"/>
      <point x="494" y="0" type="line"/>
      <point x="494" y="631" type="line"/>
      <point x="975" y="631" type="line"/>
      <point x="975" y="451" type="line" smooth="yes"/>
      <point x="975" y="123"/>
      <point x="1130" y="-20"/>
      <point x="1473" y="-20" type="curve" smooth="yes"/>
      <point x="1812" y="-20"/>
      <point x="1972" y="158"/>
      <point x="1972" y="498" type="curve" smooth="yes"/>
      <point x="1972" y="1118" type="line"/>
      <point x="1663" y="1118" type="line"/>
      <point x="1663" y="502" type="line" smooth="yes"/>
      <point x="1663" y="301"/>
      <point x="1606" y="229"/>
      <point x="1473" y="229" type="curve" smooth="yes"/>
      <point x="1337" y="229"/>
      <point x="1284" y="303"/>
      <point x="1284" y="479" type="curve" smooth="yes"/>
      <point x="1284" y="1462" type="line"/>
      <point x="975" y="1462" type="line"/>
      <point x="975" y="889" type="line"/>
      <point x="494" y="889" type="line"/>
      <point x="494" y="1462" type="line"/>
      <point x="184" y="1462" type="line"/>
    </contour>
  </outline>
</glyph>
<glyph name="aringacute" format="2">
  <advance width="1237"/>
  <unicode hex="01FB"/>
  <anchor x="618" y="0" name="bottom"/>
  <anchor x="618" y="1962" name="top"/>
  <outline>
    <contour>
      <point x="618" y="1141" type="curve" smooth="yes"/>
      <point x="461" y="1141"/>
      <point x="309" y="1102"/>
      <point x="190" y="1040" type="curve"/>
      <point x="291" y="834" type="line"/>
      <point x="395" y="881"/>
      <point x="498" y="915"/>
      <point x="606" y="915" type="curve" smooth="yes"/>
      <point x="715" y="915"/>
      <point x="780" y="862"/>
      <point x="780" y="745" type="curve" smooth="yes"/>
      <point x="780" y="696" type="line"/>
      <point x="586" y="690" type="line" smooth="yes"/>
      <point x="252" y="678"/>
      <point x="86" y="571"/>
      <point x="86" y="334" type="curve" smooth="yes"/>
      <point x="86" y="92"/>
      <point x="233" y="-20"/>
      <point x="432" y="-20" type="curve" smooth="yes"/>
      <point x="618" y="-20"/>
      <point x="707" y="31"/>
      <point x="803" y="152" type="curve"/>
      <point x="811" y="152" type="line"/>
      <point x="870" y="0" type="line"/>
      <point x="1083" y="0" type="line"/>
      <point x="1083" y="745" type="line" smooth="yes"/>
      <point x="1083" y="1012"/>
      <point x="918" y="1141"/>
    </contour>
    <contour>
      <point x="780" y="518" type="line"/>
      <point x="780" y="426" type="line"/>
      <point x="780" y="283"/>
      <point x="678" y="203"/>
      <point x="547" y="203" type="curve" smooth="yes"/>
      <point x="459" y="203"/>
      <point x="399" y="238"/>
      <point x="399" y="332" type="curve" smooth="yes"/>
      <point x="399" y="438"/>
      <point x="465" y="508"/>
      <point x="662" y="514" type="curve" smooth="yes"/>
    </contour>
    <contour>
      <point x="627" y="1532" type="curve" smooth="yes"/>
      <point x="682" y="1532"/>
      <point x="723" y="1495"/>
      <point x="723" y="1436" type="curve" smooth="yes"/>
      <point x="723" y="1376"/>
      <point x="682" y="1339"/>
      <point x="627" y="1339" type="curve" smooth="yes"/>
      <point x="563" y="1339"/>
      <point x="530" y="1376"/>
      <point x="530" y="1436" type="curve" smooth="yes"/>
      <point x="530" y="1495"/>
      <point x="571" y="1532"/>
    </contour>
    <contour>
      <point x="627" y="1673" type="curve" smooth="yes"/>
      <point x="479" y="1673"/>
      <point x="379" y="1583"/>
      <point x="379" y="1436" type="curve" smooth="yes"/>
      <point x="379" y="1288"/>
      <point x="479" y="1198"/>
      <point x="627" y="1198" type="curve" smooth="yes"/>
      <point x="770" y="1198"/>
      <point x="881" y="1288"/>
      <point x="881" y="1438" type="curve" smooth="yes"/>
      <point x="881" y="1583"/>
      <point x="768" y="1673"/>
    </contour>
    <contour>
      <point x="987" y="1962" type="line"/>
      <point x="645" y="1962" type="line"/>
      <point x="602" y="1903"/>
      <point x="528" y="1821"/>
      <point x="471" y="1769" type="curve"/>
      <point x="471" y="1753" type="line"/>
      <point x="674" y="1753" type="line"/>
      <point x="766" y="1800"/>
      <point x="944" y="1903"/>
      <point x="987" y="1950" type="curve"/>
    </contour>
  </outline>
</glyph>
<glyph name="uni0221" format="2">
  <advance width="1776"/>
  <unicode hex="0221"/>
  <anchor x="889" y="-215" name="bottom"/>
  <anchor x="889" y="1556" name="top"/>
  <outline>
    <contour>
      <point x="1235" y="-215" type="line"/>
      <point x="1239" y="-133"/>
      <point x="1247" y="-59"/>
      <point x="1257" y="4" type="curve"/>
      <point x="1286" y="2"/>
      <point x="1317" y="0"/>
      <point x="1350" y="0" type="curve" smooth="yes"/>
      <point x="1681" y="0"/>
      <point x="1776" y="135"/>
      <point x="1776" y="289" type="curve" smooth="yes"/>
      <point x="1776" y="412"/>
      <point x="1677" y="506"/>
      <point x="1489" y="508" type="curve" smooth="yes"/>
      <point x="1360" y="510"/>
      <point x="1241" y="455"/>
      <point x="1153" y="330" type="curve"/>
      <point x="1143" y="365"/>
      <point x="1137" y="408"/>
      <point x="1137" y="461" type="curve" smooth="yes"/>
      <point x="1137" y="1556" type="line"/>
      <point x="831" y="1556" type="line"/>
      <point x="831" y="1198" type="line" smooth="yes"/>
      <point x="831" y="1135"/>
      <point x="844" y="1032"/>
      <point x="854" y="975" type="curve" smooth="yes"/>
      <point x="844" y="975" type="line"/>
      <point x="782" y="1067"/>
      <point x="682" y="1139"/>
      <point x="522" y="1139" type="curve" smooth="yes"/>
      <point x="266" y="1139"/>
      <point x="92" y="940"/>
      <point x="92" y="557" type="curve" smooth="yes"/>
      <point x="92" y="168"/>
      <point x="264" y="-20"/>
      <point x="555" y="-20" type="curve" smooth="yes"/>
      <point x="766" y="-20"/>
      <point x="874" y="72"/>
      <point x="934" y="164" type="curve"/>
      <point x="944" y="164" type="line"/>
      <point x="952" y="125"/>
      <point x="981" y="86"/>
      <point x="1036" y="55" type="curve"/>
      <point x="1020" y="-20"/>
      <point x="1008" y="-106"/>
      <point x="1001" y="-205" type="curve"/>
    </contour>
    <contour>
      <point x="621" y="223" type="curve" smooth="yes"/>
      <point x="481" y="223"/>
      <point x="401" y="334"/>
      <point x="401" y="553" type="curve" smooth="yes"/>
      <point x="401" y="772"/>
      <point x="481" y="891"/>
      <point x="616" y="891" type="curve" smooth="yes"/>
      <point x="797" y="891"/>
      <point x="852" y="772"/>
      <point x="852" y="555" type="curve" smooth="yes"/>
      <point x="852" y="522" type="line" smooth="yes"/>
      <point x="848" y="322"/>
      <point x="788" y="223"/>
    </contour>
    <contour>
      <point x="1374" y="205" type="curve" smooth="yes"/>
      <point x="1358" y="205"/>
      <point x="1341" y="205"/>
      <point x="1325" y="207" type="curve"/>
      <point x="1362" y="270"/>
      <point x="1411" y="303"/>
      <point x="1470" y="303" type="curve" smooth="yes"/>
      <point x="1509" y="303"/>
      <point x="1540" y="289"/>
      <point x="1540" y="262" type="curve" smooth="yes"/>
      <point x="1540" y="225"/>
      <point x="1493" y="205"/>
    </contour>
  </outline>
</glyph>
<glyph name="uni0248" format="2">
  <advance width="678"/>
  <unicode hex="0248"/>
  <anchor x="340" y="-430" name="bottom"/>
  <anchor x="340" y="1462" name="top"/>
  <outline>
    <contour>
      <point x="31" y="-430" type="curve" smooth="yes"/>
      <point x="305" y="-430"/>
      <point x="494" y="-283"/>
      <point x="494" y="94" type="curve" smooth="yes"/>
      <point x="494" y="604" type="line"/>
      <point x="678" y="604" type="line"/>
      <point x="678" y="858" type="line"/>
      <point x="494" y="858" type="line"/>
      <point x="494" y="1462" type="line"/>
      <point x="184" y="1462" type="line"/>
      <point x="184" y="858" type="line"/>
      <point x="0" y="858" type="line"/>
      <point x="0" y="604" type="line"/>
      <point x="184" y="604" type="line"/>
      <point x="184" y="92" type="line" smooth="yes"/>
      <point x="184" y="-123"/>
      <point x="102" y="-170"/>
      <point x="-6" y="-170" type="curve" smooth="yes"/>
      <point x="-61" y="-170"/>
      <point x="-109" y="-160"/>
      <point x="-152" y="-150" type="curve"/>
      <point x="-152" y="-408" type="line"/>
      <point x="-109" y="-420"/>
      <point x="-49" y="-430"/>
    </contour>
  </outline>
</glyph>
<glyph name="uni0251" format="2">
  <advance width="1296"/>
  <unicode hex="0251"/>
  <anchor x="649" y="0" name="bottom"/>
  <anchor x="649" y="1118" name="top"/>
  <outline>
    <contour>
      <point x="539" y="-20" type="curve" smooth="yes"/>
      <point x="705" y="-20"/>
      <point x="805" y="59"/>
      <point x="866" y="147" type="curve"/>
      <point x="879" y="147" type="line"/>
      <point x="926" y="20"/>
      <point x="1006" y="-20"/>
      <point x="1143" y="-20" type="curve" smooth="yes"/>
      <point x="1188" y="-20"/>
      <point x="1260" y="-6"/>
      <point x="1280" y="6" type="curve"/>
      <point x="1280" y="246" type="line"/>
      <point x="1270" y="242"/>
      <point x="1239" y="236"/>
      <point x="1221" y="236" type="curve" smooth="yes"/>
      <point x="1176" y="236"/>
      <point x="1137" y="262"/>
      <point x="1137" y="354" type="curve" smooth="yes"/>
      <point x="1137" y="1118" type="line"/>
      <point x="879" y="1118" type="line"/>
      <point x="852" y="975" type="line"/>
      <point x="844" y="975" type="line"/>
      <point x="782" y="1067"/>
      <point x="682" y="1139"/>
      <point x="522" y="1139" type="curve" smooth="yes"/>
      <point x="266" y="1139"/>
      <point x="92" y="940"/>
      <point x="92" y="557" type="curve" smooth="yes"/>
      <point x="92" y="178"/>
      <point x="264" y="-20"/>
    </contour>
    <contour>
      <point x="621" y="219" type="curve" smooth="yes"/>
      <point x="481" y="219"/>
      <point x="401" y="324"/>
      <point x="401" y="553" type="curve" smooth="yes"/>
      <point x="401" y="778"/>
      <point x="481" y="891"/>
      <point x="616" y="891" type="curve" smooth="yes"/>
      <point x="797" y="891"/>
      <point x="852" y="772"/>
      <point x="852" y="555" type="curve" smooth="yes"/>
      <point x="852" y="522" type="line" smooth="yes"/>
      <point x="852" y="319"/>
      <point x="788" y="219"/>
    </contour>
  </outline>
</glyph>
<glyph name="eopenreversedhook" format="2">
  <advance width="1618"/>
  <unicode hex="025D"/>
  <anchor x="549" y="0" name="bottom"/>
  <anchor x="549" y="1118" name="top"/>
  <outline>
    <contour>
      <point x="1382" y="537" type="curve" smooth="yes"/>
      <point x="1477" y="537"/>
      <point x="1554" y="571"/>
      <point x="1618" y="621" type="curve"/>
      <point x="1550" y="801" type="line"/>
      <point x="1509" y="772"/>
      <point x="1466" y="748"/>
      <point x="1409" y="748" type="curve" smooth="yes"/>
      <point x="1343" y="748"/>
      <point x="1319" y="795"/>
      <point x="1284" y="920" type="curve" smooth="yes"/>
      <point x="1255" y="1024" type="line"/>
      <point x="784" y="883" type="line"/>
      <point x="836" y="690" type="line"/>
      <point x="1102" y="776" type="line"/>
      <point x="1155" y="606"/>
      <point x="1247" y="537"/>
    </contour>
    <component base="afii10073"/>
  </outline>
</glyph>
<glyph name="uni0264" format="2">
  <advance width="1165"/>
  <unicode hex="0264"/>
  <anchor x="584" y="0" name="bottom"/>
  <anchor x="584" y="1118" name="top"/>
  <outline>
    <contour>
      <point x="1014" y="1139" type="curve" smooth="yes"/>
      <point x="897" y="1139"/>
      <point x="825" y="1079"/>
      <point x="756" y="983" type="curve" smooth="yes"/>
      <point x="684" y="885" type="line" smooth="yes"/>
      <point x="649" y="838"/>
      <point x="621" y="793"/>
      <point x="592" y="741" type="curve"/>
      <point x="584" y="741" type="line"/>
      <point x="555" y="791"/>
      <point x="520" y="840"/>
      <point x="489" y="883" type="curve" smooth="yes"/>
      <point x="416" y="985" type="line" smooth="yes"/>
      <point x="344" y="1083"/>
      <point x="262" y="1139"/>
      <point x="147" y="1139" type="curve" smooth="yes"/>
      <point x="98" y="1139"/>
      <point x="35" y="1126"/>
      <point x="0" y="1110" type="curve"/>
      <point x="0" y="885" type="line"/>
      <point x="25" y="891"/>
      <point x="49" y="895"/>
      <point x="72" y="895" type="curve" smooth="yes"/>
      <point x="129" y="895"/>
      <point x="176" y="852"/>
      <point x="244" y="762" type="curve" smooth="yes"/>
      <point x="397" y="557" type="line"/>
      <point x="338" y="465"/>
      <point x="295" y="379"/>
      <point x="295" y="258" type="curve" smooth="yes"/>
      <point x="295" y="96"/>
      <point x="395" y="-27"/>
      <point x="584" y="-27" type="curve" smooth="yes"/>
      <point x="772" y="-27"/>
      <point x="877" y="102"/>
      <point x="877" y="256" type="curve" smooth="yes"/>
      <point x="877" y="371"/>
      <point x="827" y="461"/>
      <point x="762" y="559" type="curve"/>
      <point x="922" y="768" type="line" smooth="yes"/>
      <point x="991" y="860"/>
      <point x="1024" y="895"/>
      <point x="1102" y="895" type="curve" smooth="yes"/>
      <point x="1122" y="895"/>
      <point x="1141" y="891"/>
      <point x="1165" y="885" type="curve"/>
      <point x="1165" y="1110" type="line"/>
      <point x="1130" y="1126"/>
      <point x="1063" y="1139"/>
    </contour>
    <contour>
      <point x="586" y="414" type="curve"/>
      <point x="633" y="350"/>
      <point x="655" y="293"/>
      <point x="655" y="242" type="curve" smooth="yes"/>
      <point x="655" y="195"/>
      <point x="633" y="156"/>
      <point x="586" y="156" type="curve" smooth="yes"/>
      <point x="541" y="156"/>
      <point x="516" y="197"/>
      <point x="516" y="246" type="curve" smooth="yes"/>
      <point x="516" y="293"/>
      <point x="537" y="350"/>
    </contour>
  </outline>
</glyph>
<glyph name="uni0267" format="2">
  <advance width="1346"/>
  <unicode hex="0267"/>
  <anchor x="674" y="-492" name="bottom"/>
  <anchor x="674" y="1567" name="top"/>
  <outline>
    <contour>
      <point x="518" y="1567" type="curve" smooth="yes"/>
      <point x="305" y="1567"/>
      <point x="160" y="1466"/>
      <point x="160" y="1214" type="curve" smooth="yes"/>
      <point x="160" y="0" type="line"/>
      <point x="465" y="0" type="line"/>
      <point x="465" y="526" type="line" smooth="yes"/>
      <point x="465" y="764"/>
      <point x="520" y="895"/>
      <point x="707" y="895" type="curve" smooth="yes"/>
      <point x="825" y="895"/>
      <point x="887" y="821"/>
      <point x="887" y="676" type="curve" smooth="yes"/>
      <point x="887" y="-76" type="line" smooth="yes"/>
      <point x="887" y="-211"/>
      <point x="831" y="-246"/>
      <point x="764" y="-246" type="curve" smooth="yes"/>
      <point x="719" y="-246"/>
      <point x="686" y="-240"/>
      <point x="645" y="-227" type="curve"/>
      <point x="645" y="-467" type="line"/>
      <point x="690" y="-481"/>
      <point x="766" y="-492"/>
      <point x="829" y="-492" type="curve" smooth="yes"/>
      <point x="1092" y="-492"/>
      <point x="1192" y="-326"/>
      <point x="1192" y="-121" type="curve" smooth="yes"/>
      <point x="1192" y="729" type="line" smooth="yes"/>
      <point x="1192" y="1016"/>
      <point x="1034" y="1139"/>
      <point x="795" y="1139" type="curve" smooth="yes"/>
      <point x="645" y="1139"/>
      <point x="537" y="1085"/>
      <point x="467" y="975" type="curve"/>
      <point x="451" y="975" type="line"/>
      <point x="455" y="995"/>
      <point x="465" y="1092"/>
      <point x="465" y="1190" type="curve" smooth="yes"/>
      <point x="465" y="1208" type="line" smooth="yes"/>
      <point x="465" y="1290"/>
      <point x="502" y="1323"/>
      <point x="565" y="1323" type="curve" smooth="yes"/>
      <point x="612" y="1323"/>
      <point x="655" y="1311"/>
      <point x="678" y="1303" type="curve"/>
      <point x="678" y="1536" type="line"/>
      <point x="649" y="1548"/>
      <point x="588" y="1567"/>
    </contour>
  </outline>
</glyph>
<glyph name="uni027E" format="2">
  <advance width="815"/>
  <unicode hex="027E"/>
  <anchor x="408" y="0" name="bottom"/>
  <anchor x="408" y="1118" name="top"/>
  <outline>
    <contour>
      <point x="535" y="1143" type="curve" smooth="yes"/>
      <point x="287" y="1143"/>
      <point x="154" y="1014"/>
      <point x="154" y="735" type="curve" smooth="yes"/>
      <point x="154" y="0" type="line"/>
      <point x="459" y="0" type="line"/>
      <point x="459" y="719" type="line" smooth="yes"/>
      <point x="459" y="813"/>
      <point x="496" y="883"/>
      <point x="608" y="883" type="curve" smooth="yes"/>
      <point x="662" y="883"/>
      <point x="698" y="874"/>
      <point x="737" y="862" type="curve"/>
      <point x="772" y="1110" type="line"/>
      <point x="700" y="1130"/>
      <point x="633" y="1143"/>
    </contour>
  </outline>
</glyph>
<glyph name="uni02A2" format="2">
  <advance width="981"/>
  <unicode hex="02A2"/>
  <anchor x="492" y="0" name="bottom"/>
  <anchor x="492" y="1567" name="top"/>
  <outline>
    <contour>
      <point x="530" y="1567" type="curve" smooth="yes"/>
      <point x="229" y="1567"/>
      <point x="49" y="1374"/>
      <point x="49" y="1128" type="curve" smooth="yes"/>
      <point x="49" y="895"/>
      <point x="176" y="737"/>
      <point x="424" y="623" type="curve"/>
      <point x="424" y="485" type="line"/>
      <point x="203" y="485" type="line"/>
      <point x="203" y="287" type="line"/>
      <point x="424" y="287" type="line"/>
      <point x="424" y="0" type="line"/>
      <point x="729" y="0" type="line"/>
      <point x="729" y="287" type="line"/>
      <point x="913" y="287" type="line"/>
      <point x="913" y="485" type="line"/>
      <point x="729" y="485" type="line"/>
      <point x="729" y="752" type="line"/>
      <point x="426" y="856"/>
      <point x="356" y="1008"/>
      <point x="356" y="1126" type="curve" smooth="yes"/>
      <point x="356" y="1241"/>
      <point x="442" y="1321"/>
      <point x="559" y="1321" type="curve" smooth="yes"/>
      <point x="684" y="1321"/>
      <point x="807" y="1257"/>
      <point x="866" y="1223" type="curve"/>
      <point x="975" y="1442" type="line"/>
      <point x="842" y="1516"/>
      <point x="700" y="1567"/>
    </contour>
  </outline>
</glyph>
<glyph name="dzligcurl" format="2">
  <advance width="2238"/>
  <unicode hex="02A5"/>
  <anchor x="1542" y="-178" name="bottom"/>
  <anchor x="1542" y="1556" name="top"/>
  <outline>
    <contour>
      <point x="1606" y="-178" type="line"/>
      <point x="1630" y="-111"/>
      <point x="1653" y="-57"/>
      <point x="1677" y="0" type="curve"/>
      <point x="1835" y="0" type="line" smooth="yes"/>
      <point x="2083" y="0"/>
      <point x="2238" y="78"/>
      <point x="2238" y="309" type="curve" smooth="yes"/>
      <point x="2238" y="461"/>
      <point x="2140" y="559"/>
      <point x="1993" y="559" type="curve" smooth="yes"/>
      <point x="1815" y="559"/>
      <point x="1712" y="457"/>
      <point x="1595" y="233" type="curve"/>
      <point x="1473" y="233" type="line"/>
      <point x="1989" y="934" type="line"/>
      <point x="1989" y="1118" type="line"/>
      <point x="1137" y="1118" type="line"/>
      <point x="1137" y="1556" type="line"/>
      <point x="831" y="1556" type="line"/>
      <point x="831" y="1198" type="line" smooth="yes"/>
      <point x="831" y="1124"/>
      <point x="842" y="1049"/>
      <point x="854" y="975" type="curve"/>
      <point x="844" y="975" type="line"/>
      <point x="782" y="1067"/>
      <point x="682" y="1139"/>
      <point x="522" y="1139" type="curve" smooth="yes"/>
      <point x="266" y="1139"/>
      <point x="92" y="940"/>
      <point x="92" y="557" type="curve" smooth="yes"/>
      <point x="92" y="178"/>
      <point x="264" y="-20"/>
      <point x="514" y="-20" type="curve" smooth="yes"/>
      <point x="676" y="-20"/>
      <point x="772" y="53"/>
      <point x="831" y="145" type="curve"/>
      <point x="844" y="145" type="line"/>
      <point x="903" y="0" type="line"/>
      <point x="1495" y="0" type="line"/>
      <point x="1479" y="-35"/>
      <point x="1460" y="-78"/>
      <point x="1444" y="-121" type="curve"/>
    </contour>
    <contour>
      <point x="621" y="223" type="curve" smooth="yes"/>
      <point x="481" y="223"/>
      <point x="401" y="334"/>
      <point x="401" y="553" type="curve" smooth="yes"/>
      <point x="401" y="772"/>
      <point x="481" y="891"/>
      <point x="616" y="891" type="curve" smooth="yes"/>
      <point x="797" y="891"/>
      <point x="852" y="772"/>
      <point x="852" y="555" type="curve" smooth="yes"/>
      <point x="852" y="522" type="line" smooth="yes"/>
      <point x="848" y="322"/>
      <point x="788" y="223"/>
    </contour>
    <contour>
      <point x="1137" y="207" type="line"/>
      <point x="1137" y="885" type="line"/>
      <point x="1634" y="885" type="line"/>
    </contour>
    <contour>
      <point x="1796" y="233" type="line"/>
      <point x="1847" y="324"/>
      <point x="1888" y="377"/>
      <point x="1952" y="377" type="curve" smooth="yes"/>
      <point x="1995" y="377"/>
      <point x="2017" y="352"/>
      <point x="2017" y="313" type="curve" smooth="yes"/>
      <point x="2017" y="260"/>
      <point x="1966" y="233"/>
      <point x="1860" y="233" type="curve" smooth="yes"/>
    </contour>
  </outline>
</glyph>
<glyph name="uni02C4" format="2">
  <advance width="584"/>
  <unicode hex="02C4"/>
  <outline>
    <contour>
      <point x="23" y="1110" type="line"/>
      <point x="141" y="1110" type="line"/>
      <point x="291" y="1452" type="line"/>
      <point x="440" y="1110" type="line"/>
      <point x="561" y="1110" type="line"/>
      <point x="332" y="1608" type="line"/>
      <point x="250" y="1608" type="line"/>
    </contour>
  </outline>
</glyph>
<glyph name="caron" format="2">
  <advance width="1032"/>
  <unicode hex="02C7"/>
  <outline>
    <contour>
      <point x="338" y="1241" type="curve"/>
      <point x="694" y="1241" type="line"/>
      <point x="752" y="1333"/>
      <point x="877" y="1468"/>
      <point x="950" y="1542" type="curve"/>
      <point x="950" y="1569" type="line"/>
      <point x="748" y="1569" type="line"/>
      <point x="676" y="1526"/>
      <point x="584" y="1466"/>
      <point x="514" y="1393" type="curve"/>
      <point x="442" y="1466"/>
      <point x="356" y="1524"/>
      <point x="285" y="1569" type="curve"/>
      <point x="82" y="1569" type="line"/>
      <point x="82" y="1542" type="line"/>
      <point x="158" y="1466"/>
      <point x="281" y="1333"/>
    </contour>
  </outline>
</glyph>
<glyph name="hungarumlaut" format="2">
  <advance width="1057"/>
  <unicode hex="02DD"/>
  <outline>
    <contour>
      <point x="975" y="1569" type="line"/>
      <point x="674" y="1569" type="line"/>
      <point x="627" y="1477"/>
      <point x="537" y="1346"/>
      <point x="479" y="1268" type="curve"/>
      <point x="479" y="1241" type="line"/>
      <point x="641" y="1241" type="line"/>
      <point x="741" y="1315"/>
      <point x="932" y="1477"/>
      <point x="975" y="1548" type="curve"/>
    </contour>
    <contour>
      <point x="578" y="1569" type="line"/>
      <point x="276" y="1569" type="line"/>
      <point x="227" y="1477"/>
      <point x="139" y="1346"/>
      <point x="82" y="1268" type="curve"/>
      <point x="82" y="1241" type="line"/>
      <point x="244" y="1241" type="line"/>
      <point x="344" y="1315"/>
      <point x="535" y="1477"/>
      <point x="578" y="1548" type="curve"/>
    </contour>
  </outline>
</glyph>
<glyph name="breveinvertedcomb" format="2">
  <unicode hex="0311"/>
  <anchor x="0" y="1118" name="_top"/>
  <anchor x="4" y="1579" name="top"/>
  <outline>
    <contour>
      <point x="4" y="1579" type="curve" smooth="yes"/>
      <point x="-223" y="1579"/>
      <point x="-379" y="1440"/>
      <point x="-393" y="1241" type="curve"/>
      <point x="-219" y="1241" type="line"/>
      <point x="-207" y="1348"/>
      <point x="-94" y="1366"/>
      <point x="2" y="1366" type="curve" smooth="yes"/>
      <point x="119" y="1366"/>
      <point x="213" y="1356"/>
      <point x="223" y="1241" type="curve"/>
      <point x="393" y="1241" type="line"/>
      <point x="383" y="1446"/>
      <point x="240" y="1579"/>
    </contour>
  </outline>
</glyph>
<glyph name="gbridgeabovecomb" format="2">
  <unicode hex="0346"/>
  <anchor x="0" y="1118" name="_top"/>
  <anchor x="4" y="1561" name="top"/>
  <outline>
    <contour>
      <point x="-446" y="1561" type="line"/>
      <point x="-446" y="1212" type="line"/>
      <point x="-311" y="1212" type="line"/>
      <point x="-311" y="1438" type="line"/>
      <point x="311" y="1438" type="line"/>
      <point x="311" y="1212" type="line"/>
      <point x="446" y="1212" type="line"/>
      <point x="446" y="1561" type="line"/>
    </contour>
  </outline>
</glyph>
<glyph name="dieresistonos" format="2">
  <advance width="1182"/>
  <unicode hex="0385"/>
  <anchor x="592" y="1118" name="_top"/>
  <outline>
    <contour>
      <point x="827" y="1716" type="line"/>
      <point x="565" y="1716" type="line"/>
      <point x="555" y="1628"/>
      <point x="526" y="1495"/>
      <point x="504" y="1415" type="curve"/>
      <point x="504" y="1389" type="line"/>
      <point x="641" y="1389" type="line"/>
      <point x="717" y="1495"/>
      <point x="786" y="1606"/>
      <point x="827" y="1696" type="curve"/>
    </contour>
    <contour>
      <point x="332" y="1540" type="curve" smooth="yes"/>
      <point x="254" y="1540"/>
      <point x="203" y="1499"/>
      <point x="203" y="1405" type="curve"/>
      <point x="203" y="1315"/>
      <point x="254" y="1272"/>
      <point x="332" y="1272" type="curve" smooth="yes"/>
      <point x="408" y="1272"/>
      <point x="463" y="1315"/>
      <point x="463" y="1405" type="curve" smooth="yes"/>
      <point x="463" y="1499"/>
      <point x="408" y="1540"/>
    </contour>
    <contour>
      <point x="881" y="1540" type="curve" smooth="yes"/>
      <point x="801" y="1540"/>
      <point x="750" y="1499"/>
      <point x="750" y="1405" type="curve"/>
      <point x="750" y="1315"/>
      <point x="801" y="1272"/>
      <point x="881" y="1272" type="curve" smooth="yes"/>
      <point x="956" y="1272"/>
      <point x="1012" y="1315"/>
      <point x="1012" y="1405" type="curve" smooth="yes"/>
      <point x="1012" y="1499"/>
      <point x="956" y="1540"/>
    </contour>
  </outline>
</glyph>
<glyph name="Gamma" format="2">
  <advance width="1149"/>
  <unicode hex="0393"/>
  <anchor x="575" y="0" name="bottom"/>
  <anchor x="668" y="1462" name="top"/>
  <outline>
    <contour>
      <point x="1108" y="1462" type="line"/>
      <point x="184" y="1462" type="line"/>
      <point x="184" y="0" type="line"/>
      <point x="494" y="0" type="line"/>
      <point x="494" y="1206" type="line"/>
      <point x="1108" y="1206" type="line"/>
    </contour>
  </outline>
</glyph>
<glyph name="Theta" format="2">
  <advance width="1630"/>
  <unicode hex="0398"/>
  <anchor x="817" y="0" name="bottom"/>
  <anchor x="815" y="1462" name="top"/>
  <outline>
    <contour>
      <point x="1075" y="870" type="line"/>
      <point x="555" y="870" type="line"/>
      <point x="555" y="616" type="line"/>
      <point x="1075" y="616" type="line"/>
    </contour>
    <component base="O"/>
  </outline>
</glyph>
<glyph name="Pi" format="2">
  <advance width="1526"/>
  <unicode hex="03A0"/>
  <anchor x="764" y="0" name="bottom"/>
  <anchor x="764" y="1462" name="top"/>
  <outline>
    <contour>
      <point x="184" y="0" type="line"/>
      <point x="494" y="0" type="line"/>
      <point x="494" y="1204" type="line"/>
      <point x="1032" y="1204" type="line"/>
      <point x="1032" y="0" type="line"/>
      <point x="1341" y="0" type="line"/>
      <point x="1341" y="1462" type="line"/>
      <point x="184" y="1462" type="line"/>
    </contour>
  </outline>
</glyph>
<glyph name="delta" format="2">
  <advance width="1268"/>
  <unicode hex="03B4"/>
  <anchor x="635" y="0" name="bottom"/>
  <anchor x="635" y="1567" name="top"/>
  <outline>
    <contour>
      <point x="702" y="1567" type="curve" smooth="yes"/>
      <point x="428" y="1567"/>
      <point x="248" y="1458"/>
      <point x="248" y="1260" type="curve" smooth="yes"/>
      <point x="248" y="1108"/>
      <point x="360" y="997"/>
      <point x="485" y="918" type="curve"/>
      <point x="264" y="854"/>
      <point x="92" y="721"/>
      <point x="92" y="438" type="curve" smooth="yes"/>
      <point x="92" y="145"/>
      <point x="317" y="-20"/>
      <point x="629" y="-20" type="curve" smooth="yes"/>
      <point x="958" y="-20"/>
      <point x="1176" y="145"/>
      <point x="1176" y="512" type="curve" smooth="yes"/>
      <point x="1176" y="725"/>
      <point x="1065" y="887"/>
      <point x="819" y="1012" type="curve" smooth="yes"/>
      <point x="635" y="1106"/>
      <point x="543" y="1169"/>
      <point x="543" y="1241" type="curve" smooth="yes"/>
      <point x="543" y="1294"/>
      <point x="582" y="1341"/>
      <point x="690" y="1341" type="curve" smooth="yes"/>
      <point x="807" y="1341"/>
      <point x="920" y="1300"/>
      <point x="1042" y="1241" type="curve"/>
      <point x="1163" y="1456" type="line"/>
      <point x="1018" y="1524"/>
      <point x="889" y="1567"/>
    </contour>
    <contour>
      <point x="664" y="793" type="curve"/>
      <point x="784" y="727"/>
      <point x="864" y="633"/>
      <point x="864" y="492" type="curve" smooth="yes"/>
      <point x="864" y="319"/>
      <point x="778" y="225"/>
      <point x="631" y="225" type="curve" smooth="yes"/>
      <point x="487" y="225"/>
      <point x="406" y="322"/>
      <point x="406" y="451" type="curve" smooth="yes"/>
      <point x="406" y="666"/>
      <point x="553" y="762"/>
    </contour>
  </outline>
</glyph>
<glyph name="theta" format="2">
  <advance width="1266"/>
  <unicode hex="03B8"/>
  <anchor x="633" y="0" name="bottom"/>
  <anchor x="633" y="1567" name="top"/>
  <anchor x="1102" y="1567" name="topright"/>
  <outline>
    <contour>
      <point x="1174" y="774" type="curve" smooth="yes"/>
      <point x="1174" y="1276"/>
      <point x="995" y="1567"/>
      <point x="631" y="1567" type="curve" smooth="yes"/>
      <point x="242" y="1567"/>
      <point x="92" y="1272"/>
      <point x="92" y="774" type="curve" smooth="yes"/>
      <point x="92" y="276"/>
      <point x="266" y="-20"/>
      <point x="631" y="-20" type="curve" smooth="yes"/>
      <point x="1022" y="-20"/>
      <point x="1174" y="276"/>
    </contour>
    <contour>
      <point x="631" y="201" type="curve" smooth="yes"/>
      <point x="473" y="201"/>
      <point x="408" y="358"/>
      <point x="403" y="666" type="curve"/>
      <point x="860" y="666" type="line"/>
      <point x="854" y="354"/>
      <point x="786" y="201"/>
    </contour>
    <contour>
      <point x="633" y="1346" type="curve" smooth="yes"/>
      <point x="784" y="1346"/>
      <point x="850" y="1194"/>
      <point x="860" y="893" type="curve"/>
      <point x="406" y="893" type="line"/>
      <point x="416" y="1194"/>
      <point x="479" y="1346"/>
    </contour>
  </outline>
</glyph>
<glyph name="lambda" format="2">
  <advance width="1260"/>
  <unicode hex="03BB"/>
  <anchor x="631" y="0" name="bottom"/>
  <anchor x="631" y="1569" name="top"/>
  <outline>
    <contour>
      <point x="8" y="0" type="line"/>
      <point x="324" y="0" type="line"/>
      <point x="530" y="485" type="line" smooth="yes"/>
      <point x="557" y="551"/>
      <point x="586" y="643"/>
      <point x="606" y="715" type="curve"/>
      <point x="612" y="715" type="line"/>
      <point x="627" y="655"/>
      <point x="655" y="567"/>
      <point x="686" y="479" type="curve" smooth="yes"/>
      <point x="782" y="207" type="line" smooth="yes"/>
      <point x="831" y="70"/>
      <point x="907" y="-20"/>
      <point x="1073" y="-20" type="curve" smooth="yes"/>
      <point x="1124" y="-20"/>
      <point x="1217" y="-6"/>
      <point x="1249" y="10" type="curve"/>
      <point x="1249" y="246" type="line"/>
      <point x="1225" y="240"/>
      <point x="1200" y="236"/>
      <point x="1180" y="236" type="curve" smooth="yes"/>
      <point x="1122" y="236"/>
      <point x="1073" y="268"/>
      <point x="1012" y="438" type="curve" smooth="yes"/>
      <point x="731" y="1210" type="line" smooth="yes"/>
      <point x="649" y="1438"/>
      <point x="547" y="1569"/>
      <point x="287" y="1569" type="curve" smooth="yes"/>
      <point x="238" y="1569"/>
      <point x="158" y="1561"/>
      <point x="121" y="1552" type="curve"/>
      <point x="121" y="1300" type="line"/>
      <point x="147" y="1307"/>
      <point x="186" y="1313"/>
      <point x="223" y="1313" type="curve" smooth="yes"/>
      <point x="332" y="1313"/>
      <point x="389" y="1290"/>
      <point x="446" y="1149" type="curve" smooth="yes"/>
      <point x="481" y="1057" type="line"/>
    </contour>
  </outline>
</glyph>
<glyph name="sigma" format="2">
  <advance width="1337"/>
  <unicode hex="03C3"/>
  <anchor x="670" y="0" name="bottom"/>
  <anchor x="670" y="1118" name="top"/>
  <outline>
    <contour>
      <point x="1192" y="475" type="curve" smooth="yes"/>
      <point x="1192" y="662"/>
      <point x="1110" y="793"/>
      <point x="1012" y="897" type="curve"/>
      <point x="1296" y="897" type="line"/>
      <point x="1296" y="1120" type="line"/>
      <point x="723" y="1120" type="line" smooth="yes"/>
      <point x="332" y="1120"/>
      <point x="92" y="956"/>
      <point x="92" y="545" type="curve" smooth="yes"/>
      <point x="92" y="174"/>
      <point x="311" y="-20"/>
      <point x="639" y="-20" type="curve" smooth="yes"/>
      <point x="999" y="-20"/>
      <point x="1192" y="195"/>
    </contour>
    <contour>
      <point x="406" y="545" type="curve" smooth="yes"/>
      <point x="406" y="809"/>
      <point x="496" y="897"/>
      <point x="702" y="897" type="curve" smooth="yes"/>
      <point x="752" y="897" type="line"/>
      <point x="834" y="797"/>
      <point x="879" y="686"/>
      <point x="879" y="522" type="curve" smooth="yes"/>
      <point x="879" y="344"/>
      <point x="809" y="225"/>
      <point x="643" y="225" type="curve" smooth="yes"/>
      <point x="475" y="225"/>
      <point x="406" y="352"/>
    </contour>
  </outline>
</glyph>
<glyph name="psi" format="2">
  <advance width="1714"/>
  <unicode hex="03C8"/>
  <anchor x="858" y="-492" name="bottom"/>
  <anchor x="858" y="1554" name="top"/>
  <outline>
    <contour>
      <point x="1008" y="1554" type="line"/>
      <point x="725" y="1554" type="line"/>
      <point x="725" y="215" type="line"/>
      <point x="508" y="231"/>
      <point x="434" y="315"/>
      <point x="434" y="547" type="curve" smooth="yes"/>
      <point x="434" y="1118" type="line"/>
      <point x="143" y="1118" type="line"/>
      <point x="143" y="555" type="line" smooth="yes"/>
      <point x="143" y="145"/>
      <point x="385" y="-6"/>
      <point x="725" y="-18" type="curve"/>
      <point x="725" y="-492" type="line"/>
      <point x="1008" y="-492" type="line"/>
      <point x="1008" y="-18" type="line"/>
      <point x="1341" y="0"/>
      <point x="1606" y="156"/>
      <point x="1606" y="575" type="curve" smooth="yes"/>
      <point x="1606" y="756"/>
      <point x="1581" y="926"/>
      <point x="1528" y="1118" type="curve"/>
      <point x="1245" y="1118" type="line"/>
      <point x="1292" y="928"/>
      <point x="1325" y="758"/>
      <point x="1325" y="578" type="curve" smooth="yes"/>
      <point x="1325" y="322"/>
      <point x="1225" y="238"/>
      <point x="1008" y="217" type="curve"/>
    </contour>
  </outline>
</glyph>
<glyph name="afii10024" format="2">
  <advance width="1931"/>
  <unicode hex="0416"/>
  <anchor x="967" y="0" name="bottom"/>
  <anchor x="967" y="1462" name="top"/>
  <outline>
    <contour>
      <point x="520" y="760" type="line"/>
      <point x="0" y="0" type="line"/>
      <point x="332" y="0" type="line"/>
      <point x="821" y="741" type="line"/>
      <point x="821" y="0" type="line"/>
      <point x="1110" y="0" type="line"/>
      <point x="1110" y="741" type="line"/>
      <point x="1599" y="0" type="line"/>
      <point x="1931" y="0" type="line"/>
      <point x="1411" y="760" type="line"/>
      <point x="1903" y="1462" type="line"/>
      <point x="1583" y="1462" type="line"/>
      <point x="1110" y="754" type="line"/>
      <point x="1110" y="1462" type="line"/>
      <point x="821" y="1462" type="line"/>
      <point x="821" y="754" type="line"/>
      <point x="348" y="1462" type="line"/>
      <point x="29" y="1462" type="line"/>
    </contour>
  </outline>
</glyph>
<glyph name="afii10025" format="2">
  <advance width="1327"/>
  <unicode hex="0417"/>
  <anchor x="664" y="0" name="bottom"/>
  <anchor x="664" y="1462" name="top"/>
  <outline>
    <contour>
      <point x="1194" y="1120" type="curve" smooth="yes"/>
      <point x="1194" y="1331"/>
      <point x="999" y="1483"/>
      <point x="670" y="1483" type="curve" smooth="yes"/>
      <point x="418" y="1483"/>
      <point x="244" y="1421"/>
      <point x="94" y="1323" type="curve"/>
      <point x="229" y="1116" type="line"/>
      <point x="344" y="1188"/>
      <point x="475" y="1235"/>
      <point x="627" y="1235" type="curve" smooth="yes"/>
      <point x="803" y="1235"/>
      <point x="893" y="1171"/>
      <point x="893" y="1071" type="curve" smooth="yes"/>
      <point x="893" y="952"/>
      <point x="797" y="881"/>
      <point x="449" y="881" type="curve" smooth="yes"/>
      <point x="326" y="881" type="line"/>
      <point x="326" y="639" type="line"/>
      <point x="463" y="639" type="line" smooth="yes"/>
      <point x="750" y="639"/>
      <point x="932" y="578"/>
      <point x="932" y="438" type="curve" smooth="yes"/>
      <point x="932" y="301"/>
      <point x="821" y="223"/>
      <point x="563" y="223" type="curve" smooth="yes"/>
      <point x="424" y="223"/>
      <point x="233" y="258"/>
      <point x="106" y="319" type="curve"/>
      <point x="106" y="59" type="line"/>
      <point x="231" y="8"/>
      <point x="401" y="-20"/>
      <point x="623" y="-20" type="curve" smooth="yes"/>
      <point x="1026" y="-20"/>
      <point x="1239" y="160"/>
      <point x="1239" y="416" type="curve" smooth="yes"/>
      <point x="1239" y="610"/>
      <point x="1090" y="737"/>
      <point x="823" y="764" type="curve"/>
      <point x="823" y="770" type="line"/>
      <point x="1038" y="801"/>
      <point x="1194" y="924"/>
    </contour>
  </outline>
</glyph>
<glyph name="afii10069" format="2">
  <advance width="1360"/>
  <unicode hex="0434"/>
  <anchor x="680" y="-401" name="bottom"/>
  <anchor x="680" y="1118" name="top"/>
  <outline>
    <contour>
      <point x="1165" y="1118" type="line"/>
      <point x="375" y="1118" type="line"/>
      <point x="346" y="784"/>
      <point x="270" y="449"/>
      <point x="123" y="223" type="curve"/>
      <point x="29" y="223" type="line"/>
      <point x="29" y="-401" type="line"/>
      <point x="303" y="-401" type="line"/>
      <point x="303" y="0" type="line"/>
      <point x="1055" y="0" type="line"/>
      <point x="1055" y="-401" type="line"/>
      <point x="1329" y="-401" type="line"/>
      <point x="1329" y="223" type="line"/>
      <point x="1165" y="223" type="line"/>
    </contour>
    <contour>
      <point x="860" y="889" type="line"/>
      <point x="860" y="223" type="line"/>
      <point x="442" y="223" type="line"/>
      <point x="545" y="418"/>
      <point x="598" y="641"/>
      <point x="631" y="889" type="curve"/>
    </contour>
  </outline>
</glyph>
<glyph name="afii10088" format="2">
  <advance width="1409"/>
  <unicode hex="0446"/>
  <anchor x="688" y="-401" name="bottom"/>
  <anchor x="688" y="1118" name="top"/>
  <outline>
    <contour>
      <point x="1380" y="-401" type="line"/>
      <point x="1380" y="223" type="line"/>
      <point x="1217" y="223" type="line"/>
      <point x="1217" y="1118" type="line"/>
      <point x="911" y="1118" type="line"/>
      <point x="911" y="229" type="line"/>
      <point x="465" y="229" type="line"/>
      <point x="465" y="1118" type="line"/>
      <point x="160" y="1118" type="line"/>
      <point x="160" y="0" type="line"/>
      <point x="1106" y="0" type="line"/>
      <point x="1106" y="-401" type="line"/>
    </contour>
  </outline>
</glyph>
<glyph name="uni0464" format="2">
  <advance width="1946"/>
  <unicode hex="0464"/>
  <anchor x="1321" y="0" name="bottom"/>
  <anchor x="1321" y="1462" name="top"/>
  <outline>
    <contour>
      <point x="1395" y="-20" type="curve" smooth="yes"/>
      <point x="1559" y="-20"/>
      <point x="1681" y="2"/>
      <point x="1819" y="55" type="curve"/>
      <point x="1819" y="315" type="line"/>
      <point x="1667" y="266"/>
      <point x="1544" y="238"/>
      <point x="1415" y="238" type="curve" smooth="yes"/>
      <point x="1174" y="238"/>
      <point x="1040" y="406"/>
      <point x="1024" y="631" type="curve"/>
      <point x="1638" y="631" type="line"/>
      <point x="1638" y="889" type="line"/>
      <point x="1026" y="889" type="line"/>
      <point x="1053" y="1104"/>
      <point x="1198" y="1225"/>
      <point x="1417" y="1225" type="curve" smooth="yes"/>
      <point x="1532" y="1225"/>
      <point x="1655" y="1180"/>
      <point x="1774" y="1128" type="curve"/>
      <point x="1874" y="1380" type="line"/>
      <point x="1739" y="1444"/>
      <point x="1581" y="1483"/>
      <point x="1425" y="1483" type="curve" smooth="yes"/>
      <point x="1016" y="1483"/>
      <point x="766" y="1245"/>
      <point x="709" y="889" type="curve"/>
      <point x="494" y="889" type="line"/>
      <point x="494" y="1462" type="line"/>
      <point x="184" y="1462" type="line"/>
      <point x="184" y="0" type="line"/>
      <point x="494" y="0" type="line"/>
      <point x="494" y="631" type="line"/>
      <point x="700" y="631" type="line"/>
      <point x="731" y="236"/>
      <point x="950" y="-20"/>
    </contour>
  </outline>
</glyph>
<glyph name="uni0466" format="2">
  <advance width="1495"/>
  <unicode hex="0466"/>
  <anchor x="748" y="0" name="bottom"/>
  <anchor x="748" y="1462" name="top"/>
  <outline>
    <contour>
      <point x="936" y="1468" type="line"/>
      <point x="557" y="1468" type="line"/>
      <point x="0" y="0" type="line"/>
      <point x="303" y="0" type="line"/>
      <point x="510" y="631" type="line"/>
      <point x="612" y="631" type="line"/>
      <point x="612" y="0" type="line"/>
      <point x="885" y="0" type="line"/>
      <point x="885" y="631" type="line"/>
      <point x="985" y="631" type="line"/>
      <point x="1194" y="0" type="line"/>
      <point x="1495" y="0" type="line"/>
    </contour>
    <contour>
      <point x="748" y="1282" type="curve"/>
      <point x="764" y="1223"/>
      <point x="838" y="1034"/>
      <point x="866" y="958" type="curve" smooth="yes"/>
      <point x="901" y="868" type="line"/>
      <point x="588" y="868" type="line"/>
      <point x="625" y="958" type="line"/>
      <point x="653" y="1030"/>
      <point x="737" y="1227"/>
    </contour>
  </outline>
</glyph>
<glyph name="uni047A" format="2">
  <advance width="1712"/>
  <unicode hex="047A"/>
  <outline>
    <contour>
      <point x="858" y="-125" type="curve" smooth="yes"/>
      <point x="932" y="-125"/>
      <point x="983" y="-86"/>
      <point x="1006" y="-10" type="curve"/>
      <point x="1407" y="45"/>
      <point x="1593" y="328"/>
      <point x="1593" y="733" type="curve" smooth="yes"/>
      <point x="1593" y="1141"/>
      <point x="1405" y="1423"/>
      <point x="1001" y="1475" type="curve"/>
      <point x="977" y="1563"/>
      <point x="928" y="1585"/>
      <point x="858" y="1585" type="curve" smooth="yes"/>
      <point x="784" y="1585"/>
      <point x="737" y="1563"/>
      <point x="713" y="1475" type="curve"/>
      <point x="305" y="1423"/>
      <point x="119" y="1143"/>
      <point x="119" y="735" type="curve" smooth="yes"/>
      <point x="119" y="326"/>
      <point x="305" y="41"/>
      <point x="711" y="-10" type="curve"/>
      <point x="731" y="-88"/>
      <point x="780" y="-125"/>
    </contour>
    <contour>
      <point x="719" y="256" type="curve"/>
      <point x="526" y="307"/>
      <point x="438" y="479"/>
      <point x="438" y="733" type="curve" smooth="yes"/>
      <point x="438" y="985"/>
      <point x="524" y="1155"/>
      <point x="715" y="1208" type="curve"/>
      <point x="743" y="1157"/>
      <point x="793" y="1133"/>
      <point x="858" y="1133" type="curve" smooth="yes"/>
      <point x="922" y="1133"/>
      <point x="973" y="1157"/>
      <point x="999" y="1208" type="curve"/>
      <point x="1190" y="1155"/>
      <point x="1274" y="985"/>
      <point x="1274" y="733" type="curve" smooth="yes"/>
      <point x="1274" y="479"/>
      <point x="1188" y="307"/>
      <point x="995" y="256" type="curve"/>
      <point x="965" y="311"/>
      <point x="918" y="328"/>
      <point x="858" y="328" type="curve" smooth="yes"/>
      <point x="795" y="328"/>
      <point x="748" y="311"/>
    </contour>
  </outline>
</glyph>
<glyph name="uni047B" format="2">
  <advance width="1391"/>
  <unicode hex="047B"/>
  <outline>
    <contour>
      <point x="1298" y="561" type="curve" smooth="yes"/>
      <point x="1298" y="887"/>
      <point x="1104" y="1079"/>
      <point x="821" y="1122" type="curve"/>
      <point x="805" y="1184"/>
      <point x="754" y="1204"/>
      <point x="694" y="1204" type="curve" smooth="yes"/>
      <point x="629" y="1204"/>
      <point x="580" y="1184"/>
      <point x="565" y="1122" type="curve"/>
      <point x="266" y="1079"/>
      <point x="92" y="885"/>
      <point x="92" y="561" type="curve" smooth="yes"/>
      <point x="92" y="238"/>
      <point x="281" y="49"/>
      <point x="557" y="2" type="curve"/>
      <point x="569" y="-70"/>
      <point x="618" y="-111"/>
      <point x="694" y="-111" type="curve" smooth="yes"/>
      <point x="766" y="-111"/>
      <point x="817" y="-70"/>
      <point x="829" y="0" type="curve"/>
      <point x="1122" y="47"/>
      <point x="1298" y="238"/>
    </contour>
    <contour>
      <point x="987" y="561" type="curve" smooth="yes"/>
      <point x="987" y="393"/>
      <point x="936" y="268"/>
      <point x="825" y="227" type="curve"/>
      <point x="799" y="279"/>
      <point x="768" y="311"/>
      <point x="694" y="311" type="curve" smooth="yes"/>
      <point x="618" y="311"/>
      <point x="586" y="281"/>
      <point x="561" y="229" type="curve"/>
      <point x="451" y="272"/>
      <point x="403" y="395"/>
      <point x="403" y="561" type="curve" smooth="yes"/>
      <point x="403" y="721"/>
      <point x="449" y="840"/>
      <point x="553" y="885" type="curve"/>
      <point x="575" y="823"/>
      <point x="610" y="782"/>
      <point x="694" y="782" type="curve" smooth="yes"/>
      <point x="776" y="782"/>
      <point x="811" y="823"/>
      <point x="834" y="885" type="curve"/>
      <point x="940" y="842"/>
      <point x="987" y="723"/>
    </contour>
  </outline>
</glyph>
<glyph name="dasiapneumatacomb-cy" format="2">
  <unicode hex="0485"/>
  <anchor x="-565" y="1118" name="_top"/>
  <anchor x="-561" y="1624" name="top"/>
  <outline>
    <contour>
      <point x="-721" y="1462" type="curve" smooth="yes"/>
      <point x="-721" y="1327"/>
      <point x="-578" y="1227"/>
      <point x="-412" y="1219" type="curve"/>
      <point x="-412" y="1305" type="line"/>
      <point x="-492" y="1325"/>
      <point x="-528" y="1374"/>
      <point x="-528" y="1407" type="curve" smooth="yes"/>
      <point x="-528" y="1458"/>
      <point x="-410" y="1440"/>
      <point x="-410" y="1513" type="curve" smooth="yes"/>
      <point x="-410" y="1583"/>
      <point x="-465" y="1624"/>
      <point x="-559" y="1624" type="curve" smooth="yes"/>
      <point x="-662" y="1624"/>
      <point x="-721" y="1559"/>
    </contour>
  </outline>
</glyph>
<glyph name="psilipneumatacomb-cy" format="2">
  <unicode hex="0486"/>
  <anchor x="-567" y="1118" name="_top"/>
  <anchor x="-563" y="1624" name="top"/>
  <outline>
    <contour>
      <point x="-412" y="1462" type="curve" smooth="yes"/>
      <point x="-412" y="1559"/>
      <point x="-471" y="1624"/>
      <point x="-573" y="1624" type="curve" smooth="yes"/>
      <point x="-668" y="1624"/>
      <point x="-723" y="1583"/>
      <point x="-723" y="1513" type="curve" smooth="yes"/>
      <point x="-723" y="1440"/>
      <point x="-604" y="1458"/>
      <point x="-604" y="1407" type="curve" smooth="yes"/>
      <point x="-604" y="1374"/>
      <point x="-641" y="1325"/>
      <point x="-721" y="1305" type="curve"/>
      <point x="-721" y="1219" type="line"/>
      <point x="-555" y="1227"/>
      <point x="-412" y="1327"/>
    </contour>
  </outline>
</glyph>
<glyph name="uni048C" format="2">
  <advance width="1307"/>
  <unicode hex="048C"/>
  <anchor x="631" y="0" name="bottom"/>
  <anchor x="631" y="1462" name="top"/>
  <outline>
    <contour>
      <point x="494" y="1462" type="line"/>
      <point x="184" y="1462" type="line"/>
      <point x="184" y="1311" type="line"/>
      <point x="47" y="1311" type="line"/>
      <point x="47" y="1057" type="line"/>
      <point x="184" y="1057" type="line"/>
      <point x="184" y="0" type="line"/>
      <point x="610" y="0" type="line"/>
      <point x="1030" y="0"/>
      <point x="1214" y="168"/>
      <point x="1214" y="457" type="curve" smooth="yes"/>
      <point x="1214" y="715"/>
      <point x="1028" y="901"/>
      <point x="616" y="901" type="curve"/>
      <point x="494" y="901" type="line"/>
      <point x="494" y="1057" type="line"/>
      <point x="793" y="1057" type="line"/>
      <point x="793" y="1311" type="line"/>
      <point x="494" y="1311" type="line"/>
    </contour>
    <contour>
      <point x="573" y="647" type="line"/>
      <point x="776" y="647"/>
      <point x="901" y="612"/>
      <point x="901" y="457" type="curve" smooth="yes"/>
      <point x="901" y="307"/>
      <point x="786" y="254"/>
      <point x="598" y="254" type="curve"/>
      <point x="494" y="254" type="line"/>
      <point x="494" y="647" type="line"/>
    </contour>
  </outline>
</glyph>
<glyph name="uni048D" format="2">
  <advance width="1257"/>
  <unicode hex="048D"/>
  <anchor x="629" y="0" name="bottom"/>
  <anchor x="629" y="1556" name="top"/>
  <outline>
    <contour>
      <point x="465" y="1556" type="line"/>
      <point x="160" y="1556" type="line"/>
      <point x="160" y="1333" type="line"/>
      <point x="4" y="1333" type="line"/>
      <point x="4" y="1135" type="line"/>
      <point x="160" y="1135" type="line"/>
      <point x="160" y="0" type="line"/>
      <point x="692" y="0" type="line"/>
      <point x="1044" y="0"/>
      <point x="1186" y="139"/>
      <point x="1186" y="356" type="curve" smooth="yes"/>
      <point x="1186" y="578"/>
      <point x="1024" y="686"/>
      <point x="680" y="686" type="curve"/>
      <point x="465" y="686" type="line"/>
      <point x="465" y="1135" type="line"/>
      <point x="842" y="1135" type="line"/>
      <point x="842" y="1333" type="line"/>
      <point x="465" y="1333" type="line"/>
    </contour>
    <contour>
      <point x="674" y="475" type="line"/>
      <point x="811" y="475"/>
      <point x="881" y="438"/>
      <point x="881" y="352" type="curve" smooth="yes"/>
      <point x="881" y="250"/>
      <point x="797" y="211"/>
      <point x="678" y="211" type="curve"/>
      <point x="465" y="211" type="line"/>
      <point x="465" y="475" type="line"/>
    </contour>
  </outline>
</glyph>
<glyph name="uni0493" format="2">
  <advance width="1006"/>
  <unicode hex="0493"/>
  <anchor x="504" y="0" name="bottom"/>
  <anchor x="504" y="1118" name="top"/>
  <outline>
    <contour>
      <point x="958" y="1118" type="line"/>
      <point x="141" y="1118" type="line"/>
      <point x="141" y="653" type="line"/>
      <point x="4" y="653" type="line"/>
      <point x="4" y="418" type="line"/>
      <point x="141" y="418" type="line"/>
      <point x="141" y="0" type="line"/>
      <point x="446" y="0" type="line"/>
      <point x="446" y="418" type="line"/>
      <point x="778" y="418" type="line"/>
      <point x="778" y="653" type="line"/>
      <point x="446" y="653" type="line"/>
      <point x="446" y="870" type="line"/>
      <point x="958" y="870" type="line"/>
    </contour>
  </outline>
</glyph>
<glyph name="uni049B" format="2">
  <advance width="1362"/>
  <unicode hex="049B"/>
  <anchor x="682" y="-401" name="bottom"/>
  <anchor x="682" y="1118" name="top"/>
  <outline>
    <contour>
      <point x="1059" y="-401" type="line"/>
      <point x="1333" y="-401" type="line"/>
      <point x="1333" y="223" type="line"/>
      <point x="1083" y="223" type="line"/>
      <point x="786" y="582" type="line"/>
      <point x="1229" y="1118" type="line"/>
      <point x="893" y="1118" type="line"/>
      <point x="465" y="575" type="line"/>
      <point x="465" y="1118" type="line"/>
      <point x="160" y="1118" type="line"/>
      <point x="160" y="0" type="line"/>
      <point x="465" y="0" type="line"/>
      <point x="465" y="567" type="line"/>
      <point x="922" y="0" type="line"/>
      <point x="1059" y="0" type="line"/>
    </contour>
  </outline>
</glyph>
<glyph name="uni04AD" format="2">
  <advance width="1126"/>
  <unicode hex="04AD"/>
  <anchor x="563" y="-401" name="bottom"/>
  <anchor x="563" y="1118" name="top"/>
  <outline>
    <contour>
      <point x="1085" y="1118" type="line"/>
      <point x="47" y="1118" type="line"/>
      <point x="47" y="889" type="line"/>
      <point x="414" y="889" type="line"/>
      <point x="414" y="0" type="line"/>
      <point x="719" y="0" type="line"/>
      <point x="719" y="-401" type="line"/>
      <point x="993" y="-401" type="line"/>
      <point x="993" y="223" type="line"/>
      <point x="719" y="223" type="line"/>
      <point x="719" y="889" type="line"/>
      <point x="1085" y="889" type="line"/>
    </contour>
  </outline>
</glyph>
<glyph name="uni04CE" format="2">
  <advance width="1896"/>
  <unicode hex="04CE"/>
  <anchor x="948" y="-401" name="bottom"/>
  <anchor x="948" y="1118" name="top"/>
  <outline>
    <contour>
      <point x="1868" y="223" type="line"/>
      <point x="1569" y="223" type="line"/>
      <point x="1569" y="1118" type="line"/>
      <point x="1153" y="1118" type="line"/>
      <point x="870" y="360" type="line"/>
      <point x="592" y="1118" type="line"/>
      <point x="160" y="1118" type="line"/>
      <point x="160" y="0" type="line"/>
      <point x="444" y="0" type="line"/>
      <point x="444" y="541" type="line" smooth="yes"/>
      <point x="444" y="664"/>
      <point x="440" y="764"/>
      <point x="430" y="854" type="curve"/>
      <point x="438" y="854" type="line"/>
      <point x="752" y="0" type="line"/>
      <point x="981" y="0" type="line"/>
      <point x="1290" y="852" type="line"/>
      <point x="1296" y="852" type="line"/>
      <point x="1288" y="764"/>
      <point x="1284" y="657"/>
      <point x="1284" y="549" type="curve" smooth="yes"/>
      <point x="1284" y="0" type="line"/>
      <point x="1569" y="0" type="line"/>
      <point x="1432" y="-401" type="line"/>
      <point x="1722" y="-401" type="line"/>
    </contour>
  </outline>
</glyph>
<glyph name="uni04E1" format="2">
  <advance width="1190"/>
  <unicode hex="04E1"/>
  <anchor x="596" y="-492" name="bottom"/>
  <anchor x="596" y="1118" name="top"/>
  <outline>
    <contour>
      <point x="1065" y="1118" type="line"/>
      <point x="98" y="1118" type="line"/>
      <point x="98" y="885" type="line"/>
      <point x="688" y="885" type="line"/>
      <point x="283" y="502" type="line"/>
      <point x="283" y="285" type="line"/>
      <point x="401" y="285" type="line" smooth="yes"/>
      <point x="713" y="285"/>
      <point x="801" y="166"/>
      <point x="801" y="16" type="curve" smooth="yes"/>
      <point x="801" y="-121"/>
      <point x="725" y="-246"/>
      <point x="477" y="-246" type="curve" smooth="yes"/>
      <point x="352" y="-246"/>
      <point x="188" y="-213"/>
      <point x="57" y="-150" type="curve"/>
      <point x="57" y="-412" type="line"/>
      <point x="184" y="-465"/>
      <point x="334" y="-492"/>
      <point x="500" y="-492" type="curve" smooth="yes"/>
      <point x="915" y="-492"/>
      <point x="1110" y="-279"/>
      <point x="1110" y="2" type="curve" smooth="yes"/>
      <point x="1110" y="258"/>
      <point x="983" y="465"/>
      <point x="623" y="506" type="curve"/>
      <point x="1065" y="920" type="line"/>
    </contour>
  </outline>
</glyph>
<glyph name="uni0506" format="2">
  <advance width="1436"/>
  <unicode hex="0506"/>
  <anchor x="719" y="-426" name="bottom"/>
  <anchor x="719" y="1462" name="top"/>
  <outline>
    <contour>
      <point x="532" y="1483" type="curve" smooth="yes"/>
      <point x="309" y="1483"/>
      <point x="145" y="1421"/>
      <point x="25" y="1339" type="curve"/>
      <point x="180" y="1133" type="line"/>
      <point x="254" y="1178"/>
      <point x="365" y="1233"/>
      <point x="512" y="1233" type="curve" smooth="yes"/>
      <point x="676" y="1233"/>
      <point x="750" y="1171"/>
      <point x="750" y="1067" type="curve" smooth="yes"/>
      <point x="750" y="952"/>
      <point x="666" y="858"/>
      <point x="377" y="858" type="curve" smooth="yes"/>
      <point x="195" y="858" type="line"/>
      <point x="195" y="641" type="line"/>
      <point x="377" y="641" type="line" smooth="yes"/>
      <point x="680" y="641"/>
      <point x="786" y="547"/>
      <point x="786" y="426" type="curve" smooth="yes"/>
      <point x="786" y="0" type="line"/>
      <point x="1096" y="0" type="line"/>
      <point x="1096" y="-426" type="line"/>
      <point x="1395" y="-426" type="line"/>
      <point x="1395" y="266" type="line"/>
      <point x="1096" y="266" type="line"/>
      <point x="1096" y="426" type="line" smooth="yes"/>
      <point x="1096" y="618"/>
      <point x="971" y="735"/>
      <point x="737" y="764" type="curve"/>
      <point x="737" y="770" type="line"/>
      <point x="915" y="813"/>
      <point x="1053" y="932"/>
      <point x="1053" y="1135" type="curve" smooth="yes"/>
      <point x="1053" y="1356"/>
      <point x="846" y="1483"/>
    </contour>
  </outline>
</glyph>
<glyph name="uni0507" format="2">
  <advance width="1354"/>
  <unicode hex="0507"/>
  <anchor x="678" y="-401" name="bottom"/>
  <anchor x="678" y="1118" name="top"/>
  <outline>
    <contour>
      <point x="559" y="1139" type="curve" smooth="yes"/>
      <point x="350" y="1139"/>
      <point x="207" y="1104"/>
      <point x="78" y="1055" type="curve"/>
      <point x="168" y="842" type="line"/>
      <point x="279" y="887"/>
      <point x="414" y="913"/>
      <point x="520" y="913" type="curve" smooth="yes"/>
      <point x="682" y="913"/>
      <point x="748" y="877"/>
      <point x="748" y="805" type="curve" smooth="yes"/>
      <point x="748" y="715"/>
      <point x="635" y="688"/>
      <point x="434" y="688" type="curve" smooth="yes"/>
      <point x="276" y="688" type="line"/>
      <point x="276" y="477" type="line"/>
      <point x="440" y="477" type="line" smooth="yes"/>
      <point x="653" y="477"/>
      <point x="754" y="430"/>
      <point x="754" y="326" type="curve" smooth="yes"/>
      <point x="754" y="0" type="line"/>
      <point x="1051" y="0" type="line"/>
      <point x="1051" y="-401" type="line"/>
      <point x="1325" y="-401" type="line"/>
      <point x="1325" y="223" type="line"/>
      <point x="1051" y="223" type="line"/>
      <point x="1051" y="326" type="line" smooth="yes"/>
      <point x="1051" y="492"/>
      <point x="944" y="551"/>
      <point x="811" y="586" type="curve"/>
      <point x="811" y="596" type="line"/>
      <point x="938" y="631"/>
      <point x="1020" y="707"/>
      <point x="1020" y="842" type="curve" smooth="yes"/>
      <point x="1020" y="1047"/>
      <point x="801" y="1139"/>
    </contour>
  </outline>
</glyph>
<glyph name="uni0508" format="2">
  <advance width="2116"/>
  <unicode hex="0508"/>
  <anchor x="1059" y="0" name="bottom"/>
  <anchor x="1059" y="1462" name="top"/>
  <outline>
    <contour>
      <point x="1300" y="1462" type="line"/>
      <point x="418" y="1462" type="line"/>
      <point x="367" y="1040"/>
      <point x="305" y="664"/>
      <point x="281" y="532" type="curve" smooth="yes"/>
      <point x="238" y="303"/>
      <point x="205" y="236"/>
      <point x="125" y="236" type="curve" smooth="yes"/>
      <point x="84" y="236"/>
      <point x="51" y="244"/>
      <point x="16" y="256" type="curve"/>
      <point x="16" y="2" type="line"/>
      <point x="59" y="-12"/>
      <point x="109" y="-20"/>
      <point x="164" y="-20" type="curve" smooth="yes"/>
      <point x="410" y="-20"/>
      <point x="502" y="125"/>
      <point x="555" y="381" type="curve" smooth="yes"/>
      <point x="598" y="586"/>
      <point x="643" y="952"/>
      <point x="674" y="1204" type="curve"/>
      <point x="991" y="1204" type="line"/>
      <point x="991" y="375" type="line" smooth="yes"/>
      <point x="991" y="90"/>
      <point x="1188" y="-20"/>
      <point x="1468" y="-20" type="curve" smooth="yes"/>
      <point x="1755" y="-20"/>
      <point x="1942" y="100"/>
      <point x="1942" y="381" type="curve" smooth="yes"/>
      <point x="1942" y="848" type="line"/>
      <point x="1636" y="848" type="line"/>
      <point x="1636" y="451" type="line" smooth="yes"/>
      <point x="1636" y="301"/>
      <point x="1587" y="236"/>
      <point x="1468" y="236" type="curve" smooth="yes"/>
      <point x="1352" y="236"/>
      <point x="1303" y="279"/>
      <point x="1300" y="375" type="curve"/>
    </contour>
  </outline>
</glyph>
<glyph name="uni0517" format="2">
  <advance width="1763"/>
  <unicode hex="0517"/>
  <anchor x="883" y="-492" name="bottom"/>
  <anchor x="883" y="1118" name="top"/>
  <outline>
    <contour>
      <point x="160" y="-492" type="line"/>
      <point x="465" y="-492" type="line"/>
      <point x="465" y="-39" type="line" smooth="yes"/>
      <point x="465" y="-8"/>
      <point x="455" y="72"/>
      <point x="449" y="123" type="curve"/>
      <point x="465" y="123" type="line"/>
      <point x="524" y="49"/>
      <point x="612" y="-20"/>
      <point x="774" y="-20" type="curve" smooth="yes"/>
      <point x="977" y="-20"/>
      <point x="1133" y="111"/>
      <point x="1184" y="360" type="curve"/>
      <point x="1407" y="0" type="line"/>
      <point x="1753" y="0" type="line"/>
      <point x="1372" y="571" type="line"/>
      <point x="1737" y="1118" type="line"/>
      <point x="1391" y="1118" type="line"/>
      <point x="1182" y="778" type="line"/>
      <point x="1126" y="1016"/>
      <point x="979" y="1139"/>
      <point x="782" y="1139" type="curve" smooth="yes"/>
      <point x="621" y="1139"/>
      <point x="524" y="1063"/>
      <point x="465" y="973" type="curve"/>
      <point x="451" y="973" type="line"/>
      <point x="408" y="1118" type="line"/>
      <point x="160" y="1118" type="line"/>
    </contour>
    <contour>
      <point x="688" y="227" type="curve" smooth="yes"/>
      <point x="518" y="227"/>
      <point x="465" y="346"/>
      <point x="465" y="563" type="curve" smooth="yes"/>
      <point x="465" y="596" type="line" smooth="yes"/>
      <point x="469" y="797"/>
      <point x="524" y="895"/>
      <point x="684" y="895" type="curve" smooth="yes"/>
      <point x="827" y="895"/>
      <point x="893" y="784"/>
      <point x="893" y="565" type="curve" smooth="yes"/>
      <point x="893" y="346"/>
      <point x="827" y="227"/>
    </contour>
  </outline>
</glyph>
<glyph name="uni051E" format="2">
  <advance width="1376"/>
  <unicode hex="051E"/>
  <anchor x="688" y="0" name="bottom"/>
  <anchor x="688" y="1462" name="top"/>
  <outline>
    <contour>
      <point x="586" y="1346" type="line"/>
      <point x="1171" y="733" type="line"/>
      <point x="1321" y="870" type="line"/>
      <point x="733" y="1483" type="line"/>
    </contour>
    <component base="afii10028"/>
  </outline>
</glyph>
<glyph name="uni0520" format="2">
  <advance width="2284"/>
  <unicode hex="0520"/>
  <anchor x="1143" y="-512" name="bottom"/>
  <anchor x="1143" y="1462" name="top"/>
  <outline>
    <contour>
      <point x="1638" y="-512" type="curve" smooth="yes"/>
      <point x="1923" y="-512"/>
      <point x="2181" y="-291"/>
      <point x="2181" y="141" type="curve" smooth="yes"/>
      <point x="2181" y="655"/>
      <point x="1823" y="819"/>
      <point x="1530" y="819" type="curve" smooth="yes"/>
      <point x="1458" y="819"/>
      <point x="1368" y="817"/>
      <point x="1274" y="807" type="curve"/>
      <point x="1274" y="1462" type="line"/>
      <point x="418" y="1462" type="line"/>
      <point x="367" y="1040"/>
      <point x="305" y="664"/>
      <point x="281" y="532" type="curve" smooth="yes"/>
      <point x="238" y="303"/>
      <point x="205" y="236"/>
      <point x="125" y="236" type="curve" smooth="yes"/>
      <point x="84" y="236"/>
      <point x="51" y="244"/>
      <point x="16" y="256" type="curve"/>
      <point x="16" y="2" type="line"/>
      <point x="59" y="-12"/>
      <point x="109" y="-20"/>
      <point x="164" y="-20" type="curve" smooth="yes"/>
      <point x="410" y="-20"/>
      <point x="502" y="125"/>
      <point x="555" y="381" type="curve" smooth="yes"/>
      <point x="598" y="586"/>
      <point x="643" y="952"/>
      <point x="674" y="1204" type="curve"/>
      <point x="965" y="1204" type="line"/>
      <point x="965" y="0" type="line"/>
      <point x="1274" y="0" type="line"/>
      <point x="1274" y="524" type="line"/>
      <point x="1319" y="532"/>
      <point x="1364" y="537"/>
      <point x="1401" y="537" type="curve" smooth="yes"/>
      <point x="1597" y="537"/>
      <point x="1878" y="496"/>
      <point x="1878" y="141" type="curve" smooth="yes"/>
      <point x="1878" y="-80"/>
      <point x="1774" y="-240"/>
      <point x="1577" y="-240" type="curve" smooth="yes"/>
      <point x="1481" y="-240"/>
      <point x="1399" y="-223"/>
      <point x="1315" y="-193" type="curve"/>
      <point x="1315" y="-465" type="line"/>
      <point x="1409" y="-498"/>
      <point x="1491" y="-512"/>
    </contour>
  </outline>
</glyph>
<glyph name="uni1C81" format="2">
  <advance width="1360"/>
  <unicode hex="1C81"/>
  <anchor x="680" y="-492" name="bottom"/>
  <anchor x="680" y="1118" name="top"/>
  <outline>
    <contour>
      <point x="1165" y="1118" type="line"/>
      <point x="375" y="1118" type="line"/>
      <point x="346" y="815"/>
      <point x="270" y="510"/>
      <point x="123" y="305" type="curve"/>
      <point x="29" y="305" type="line"/>
      <point x="29" y="-492" type="line"/>
      <point x="303" y="-492" type="line"/>
      <point x="303" y="82" type="line"/>
      <point x="1055" y="82" type="line"/>
      <point x="1055" y="-492" type="line"/>
      <point x="1329" y="-492" type="line"/>
      <point x="1329" y="305" type="line"/>
      <point x="1165" y="305" type="line"/>
    </contour>
    <contour>
      <point x="860" y="889" type="line"/>
      <point x="860" y="305" type="line"/>
      <point x="442" y="305" type="line"/>
      <point x="545" y="481"/>
      <point x="598" y="674"/>
      <point x="631" y="889" type="curve"/>
    </contour>
  </outline>
</glyph>
<glyph name="uni1C82" format="2">
  <advance width="1001"/>
  <unicode hex="1C82"/>
  <anchor x="502" y="0" name="bottom"/>
  <anchor x="502" y="1118" name="top"/>
  <outline>
    <contour>
      <point x="909" y="561" type="curve"/>
      <point x="909" y="993"/>
      <point x="739" y="1139"/>
      <point x="504" y="1139" type="curve" smooth="yes"/>
      <point x="248" y="1139"/>
      <point x="92" y="993"/>
      <point x="92" y="561" type="curve" smooth="yes"/>
      <point x="92" y="127"/>
      <point x="262" y="-20"/>
      <point x="498" y="-20" type="curve" smooth="yes"/>
      <point x="752" y="-20"/>
      <point x="909" y="127"/>
    </contour>
    <contour>
      <point x="403" y="561" type="curve"/>
      <point x="403" y="823"/>
      <point x="432" y="893"/>
      <point x="500" y="893" type="curve" smooth="yes"/>
      <point x="569" y="893"/>
      <point x="598" y="823"/>
      <point x="598" y="561" type="curve" smooth="yes"/>
      <point x="598" y="299"/>
      <point x="569" y="225"/>
      <point x="502" y="225" type="curve" smooth="yes"/>
      <point x="432" y="225"/>
      <point x="403" y="299"/>
    </contour>
  </outline>
</glyph>
<glyph name="uni1C84" format="2">
  <advance width="905"/>
  <unicode hex="1C84"/>
  <anchor x="453" y="0" name="bottom"/>
  <anchor x="453" y="1462" name="top"/>
  <outline>
    <contour>
      <point x="807" y="1462" type="line"/>
      <point x="-133" y="1462" type="line"/>
      <point x="-133" y="1233" type="line"/>
      <point x="465" y="1233" type="line"/>
      <point x="260" y="0" type="line"/>
      <point x="565" y="0" type="line"/>
    </contour>
  </outline>
</glyph>
<glyph name="uni1D0A" format="2">
  <advance width="772"/>
  <unicode hex="1D0A"/>
  <anchor x="481" y="-324" name="bottom"/>
  <anchor x="481" y="1118" name="top"/>
  <outline>
    <contour>
      <point x="246" y="-20" type="curve" smooth="yes"/>
      <point x="461" y="-20"/>
      <point x="606" y="90"/>
      <point x="606" y="375" type="curve" smooth="yes"/>
      <point x="606" y="1118" type="line"/>
      <point x="365" y="1118" type="line"/>
      <point x="365" y="373" type="line" smooth="yes"/>
      <point x="365" y="211"/>
      <point x="301" y="176"/>
      <point x="217" y="176" type="curve" smooth="yes"/>
      <point x="174" y="176"/>
      <point x="137" y="182"/>
      <point x="102" y="190" type="curve"/>
      <point x="102" y="-2" type="line"/>
      <point x="137" y="-12"/>
      <point x="182" y="-20"/>
    </contour>
  </outline>
</glyph>
<glyph name="uni1D21" format="2">
  <advance width="1620"/>
  <unicode hex="1D21"/>
  <anchor x="811" y="0" name="bottom"/>
  <anchor x="811" y="1118" name="top"/>
  <outline>
    <contour>
      <point x="311" y="0" type="line"/>
      <point x="614" y="0" type="line"/>
      <point x="698" y="387" type="line" smooth="yes"/>
      <point x="719" y="483"/>
      <point x="803" y="864"/>
      <point x="805" y="905" type="curve"/>
      <point x="811" y="905" type="line"/>
      <point x="813" y="864"/>
      <point x="899" y="483"/>
      <point x="918" y="391" type="curve" smooth="yes"/>
      <point x="997" y="0" type="line"/>
      <point x="1305" y="0" type="line"/>
      <point x="1602" y="1118" type="line"/>
      <point x="1325" y="1118" type="line"/>
      <point x="1202" y="623" type="line" smooth="yes"/>
      <point x="1176" y="518"/>
      <point x="1149" y="324"/>
      <point x="1141" y="256" type="curve"/>
      <point x="1133" y="256" type="line"/>
      <point x="1133" y="332"/>
      <point x="1102" y="524"/>
      <point x="1087" y="582" type="curve" smooth="yes"/>
      <point x="967" y="1118" type="line"/>
      <point x="657" y="1118" type="line"/>
      <point x="530" y="582" type="line" smooth="yes"/>
      <point x="520" y="541"/>
      <point x="485" y="334"/>
      <point x="483" y="256" type="curve"/>
      <point x="475" y="256" type="line"/>
      <point x="465" y="334"/>
      <point x="442" y="518"/>
      <point x="418" y="623" type="curve" smooth="yes"/>
      <point x="299" y="1118" type="line"/>
      <point x="18" y="1118" type="line"/>
    </contour>
  </outline>
</glyph>
<glyph name="uni1D26" format="2">
  <advance width="963"/>
  <unicode hex="1D26"/>
  <outline>
    <contour>
      <point x="899" y="1118" type="line"/>
      <point x="176" y="1118" type="line"/>
      <point x="176" y="0" type="line"/>
      <point x="418" y="0" type="line"/>
      <point x="418" y="926" type="line"/>
      <point x="899" y="926" type="line"/>
    </contour>
  </outline>
</glyph>
<glyph name="uni1D28" format="2">
  <advance width="1260"/>
  <unicode hex="1D28"/>
  <outline>
    <contour>
      <point x="1081" y="0" type="line"/>
      <point x="1081" y="1118" type="line"/>
      <point x="176" y="1118" type="line"/>
      <point x="176" y="0" type="line"/>
      <point x="418" y="0" type="line"/>
      <point x="418" y="926" type="line"/>
      <point x="840" y="926" type="line"/>
      <point x="840" y="0" type="line"/>
    </contour>
  </outline>
</glyph>
<glyph name="uni1D73" format="2">
  <advance width="815"/>
  <unicode hex="1D73"/>
  <outline>
    <contour>
      <point x="154" y="0" type="line"/>
      <point x="459" y="0" type="line"/>
      <point x="459" y="324" type="line"/>
      <point x="469" y="319"/>
      <point x="489" y="317"/>
      <point x="500" y="317" type="curve" smooth="yes"/>
      <point x="639" y="317"/>
      <point x="748" y="422"/>
      <point x="752" y="625" type="curve"/>
      <point x="602" y="625" type="line"/>
      <point x="590" y="551"/>
      <point x="559" y="516"/>
      <point x="510" y="516" type="curve" smooth="yes"/>
      <point x="492" y="516"/>
      <point x="473" y="518"/>
      <point x="459" y="522" type="curve"/>
      <point x="459" y="719" type="line" smooth="yes"/>
      <point x="459" y="813"/>
      <point x="496" y="883"/>
      <point x="608" y="883" type="curve" smooth="yes"/>
      <point x="662" y="883"/>
      <point x="698" y="874"/>
      <point x="737" y="862" type="curve"/>
      <point x="772" y="1110" type="line"/>
      <point x="700" y="1130"/>
      <point x="633" y="1143"/>
      <point x="535" y="1143" type="curve" smooth="yes"/>
      <point x="287" y="1143"/>
      <point x="154" y="1014"/>
      <point x="154" y="735" type="curve" smooth="yes"/>
      <point x="154" y="618" type="line"/>
      <point x="143" y="621"/>
      <point x="129" y="623"/>
      <point x="119" y="623" type="curve" smooth="yes"/>
      <point x="-23" y="623"/>
      <point x="-127" y="518"/>
      <point x="-131" y="315" type="curve"/>
      <point x="18" y="315" type="line"/>
      <point x="27" y="385"/>
      <point x="57" y="424"/>
      <point x="106" y="424" type="curve" smooth="yes"/>
      <point x="123" y="424"/>
      <point x="135" y="422"/>
      <point x="154" y="418" type="curve"/>
    </contour>
  </outline>
</glyph>
<glyph name="uni1D74" format="2">
  <advance width="1018"/>
  <unicode hex="1D74"/>
  <outline>
    <contour>
      <point x="463" y="-20" type="curve" smooth="yes"/>
      <point x="778" y="-20"/>
      <point x="940" y="104"/>
      <point x="940" y="332" type="curve" smooth="yes"/>
      <point x="940" y="369"/>
      <point x="930" y="401"/>
      <point x="918" y="432" type="curve"/>
      <point x="981" y="473"/>
      <point x="1028" y="547"/>
      <point x="1034" y="686" type="curve"/>
      <point x="885" y="686" type="line"/>
      <point x="877" y="631"/>
      <point x="854" y="596"/>
      <point x="809" y="580" type="curve"/>
      <point x="762" y="618"/>
      <point x="696" y="653"/>
      <point x="629" y="682" type="curve" smooth="yes"/>
      <point x="434" y="764"/>
      <point x="395" y="784"/>
      <point x="395" y="838" type="curve" smooth="yes"/>
      <point x="395" y="887"/>
      <point x="438" y="913"/>
      <point x="528" y="913" type="curve" smooth="yes"/>
      <point x="629" y="913"/>
      <point x="725" y="879"/>
      <point x="836" y="831" type="curve"/>
      <point x="928" y="1051" type="line"/>
      <point x="795" y="1112"/>
      <point x="674" y="1139"/>
      <point x="535" y="1139" type="curve" smooth="yes"/>
      <point x="266" y="1139"/>
      <point x="92" y="1034"/>
      <point x="92" y="827" type="curve" smooth="yes"/>
      <point x="92" y="766"/>
      <point x="100" y="721"/>
      <point x="119" y="682" type="curve"/>
      <point x="39" y="635"/>
      <point x="-8" y="549"/>
      <point x="-8" y="422" type="curve"/>
      <point x="141" y="422" type="line"/>
      <point x="150" y="496"/>
      <point x="188" y="530"/>
      <point x="252" y="530" type="curve" smooth="yes"/>
      <point x="328" y="530"/>
      <point x="387" y="506"/>
      <point x="451" y="479" type="curve" smooth="yes"/>
      <point x="598" y="418"/>
      <point x="639" y="356"/>
      <point x="639" y="299" type="curve" smooth="yes"/>
      <point x="639" y="236"/>
      <point x="592" y="203"/>
      <point x="473" y="203" type="curve" smooth="yes"/>
      <point x="367" y="203"/>
      <point x="215" y="242"/>
      <point x="94" y="297" type="curve"/>
      <point x="94" y="45" type="line"/>
      <point x="207" y="-2"/>
      <point x="307" y="-20"/>
    </contour>
  </outline>
</glyph>
<glyph name="uni1D7F" format="2">
  <advance width="1327"/>
  <unicode hex="1D7F"/>
  <outline>
    <contour>
      <point x="1327" y="670" type="line"/>
      <point x="0" y="670" type="line"/>
      <point x="0" y="471" type="line"/>
      <point x="1327" y="471" type="line"/>
    </contour>
    <component base="uni028A"/>
  </outline>
</glyph>
<glyph name="uni1D84" format="2">
  <advance width="1270"/>
  <unicode hex="1D84"/>
  <anchor x="635" y="-471" name="bottom"/>
  <anchor x="326" y="1556" name="top"/>
  <outline>
    <contour>
      <point x="924" y="223" type="line"/>
      <point x="979" y="0" type="line"/>
      <point x="1020" y="0" type="line"/>
      <point x="1020" y="-131" type="line" smooth="yes"/>
      <point x="1020" y="-221"/>
      <point x="985" y="-250"/>
      <point x="918" y="-250" type="curve" smooth="yes"/>
      <point x="883" y="-250"/>
      <point x="848" y="-242"/>
      <point x="819" y="-231" type="curve"/>
      <point x="819" y="-444" type="line"/>
      <point x="864" y="-461"/>
      <point x="920" y="-471"/>
      <point x="983" y="-471" type="curve" smooth="yes"/>
      <point x="1174" y="-471"/>
      <point x="1274" y="-367"/>
      <point x="1274" y="-131" type="curve" smooth="yes"/>
      <point x="1274" y="223" type="line"/>
    </contour>
    <component base="k"/>
  </outline>
</glyph>
<glyph name="uni1D86" format="2">
  <advance width="2011"/>
  <unicode hex="1D86"/>
  <outline>
    <contour>
      <point x="1669" y="-471" type="curve" smooth="yes"/>
      <point x="1860" y="-471"/>
      <point x="1960" y="-367"/>
      <point x="1960" y="-131" type="curve" smooth="yes"/>
      <point x="1960" y="223" type="line"/>
      <point x="1858" y="223" type="line"/>
      <point x="1858" y="729" type="line" smooth="yes"/>
      <point x="1858" y="1016"/>
      <point x="1726" y="1139"/>
      <point x="1473" y="1139" type="curve" smooth="yes"/>
      <point x="1343" y="1139"/>
      <point x="1210" y="1090"/>
      <point x="1143" y="975" type="curve"/>
      <point x="1116" y="975" type="line"/>
      <point x="1055" y="1087"/>
      <point x="940" y="1139"/>
      <point x="776" y="1139" type="curve" smooth="yes"/>
      <point x="647" y="1139"/>
      <point x="518" y="1090"/>
      <point x="451" y="975" type="curve"/>
      <point x="434" y="975" type="line"/>
      <point x="393" y="1118" type="line"/>
      <point x="160" y="1118" type="line"/>
      <point x="160" y="0" type="line"/>
      <point x="465" y="0" type="line"/>
      <point x="465" y="526" type="line" smooth="yes"/>
      <point x="465" y="764"/>
      <point x="518" y="895"/>
      <point x="688" y="895" type="curve" smooth="yes"/>
      <point x="803" y="895"/>
      <point x="856" y="813"/>
      <point x="856" y="653" type="curve" smooth="yes"/>
      <point x="856" y="0" type="line"/>
      <point x="1161" y="0" type="line"/>
      <point x="1161" y="561" type="line" smooth="yes"/>
      <point x="1161" y="776"/>
      <point x="1223" y="895"/>
      <point x="1384" y="895" type="curve" smooth="yes"/>
      <point x="1499" y="895"/>
      <point x="1552" y="813"/>
      <point x="1552" y="653" type="curve" smooth="yes"/>
      <point x="1552" y="0" type="line"/>
      <point x="1706" y="0" type="line"/>
      <point x="1706" y="-131" type="line" smooth="yes"/>
      <point x="1706" y="-221"/>
      <point x="1671" y="-250"/>
      <point x="1604" y="-250" type="curve" smooth="yes"/>
      <point x="1569" y="-250"/>
      <point x="1534" y="-242"/>
      <point x="1505" y="-231" type="curve"/>
      <point x="1505" y="-444" type="line"/>
      <point x="1550" y="-461"/>
      <point x="1606" y="-471"/>
    </contour>
  </outline>
</glyph>
<glyph name="uni1D8D" format="2">
  <advance width="1184"/>
  <unicode hex="1D8D"/>
  <outline>
    <contour>
      <point x="1157" y="1118" type="line"/>
      <point x="811" y="1118" type="line"/>
      <point x="592" y="762" type="line"/>
      <point x="375" y="1118" type="line"/>
      <point x="29" y="1118" type="line"/>
      <point x="389" y="571" type="line"/>
      <point x="10" y="0" type="line"/>
      <point x="356" y="0" type="line"/>
      <point x="592" y="383" type="line"/>
      <point x="827" y="0" type="line"/>
      <point x="889" y="0" type="line"/>
      <point x="889" y="-131" type="line" smooth="yes"/>
      <point x="889" y="-221"/>
      <point x="854" y="-250"/>
      <point x="786" y="-250" type="curve" smooth="yes"/>
      <point x="752" y="-250"/>
      <point x="717" y="-242"/>
      <point x="688" y="-231" type="curve"/>
      <point x="688" y="-444" type="line"/>
      <point x="733" y="-461"/>
      <point x="788" y="-471"/>
      <point x="852" y="-471" type="curve" smooth="yes"/>
      <point x="1042" y="-471"/>
      <point x="1143" y="-367"/>
      <point x="1143" y="-131" type="curve" smooth="yes"/>
      <point x="1143" y="223" type="line"/>
      <point x="1024" y="223" type="line"/>
      <point x="793" y="571" type="line"/>
    </contour>
  </outline>
</glyph>
<glyph name="uni1D8E" format="2">
  <advance width="999"/>
  <unicode hex="1D8E"/>
  <outline>
    <contour>
      <point x="920" y="1118" type="line"/>
      <point x="86" y="1118" type="line"/>
      <point x="86" y="885" type="line"/>
      <point x="573" y="885" type="line"/>
      <point x="55" y="180" type="line"/>
      <point x="55" y="0" type="line"/>
      <point x="684" y="0" type="line"/>
      <point x="684" y="-131" type="line" smooth="yes"/>
      <point x="684" y="-221"/>
      <point x="649" y="-250"/>
      <point x="582" y="-250" type="curve" smooth="yes"/>
      <point x="547" y="-250"/>
      <point x="512" y="-242"/>
      <point x="483" y="-231" type="curve"/>
      <point x="483" y="-444" type="line"/>
      <point x="528" y="-461"/>
      <point x="584" y="-471"/>
      <point x="647" y="-471" type="curve" smooth="yes"/>
      <point x="838" y="-471"/>
      <point x="938" y="-367"/>
      <point x="938" y="-131" type="curve" smooth="yes"/>
      <point x="938" y="233" type="line"/>
      <point x="416" y="233" type="line"/>
      <point x="920" y="920" type="line"/>
    </contour>
  </outline>
</glyph>
<glyph name="dottedgrave" format="2">
  <unicode hex="1DC0"/>
  <anchor x="0" y="1118" name="_top"/>
  <anchor x="4" y="1683" name="top"/>
  <outline>
    <contour>
      <point x="80" y="1632" type="curve"/>
      <point x="-182" y="1632" type="line"/>
      <point x="-182" y="1612" type="line"/>
      <point x="-141" y="1522"/>
      <point x="-72" y="1411"/>
      <point x="4" y="1305" type="curve"/>
      <point x="141" y="1305" type="line"/>
      <point x="141" y="1331" type="line"/>
      <point x="119" y="1411"/>
      <point x="90" y="1544"/>
    </contour>
    <contour>
      <point x="-289" y="1540" type="curve" smooth="yes"/>
      <point x="-367" y="1540"/>
      <point x="-418" y="1499"/>
      <point x="-418" y="1405" type="curve" smooth="yes"/>
      <point x="-418" y="1315"/>
      <point x="-367" y="1272"/>
      <point x="-289" y="1272" type="curve" smooth="yes"/>
      <point x="-213" y="1272"/>
      <point x="-158" y="1315"/>
      <point x="-158" y="1405" type="curve" smooth="yes"/>
      <point x="-158" y="1499"/>
      <point x="-213" y="1540"/>
    </contour>
    <contour>
      <point x="287" y="1683" type="curve" smooth="yes"/>
      <point x="207" y="1683"/>
      <point x="156" y="1642"/>
      <point x="156" y="1548" type="curve" smooth="yes"/>
      <point x="156" y="1458"/>
      <point x="207" y="1415"/>
      <point x="287" y="1415" type="curve" smooth="yes"/>
      <point x="362" y="1415"/>
      <point x="418" y="1458"/>
      <point x="418" y="1548" type="curve" smooth="yes"/>
      <point x="418" y="1642"/>
      <point x="362" y="1683"/>
    </contour>
  </outline>
</glyph>
<glyph name="longshighstroke" format="2">
  <advance width="784"/>
  <unicode hex="1E9D"/>
  <anchor x="393" y="0" name="bottom"/>
  <anchor x="393" y="1567" name="top"/>
  <outline>
    <contour>
      <point x="12" y="1186" type="line"/>
      <point x="12" y="979" type="line"/>
      <point x="729" y="979" type="line"/>
      <point x="729" y="1186" type="line"/>
    </contour>
    <component base="longs"/>
  </outline>
</glyph>
<glyph name="uni1FBD" format="2">
  <advance width="573"/>
  <unicode hex="1FBD"/>
  <anchor x="285" y="1118" name="_top"/>
  <outline>
    <contour>
      <point x="145" y="1219" type="line"/>
      <point x="334" y="1221"/>
      <point x="416" y="1325"/>
      <point x="416" y="1464" type="curve" smooth="yes"/>
      <point x="416" y="1556"/>
      <point x="365" y="1624"/>
      <point x="274" y="1624" type="curve" smooth="yes"/>
      <point x="209" y="1624"/>
      <point x="160" y="1583"/>
      <point x="160" y="1513" type="curve" smooth="yes"/>
      <point x="160" y="1434"/>
      <point x="211" y="1393"/>
      <point x="281" y="1389" type="curve"/>
      <point x="281" y="1346"/>
      <point x="233" y="1309"/>
      <point x="145" y="1305" type="curve"/>
    </contour>
  </outline>
</glyph>
<glyph name="uni1FDF" format="2">
  <advance width="1214"/>
  <unicode hex="1FDF"/>
  <anchor x="616" y="1118" name="_top"/>
  <anchor x="612" y="1761" name="top"/>
  <outline>
    <contour>
      <point x="242" y="1526" type="curve"/>
      <point x="367" y="1526" type="line"/>
      <point x="383" y="1587"/>
      <point x="406" y="1614"/>
      <point x="463" y="1614" type="curve" smooth="yes"/>
      <point x="539" y="1614"/>
      <point x="631" y="1526"/>
      <point x="750" y="1526" type="curve" smooth="yes"/>
      <point x="893" y="1526"/>
      <point x="958" y="1628"/>
      <point x="973" y="1761" type="curve"/>
      <point x="848" y="1761" type="line"/>
      <point x="836" y="1704"/>
      <point x="811" y="1673"/>
      <point x="756" y="1673" type="curve" smooth="yes"/>
      <point x="676" y="1673"/>
      <point x="594" y="1761"/>
      <point x="463" y="1761" type="curve" smooth="yes"/>
      <point x="326" y="1761"/>
      <point x="254" y="1659"/>
    </contour>
    <contour>
      <point x="721" y="1192" type="curve"/>
      <point x="721" y="1272" type="line"/>
      <point x="649" y="1276"/>
      <point x="608" y="1296"/>
      <point x="608" y="1331" type="curve"/>
      <point x="674" y="1333"/>
      <point x="715" y="1368"/>
      <point x="715" y="1419" type="curve" smooth="yes"/>
      <point x="715" y="1473"/>
      <point x="674" y="1509"/>
      <point x="606" y="1509" type="curve" smooth="yes"/>
      <point x="524" y="1509"/>
      <point x="481" y="1454"/>
      <point x="481" y="1386" type="curve" smooth="yes"/>
      <point x="481" y="1284"/>
      <point x="547" y="1198"/>
    </contour>
  </outline>
</glyph>
<glyph name="uni1FEF" format="2">
  <advance width="1182"/>
  <unicode hex="1FEF"/>
  <anchor x="627" y="1118" name="_top"/>
  <anchor x="553" y="1569" name="top"/>
  <outline>
    <contour>
      <point x="723" y="1241" type="line"/>
      <point x="723" y="1266" type="line"/>
      <point x="698" y="1337"/>
      <point x="659" y="1468"/>
      <point x="639" y="1569" type="curve"/>
      <point x="373" y="1569" type="line"/>
      <point x="373" y="1548" type="line"/>
      <point x="416" y="1460"/>
      <point x="508" y="1325"/>
      <point x="582" y="1241" type="curve"/>
    </contour>
  </outline>
</glyph>
<glyph name="caretinsertionpoint" format="2">
  <advance width="868"/>
  <unicode hex="2041"/>
  <outline>
    <contour>
      <point x="45" y="-492" type="line"/>
      <point x="205" y="-492" type="line"/>
      <point x="827" y="823" type="line"/>
      <point x="668" y="823" type="line"/>
    </contour>
    <contour>
      <point x="618" y="-492" type="line"/>
      <point x="780" y="-492" type="line"/>
      <point x="477" y="123" type="line"/>
      <point x="344" y="123" type="line"/>
      <point x="410" y="-31" type="line"/>
    </contour>
  </outline>
</glyph>
<glyph name="blackleftbullet" format="2">
  <advance width="1341"/>
  <unicode hex="204C"/>
  <outline>
    <contour>
      <point x="559" y="90" type="curve" smooth="yes"/>
      <point x="1163" y="90" type="line"/>
      <point x="1163" y="1118" type="line"/>
      <point x="559" y="1118" type="line" smooth="yes"/>
      <point x="291" y="1118"/>
      <point x="109" y="995"/>
      <point x="109" y="604" type="curve" smooth="yes"/>
      <point x="109" y="213"/>
      <point x="291" y="90"/>
    </contour>
    <contour>
      <point x="836" y="291" type="line"/>
      <point x="836" y="918" type="line"/>
      <point x="1001" y="918" type="line"/>
      <point x="1001" y="291" type="line"/>
    </contour>
  </outline>
</glyph>
<glyph name="commercialMinusSign" format="2">
  <advance width="860"/>
  <unicode hex="2052"/>
  <outline>
    <contour>
      <point x="510" y="143" type="curve" smooth="yes"/>
      <point x="510" y="23"/>
      <point x="588" y="-27"/>
      <point x="686" y="-27" type="curve" smooth="yes"/>
      <point x="780" y="-27"/>
      <point x="860" y="23"/>
      <point x="860" y="143" type="curve" smooth="yes"/>
      <point x="860" y="268"/>
      <point x="780" y="313"/>
      <point x="686" y="313" type="curve" smooth="yes"/>
      <point x="588" y="313"/>
      <point x="510" y="268"/>
    </contour>
    <contour>
      <point x="860" y="1462" type="line"/>
      <point x="621" y="1462" type="line"/>
      <point x="0" y="0" type="line"/>
      <point x="240" y="0" type="line"/>
    </contour>
    <contour>
      <point x="4" y="1317" type="curve" smooth="yes"/>
      <point x="4" y="1196"/>
      <point x="82" y="1147"/>
      <point x="180" y="1147" type="curve" smooth="yes"/>
      <point x="274" y="1147"/>
      <point x="354" y="1196"/>
      <point x="354" y="1317" type="curve" smooth="yes"/>
      <point x="354" y="1442"/>
      <point x="274" y="1487"/>
      <point x="180" y="1487" type="curve" smooth="yes"/>
      <point x="82" y="1487"/>
      <point x="4" y="1442"/>
    </contour>
  </outline>
</glyph>
<glyph name="fivedotpunctuation" format="2">
  <advance width="1788"/>
  <unicode hex="2059"/>
  <outline>
    <contour>
      <point x="719" y="729" type="curve" smooth="yes"/>
      <point x="719" y="623"/>
      <point x="784" y="569"/>
      <point x="893" y="569" type="curve" smooth="yes"/>
      <point x="999" y="569"/>
      <point x="1069" y="623"/>
      <point x="1069" y="729" type="curve" smooth="yes"/>
      <point x="1069" y="840"/>
      <point x="999" y="889"/>
      <point x="893" y="889" type="curve" smooth="yes"/>
      <point x="784" y="889"/>
      <point x="719" y="840"/>
    </contour>
    <contour>
      <point x="117" y="111" type="curve" smooth="yes"/>
      <point x="117" y="4"/>
      <point x="182" y="-49"/>
      <point x="291" y="-49" type="curve" smooth="yes"/>
      <point x="397" y="-49"/>
      <point x="467" y="4"/>
      <point x="467" y="111" type="curve" smooth="yes"/>
      <point x="467" y="221"/>
      <point x="397" y="270"/>
      <point x="291" y="270" type="curve" smooth="yes"/>
      <point x="182" y="270"/>
      <point x="117" y="221"/>
    </contour>
    <contour>
      <point x="1321" y="111" type="curve" smooth="yes"/>
      <point x="1321" y="4"/>
      <point x="1386" y="-49"/>
      <point x="1495" y="-49" type="curve" smooth="yes"/>
      <point x="1602" y="-49"/>
      <point x="1671" y="4"/>
      <point x="1671" y="111" type="curve" smooth="yes"/>
      <point x="1671" y="221"/>
      <point x="1602" y="270"/>
      <point x="1495" y="270" type="curve" smooth="yes"/>
      <point x="1386" y="270"/>
      <point x="1321" y="221"/>
    </contour>
    <contour>
      <point x="117" y="1346" type="curve" smooth="yes"/>
      <point x="117" y="1235"/>
      <point x="182" y="1186"/>
      <point x="291" y="1186" type="curve" smooth="yes"/>
      <point x="397" y="1186"/>
      <point x="467" y="1235"/>
      <point x="467" y="1346" type="curve" smooth="yes"/>
      <point x="467" y="1452"/>
      <point x="397" y="1505"/>
      <point x="291" y="1505" type="curve" smooth="yes"/>
      <point x="182" y="1505"/>
      <point x="117" y="1452"/>
    </contour>
    <contour>
      <point x="1321" y="1346" type="curve" smooth="yes"/>
      <point x="1321" y="1235"/>
      <point x="1386" y="1186"/>
      <point x="1495" y="1186" type="curve" smooth="yes"/>
      <point x="1602" y="1186"/>
      <point x="1671" y="1235"/>
      <point x="1671" y="1346" type="curve" smooth="yes"/>
      <point x="1671" y="1452"/>
      <point x="1602" y="1505"/>
      <point x="1495" y="1505" type="curve" smooth="yes"/>
      <point x="1386" y="1505"/>
      <point x="1321" y="1452"/>
    </contour>
  </outline>
</glyph>
<glyph name="dottedcross" format="2">
  <advance width="1747"/>
  <unicode hex="205C"/>
  <outline>
    <contour>
      <point x="758" y="-68" type="line"/>
      <point x="987" y="-68" type="line"/>
      <point x="987" y="616" type="line"/>
      <point x="1671" y="616" type="line"/>
      <point x="1671" y="846" type="line"/>
      <point x="987" y="846" type="line"/>
      <point x="987" y="1528" type="line"/>
      <point x="758" y="1528" type="line"/>
      <point x="758" y="846" type="line"/>
      <point x="76" y="846" type="line"/>
      <point x="76" y="616" type="line"/>
      <point x="758" y="616" type="line"/>
    </contour>
    <contour>
      <point x="375" y="57" type="curve" smooth="yes"/>
      <point x="469" y="57"/>
      <point x="549" y="106"/>
      <point x="549" y="227" type="curve" smooth="yes"/>
      <point x="549" y="352"/>
      <point x="469" y="397"/>
      <point x="375" y="397" type="curve" smooth="yes"/>
      <point x="276" y="397"/>
      <point x="199" y="352"/>
      <point x="199" y="227" type="curve" smooth="yes"/>
      <point x="199" y="106"/>
      <point x="276" y="57"/>
    </contour>
    <contour>
      <point x="1374" y="57" type="curve" smooth="yes"/>
      <point x="1468" y="57"/>
      <point x="1548" y="106"/>
      <point x="1548" y="227" type="curve" smooth="yes"/>
      <point x="1548" y="352"/>
      <point x="1468" y="397"/>
      <point x="1374" y="397" type="curve" smooth="yes"/>
      <point x="1276" y="397"/>
      <point x="1198" y="352"/>
      <point x="1198" y="227" type="curve" smooth="yes"/>
      <point x="1198" y="106"/>
      <point x="1276" y="57"/>
    </contour>
    <contour>
      <point x="375" y="1067" type="curve" smooth="yes"/>
      <point x="469" y="1067"/>
      <point x="549" y="1116"/>
      <point x="549" y="1237" type="curve" smooth="yes"/>
      <point x="549" y="1362"/>
      <point x="469" y="1407"/>
      <point x="375" y="1407" type="curve" smooth="yes"/>
      <point x="276" y="1407"/>
      <point x="199" y="1362"/>
      <point x="199" y="1237" type="curve" smooth="yes"/>
      <point x="199" y="1116"/>
      <point x="276" y="1067"/>
    </contour>
    <contour>
      <point x="1374" y="1067" type="curve" smooth="yes"/>
      <point x="1468" y="1067"/>
      <point x="1548" y="1116"/>
      <point x="1548" y="1237" type="curve" smooth="yes"/>
      <point x="1548" y="1362"/>
      <point x="1468" y="1407"/>
      <point x="1374" y="1407" type="curve" smooth="yes"/>
      <point x="1276" y="1407"/>
      <point x="1198" y="1362"/>
      <point x="1198" y="1237" type="curve" smooth="yes"/>
      <point x="1198" y="1116"/>
      <point x="1276" y="1067"/>
    </contour>
  </outline>
</glyph>
<glyph name="uni20B4" format="2">
  <advance width="1171"/>
  <unicode hex="20B4"/>
  <outline>
    <contour>
      <point x="604" y="-20" type="curve" smooth="yes"/>
      <point x="778" y="-20"/>
      <point x="934" y="14"/>
      <point x="1053" y="72" type="curve"/>
      <point x="1053" y="330" type="line"/>
      <point x="911" y="272"/>
      <point x="770" y="236"/>
      <point x="623" y="236" type="curve" smooth="yes"/>
      <point x="481" y="236"/>
      <point x="410" y="295"/>
      <point x="410" y="395" type="curve" smooth="yes"/>
      <point x="410" y="438"/>
      <point x="422" y="475"/>
      <point x="449" y="506" type="curve"/>
      <point x="1149" y="506" type="line"/>
      <point x="1149" y="657" type="line"/>
      <point x="725" y="657" type="line"/>
      <point x="813" y="696"/>
      <point x="897" y="737"/>
      <point x="958" y="805" type="curve"/>
      <point x="1149" y="805" type="line"/>
      <point x="1149" y="956" type="line"/>
      <point x="1044" y="956" type="line"/>
      <point x="1055" y="993"/>
      <point x="1061" y="1034"/>
      <point x="1061" y="1079" type="curve" smooth="yes"/>
      <point x="1061" y="1341"/>
      <point x="881" y="1483"/>
      <point x="596" y="1483" type="curve" smooth="yes"/>
      <point x="424" y="1483"/>
      <point x="270" y="1444"/>
      <point x="129" y="1380" type="curve"/>
      <point x="221" y="1139" type="line"/>
      <point x="356" y="1194"/>
      <point x="461" y="1225"/>
      <point x="571" y="1225" type="curve" smooth="yes"/>
      <point x="692" y="1225"/>
      <point x="758" y="1174"/>
      <point x="758" y="1085" type="curve" smooth="yes"/>
      <point x="758" y="1030"/>
      <point x="739" y="989"/>
      <point x="705" y="956" type="curve"/>
      <point x="20" y="956" type="line"/>
      <point x="20" y="805" type="line"/>
      <point x="401" y="805" type="line"/>
      <point x="317" y="764"/>
      <point x="248" y="715"/>
      <point x="199" y="657" type="curve"/>
      <point x="20" y="657" type="line"/>
      <point x="20" y="506" type="line"/>
      <point x="121" y="506" type="line"/>
      <point x="111" y="471"/>
      <point x="106" y="434"/>
      <point x="106" y="395" type="curve" smooth="yes"/>
      <point x="106" y="135"/>
      <point x="270" y="-20"/>
    </contour>
  </outline>
</glyph>
<glyph name="prescription" format="2">
  <advance width="1368"/>
  <unicode hex="211E"/>
  <outline>
    <contour>
      <point x="184" y="0" type="line"/>
      <point x="494" y="0" type="line"/>
      <point x="494" y="561" type="line"/>
      <point x="686" y="561" type="line"/>
      <point x="838" y="330" type="line"/>
      <point x="614" y="0" type="line"/>
      <point x="891" y="0" type="line"/>
      <point x="971" y="129" type="line"/>
      <point x="1057" y="0" type="line"/>
      <point x="1352" y="0" type="line"/>
      <point x="1130" y="326" type="line"/>
      <point x="1348" y="647" type="line"/>
      <point x="1065" y="647" type="line"/>
      <point x="993" y="530" type="line"/>
      <point x="922" y="637" type="line"/>
      <point x="1077" y="698"/>
      <point x="1194" y="848"/>
      <point x="1194" y="1024" type="curve" smooth="yes"/>
      <point x="1194" y="1319"/>
      <point x="1008" y="1462"/>
      <point x="610" y="1462" type="curve" smooth="yes"/>
      <point x="184" y="1462" type="line"/>
    </contour>
    <contour>
      <point x="494" y="813" type="line"/>
      <point x="494" y="1208" type="line"/>
      <point x="588" y="1208" type="line" smooth="yes"/>
      <point x="788" y="1208"/>
      <point x="881" y="1155"/>
      <point x="881" y="1016" type="curve" smooth="yes"/>
      <point x="881" y="883"/>
      <point x="799" y="813"/>
      <point x="594" y="813" type="curve" smooth="yes"/>
    </contour>
  </outline>
</glyph>
<glyph name="versicle" format="2">
  <advance width="1331"/>
  <unicode hex="2123"/>
  <outline>
    <contour>
      <point x="748" y="1524" type="line"/>
      <point x="176" y="-299" type="line"/>
      <point x="317" y="-299" type="line"/>
      <point x="922" y="1610" type="line"/>
      <point x="354" y="1800" type="line"/>
      <point x="305" y="1663" type="line"/>
    </contour>
    <component base="V"/>
  </outline>
</glyph>
<glyph name="facsimile" format="2">
  <advance width="2951"/>
  <unicode hex="213B"/>
  <outline>
    <contour>
      <point x="2947" y="0" type="line"/>
      <point x="2646" y="754" type="line"/>
      <point x="2951" y="1462" type="line"/>
      <point x="2617" y="1462" type="line"/>
      <point x="2476" y="1008" type="line"/>
      <point x="2337" y="1462" type="line"/>
      <point x="1995" y="1462" type="line"/>
      <point x="2261" y="754" type="line"/>
      <point x="1978" y="0" type="line"/>
      <point x="2310" y="0" type="line"/>
      <point x="2447" y="473" type="line"/>
      <point x="2593" y="0" type="line"/>
    </contour>
    <contour>
      <point x="1186" y="608" type="line"/>
      <point x="1108" y="348" type="line"/>
      <point x="1706" y="348" type="line"/>
      <point x="1632" y="608" type="line"/>
    </contour>
    <contour>
      <point x="489" y="0" type="line"/>
      <point x="489" y="578" type="line"/>
      <point x="827" y="578" type="line"/>
      <point x="827" y="831" type="line"/>
      <point x="489" y="831" type="line"/>
      <point x="489" y="1208" type="line"/>
      <point x="864" y="1208" type="line"/>
      <point x="864" y="1462" type="line"/>
      <point x="184" y="1462" type="line"/>
      <point x="184" y="0" type="line"/>
    </contour>
    <contour>
      <point x="1446" y="932" type="curve" smooth="yes"/>
      <point x="1620" y="0" type="line"/>
      <point x="1954" y="0" type="line"/>
      <point x="1595" y="1468" type="line"/>
      <point x="1217" y="1468" type="line"/>
      <point x="858" y="0" type="line"/>
      <point x="1192" y="0" type="line"/>
      <point x="1346" y="926" type="line" smooth="yes"/>
      <point x="1360" y="1008"/>
      <point x="1374" y="1116"/>
      <point x="1395" y="1212" type="curve"/>
      <point x="1415" y="1110"/>
      <point x="1434" y="1001"/>
    </contour>
  </outline>
</glyph>
<glyph name="oneeighth" format="2">
  <advance width="1819"/>
  <unicode hex="215B"/>
  <outline>
    <contour>
      <point x="295" y="0" type="line"/>
      <point x="535" y="0" type="line"/>
      <point x="1346" y="1462" type="line"/>
      <point x="1106" y="1462" type="line"/>
    </contour>
    <contour>
      <point x="309" y="586" type="line"/>
      <point x="547" y="586" type="line"/>
      <point x="547" y="1462" type="line"/>
      <point x="356" y="1462" type="line"/>
      <point x="55" y="1227" type="line"/>
      <point x="164" y="1100" type="line"/>
      <point x="242" y="1161" type="line"/>
      <point x="264" y="1180"/>
      <point x="301" y="1217"/>
      <point x="317" y="1239" type="curve"/>
      <point x="313" y="1208"/>
      <point x="309" y="1085"/>
      <point x="309" y="1032" type="curve" smooth="yes"/>
    </contour>
    <contour>
      <point x="1364" y="137" type="curve" smooth="yes"/>
      <point x="1288" y="137"/>
      <point x="1249" y="180"/>
      <point x="1249" y="240" type="curve"/>
      <point x="1249" y="299"/>
      <point x="1286" y="336"/>
      <point x="1350" y="365" type="curve"/>
      <point x="1362" y="360" type="line" smooth="yes"/>
      <point x="1438" y="334"/>
      <point x="1483" y="295"/>
      <point x="1483" y="240" type="curve" smooth="yes"/>
      <point x="1483" y="180"/>
      <point x="1442" y="137"/>
    </contour>
    <contour>
      <point x="1368" y="-20" type="curve" smooth="yes"/>
      <point x="1573" y="-20"/>
      <point x="1710" y="92"/>
      <point x="1710" y="246" type="curve" smooth="yes"/>
      <point x="1710" y="358"/>
      <point x="1624" y="416"/>
      <point x="1534" y="465" type="curve"/>
      <point x="1614" y="510"/>
      <point x="1677" y="571"/>
      <point x="1677" y="672" type="curve" smooth="yes"/>
      <point x="1677" y="821"/>
      <point x="1540" y="897"/>
      <point x="1368" y="897" type="curve"/>
      <point x="1196" y="897"/>
      <point x="1055" y="819"/>
      <point x="1055" y="672" type="curve" smooth="yes"/>
      <point x="1055" y="571"/>
      <point x="1110" y="508"/>
      <point x="1182" y="457" type="curve"/>
      <point x="1098" y="412"/>
      <point x="1024" y="352"/>
      <point x="1024" y="240" type="curve" smooth="yes"/>
      <point x="1024" y="86"/>
      <point x="1145" y="-20"/>
    </contour>
    <contour>
      <point x="1368" y="551" type="curve"/>
      <point x="1317" y="580"/>
      <point x="1278" y="608"/>
      <point x="1278" y="664" type="curve" smooth="yes"/>
      <point x="1278" y="702"/>
      <point x="1309" y="739"/>
      <point x="1366" y="739" type="curve"/>
      <point x="1430" y="739"/>
      <point x="1456" y="702"/>
      <point x="1456" y="664" type="curve" smooth="yes"/>
      <point x="1456" y="606"/>
      <point x="1419" y="578"/>
    </contour>
  </outline>
</glyph>
<glyph name="threeeighths" format="2">
  <advance width="1819"/>
  <unicode hex="215C"/>
  <outline>
    <contour>
      <point x="367" y="0" type="line"/>
      <point x="606" y="0" type="line"/>
      <point x="1417" y="1462" type="line"/>
      <point x="1178" y="1462" type="line"/>
    </contour>
    <contour>
      <point x="332" y="569" type="curve" smooth="yes"/>
      <point x="580" y="569"/>
      <point x="694" y="668"/>
      <point x="694" y="829" type="curve"/>
      <point x="694" y="924"/>
      <point x="631" y="1010"/>
      <point x="496" y="1038" type="curve"/>
      <point x="496" y="1051" type="line"/>
      <point x="614" y="1090"/>
      <point x="666" y="1157"/>
      <point x="666" y="1249" type="curve" smooth="yes"/>
      <point x="666" y="1391"/>
      <point x="543" y="1481"/>
      <point x="377" y="1481" type="curve" smooth="yes"/>
      <point x="240" y="1481"/>
      <point x="143" y="1434"/>
      <point x="61" y="1372" type="curve"/>
      <point x="162" y="1231" type="line"/>
      <point x="238" y="1284"/>
      <point x="287" y="1309"/>
      <point x="350" y="1309" type="curve" smooth="yes"/>
      <point x="418" y="1309"/>
      <point x="451" y="1272"/>
      <point x="451" y="1221" type="curve" smooth="yes"/>
      <point x="451" y="1165"/>
      <point x="426" y="1112"/>
      <point x="287" y="1112" type="curve"/>
      <point x="195" y="1112" type="line"/>
      <point x="195" y="952" type="line"/>
      <point x="307" y="952" type="line" smooth="yes"/>
      <point x="436" y="952"/>
      <point x="473" y="901"/>
      <point x="473" y="846" type="curve" smooth="yes"/>
      <point x="473" y="776"/>
      <point x="428" y="739"/>
      <point x="330" y="739" type="curve" smooth="yes"/>
      <point x="233" y="739"/>
      <point x="147" y="776"/>
      <point x="59" y="829" type="curve"/>
      <point x="59" y="639" type="line"/>
      <point x="145" y="592"/>
      <point x="231" y="569"/>
    </contour>
    <contour>
      <point x="1401" y="137" type="curve" smooth="yes"/>
      <point x="1325" y="137"/>
      <point x="1286" y="180"/>
      <point x="1286" y="240" type="curve"/>
      <point x="1286" y="299"/>
      <point x="1323" y="336"/>
      <point x="1386" y="365" type="curve"/>
      <point x="1399" y="360" type="line" smooth="yes"/>
      <point x="1475" y="334"/>
      <point x="1520" y="295"/>
      <point x="1520" y="240" type="curve" smooth="yes"/>
      <point x="1520" y="180"/>
      <point x="1479" y="137"/>
    </contour>
    <contour>
      <point x="1405" y="-20" type="curve" smooth="yes"/>
      <point x="1610" y="-20"/>
      <point x="1747" y="92"/>
      <point x="1747" y="246" type="curve" smooth="yes"/>
      <point x="1747" y="358"/>
      <point x="1661" y="416"/>
      <point x="1571" y="465" type="curve"/>
      <point x="1651" y="510"/>
      <point x="1714" y="571"/>
      <point x="1714" y="672" type="curve" smooth="yes"/>
      <point x="1714" y="821"/>
      <point x="1577" y="897"/>
      <point x="1405" y="897" type="curve"/>
      <point x="1233" y="897"/>
      <point x="1092" y="819"/>
      <point x="1092" y="672" type="curve" smooth="yes"/>
      <point x="1092" y="571"/>
      <point x="1147" y="508"/>
      <point x="1219" y="457" type="curve"/>
      <point x="1135" y="412"/>
      <point x="1061" y="352"/>
      <point x="1061" y="240" type="curve" smooth="yes"/>
      <point x="1061" y="86"/>
      <point x="1182" y="-20"/>
    </contour>
    <contour>
      <point x="1405" y="551" type="curve"/>
      <point x="1354" y="580"/>
      <point x="1315" y="608"/>
      <point x="1315" y="664" type="curve" smooth="yes"/>
      <point x="1315" y="702"/>
      <point x="1346" y="739"/>
      <point x="1403" y="739" type="curve"/>
      <point x="1466" y="739"/>
      <point x="1493" y="702"/>
      <point x="1493" y="664" type="curve" smooth="yes"/>
      <point x="1493" y="606"/>
      <point x="1456" y="578"/>
    </contour>
  </outline>
</glyph>
<glyph name="partialdiff" format="2">
  <advance width="1190"/>
  <unicode hex="2202"/>
  <outline>
    <contour>
      <point x="647" y="1483" type="curve" smooth="yes"/>
      <point x="532" y="1483"/>
      <point x="418" y="1450"/>
      <point x="311" y="1393" type="curve"/>
      <point x="311" y="1122" type="line"/>
      <point x="412" y="1190"/>
      <point x="524" y="1233"/>
      <point x="604" y="1233" type="curve" smooth="yes"/>
      <point x="717" y="1233"/>
      <point x="811" y="1147"/>
      <point x="811" y="977" type="curve" smooth="yes"/>
      <point x="811" y="967"/>
      <point x="811" y="950"/>
      <point x="811" y="940" type="curve"/>
      <point x="770" y="997"/>
      <point x="692" y="1038"/>
      <point x="616" y="1038" type="curve" smooth="yes"/>
      <point x="197" y="1038"/>
      <point x="59" y="643"/>
      <point x="59" y="399" type="curve" smooth="yes"/>
      <point x="59" y="184"/>
      <point x="150" y="-20"/>
      <point x="469" y="-20" type="curve" smooth="yes"/>
      <point x="928" y="-20"/>
      <point x="1122" y="500"/>
      <point x="1122" y="920" type="curve" smooth="yes"/>
      <point x="1122" y="1212"/>
      <point x="1012" y="1483"/>
    </contour>
    <contour>
      <point x="639" y="811" type="curve" smooth="yes"/>
      <point x="709" y="811"/>
      <point x="766" y="776"/>
      <point x="784" y="707" type="curve"/>
      <point x="743" y="453"/>
      <point x="631" y="223"/>
      <point x="481" y="223" type="curve" smooth="yes"/>
      <point x="410" y="223"/>
      <point x="381" y="279"/>
      <point x="381" y="375" type="curve" smooth="yes"/>
      <point x="381" y="547"/>
      <point x="459" y="811"/>
    </contour>
  </outline>
</glyph>
<glyph name="product" format="2">
  <advance width="1518"/>
  <unicode hex="220F"/>
  <outline>
    <contour>
      <point x="166" y="-457" type="line"/>
      <point x="483" y="-457" type="line"/>
      <point x="483" y="1204" type="line"/>
      <point x="1034" y="1204" type="line"/>
      <point x="1034" y="-457" type="line"/>
      <point x="1352" y="-457" type="line"/>
      <point x="1352" y="1462" type="line"/>
      <point x="166" y="1462" type="line"/>
    </contour>
  </outline>
</glyph>
<glyph name="summation" format="2">
  <advance width="1292"/>
  <unicode hex="2211"/>
  <outline>
    <contour>
      <point x="41" y="-457" type="line"/>
      <point x="1282" y="-457" type="line"/>
      <point x="1282" y="-203" type="line"/>
      <point x="442" y="-203" type="line"/>
      <point x="961" y="553" type="line"/>
      <point x="467" y="1210" type="line"/>
      <point x="1223" y="1210" type="line"/>
      <point x="1223" y="1462" type="line"/>
      <point x="57" y="1462" type="line"/>
      <point x="57" y="1296" type="line"/>
      <point x="616" y="547" type="line"/>
      <point x="41" y="-287" type="line"/>
    </contour>
  </outline>
</glyph>
<glyph name="radical" format="2">
  <advance width="1124"/>
  <unicode hex="221A"/>
  <outline>
    <contour>
      <point x="481" y="-14" type="line"/>
      <point x="664" y="-14" type="line"/>
      <point x="1276" y="1757" type="line"/>
      <point x="1057" y="1757" type="line"/>
      <point x="567" y="369" type="line"/>
      <point x="362" y="936" type="line"/>
      <point x="37" y="936" type="line"/>
      <point x="37" y="723" type="line"/>
      <point x="213" y="723" type="line"/>
    </contour>
  </outline>
</glyph>
<glyph name="integral" format="2">
  <advance width="844"/>
  <unicode hex="222B"/>
  <outline>
    <contour>
      <point x="195" y="-492" type="curve" smooth="yes"/>
      <point x="424" y="-492"/>
      <point x="575" y="-379"/>
      <point x="575" y="-113" type="curve"/>
      <point x="575" y="1163" type="line"/>
      <point x="575" y="1249"/>
      <point x="618" y="1300"/>
      <point x="686" y="1300" type="curve" smooth="yes"/>
      <point x="739" y="1300"/>
      <point x="797" y="1282"/>
      <point x="844" y="1262" type="curve"/>
      <point x="844" y="1516" type="line"/>
      <point x="788" y="1542"/>
      <point x="723" y="1556"/>
      <point x="649" y="1556" type="curve" smooth="yes"/>
      <point x="420" y="1556"/>
      <point x="268" y="1444"/>
      <point x="268" y="1178" type="curve" smooth="yes"/>
      <point x="268" y="-94" type="line" smooth="yes"/>
      <point x="268" y="-186"/>
      <point x="236" y="-236"/>
      <point x="158" y="-236" type="curve" smooth="yes"/>
      <point x="104" y="-236"/>
      <point x="47" y="-217"/>
      <point x="0" y="-197" type="curve"/>
      <point x="0" y="-451" type="line"/>
      <point x="55" y="-477"/>
      <point x="121" y="-492"/>
    </contour>
  </outline>
</glyph>
<glyph name="lozenge" format="2">
  <advance width="1194"/>
  <unicode hex="25CA"/>
  <outline>
    <contour>
      <point x="539" y="0" type="line"/>
      <point x="653" y="0" type="line"/>
      <point x="1104" y="735" type="line"/>
      <point x="653" y="1473" type="line"/>
      <point x="539" y="1473" type="line"/>
      <point x="88" y="735" type="line"/>
    </contour>
    <contour>
      <point x="596" y="326" type="line"/>
      <point x="352" y="735" type="line"/>
      <point x="596" y="1145" type="line"/>
      <point x="840" y="735" type="line"/>
    </contour>
  </outline>
</glyph>
<glyph name="uni2C60" format="2">
  <advance width="1157"/>
  <unicode hex="2C60"/>
  <anchor x="580" y="0" name="bottom"/>
  <anchor x="580" y="1462" name="top"/>
  <outline>
    <contour>
      <point x="184" y="0" type="line"/>
      <point x="1087" y="0" type="line"/>
      <point x="1087" y="256" type="line"/>
      <point x="494" y="256" type="line"/>
      <point x="494" y="455" type="line"/>
      <point x="811" y="455" type="line"/>
      <point x="811" y="631" type="line"/>
      <point x="494" y="631" type="line"/>
      <point x="494" y="782" type="line"/>
      <point x="811" y="782" type="line"/>
      <point x="811" y="954" type="line"/>
      <point x="494" y="954" type="line"/>
      <point x="494" y="1462" type="line"/>
      <point x="184" y="1462" type="line"/>
      <point x="184" y="954" type="line"/>
      <point x="0" y="954" type="line"/>
      <point x="0" y="782" type="line"/>
      <point x="184" y="782" type="line"/>
      <point x="184" y="631" type="line"/>
      <point x="0" y="631" type="line"/>
      <point x="0" y="455" type="line"/>
      <point x="184" y="455" type="line"/>
    </contour>
  </outline>
</glyph>
<glyph name="raiseddottedinterpolationmarker" format="2">
  <advance width="1024"/>
  <unicode hex="2E07"/>
  <outline>
    <contour>
      <point x="584" y="565" type="line"/>
      <point x="584" y="1317" type="line"/>
      <point x="950" y="1317" type="line"/>
      <point x="950" y="1462" type="line"/>
      <point x="72" y="1462" type="line"/>
      <point x="72" y="1317" type="line"/>
      <point x="438" y="1317" type="line"/>
      <point x="438" y="565" type="line"/>
    </contour>
    <contour>
      <point x="737" y="1016" type="curve" smooth="yes"/>
      <point x="737" y="938"/>
      <point x="784" y="901"/>
      <point x="844" y="901" type="curve" smooth="yes"/>
      <point x="899" y="901"/>
      <point x="948" y="938"/>
      <point x="948" y="1016" type="curve" smooth="yes"/>
      <point x="948" y="1096"/>
      <point x="899" y="1130"/>
      <point x="844" y="1130" type="curve" smooth="yes"/>
      <point x="784" y="1130"/>
      <point x="737" y="1096"/>
    </contour>
  </outline>
</glyph>
<glyph name="uniA641" format="2">
  <advance width="999"/>
  <unicode hex="A641"/>
  <outline>
    <contour>
      <point x="98" y="-444" type="line"/>
      <point x="125" y="-418"/>
      <point x="199" y="-403"/>
      <point x="254" y="-403" type="curve" smooth="yes"/>
      <point x="344" y="-403"/>
      <point x="453" y="-412"/>
      <point x="616" y="-412" type="curve" smooth="yes"/>
      <point x="895" y="-412"/>
      <point x="1014" y="-291"/>
      <point x="1014" y="-104" type="curve" smooth="yes"/>
      <point x="1014" y="102"/>
      <point x="887" y="233"/>
      <point x="512" y="233" type="curve" smooth="yes"/>
      <point x="420" y="233" type="line"/>
      <point x="920" y="920" type="line"/>
      <point x="920" y="1118" type="line"/>
      <point x="86" y="1118" type="line"/>
      <point x="86" y="885" type="line"/>
      <point x="573" y="885" type="line"/>
      <point x="55" y="180" type="line"/>
      <point x="55" y="0" type="line"/>
      <point x="514" y="0" type="line" smooth="yes"/>
      <point x="719" y="0"/>
      <point x="754" y="-37"/>
      <point x="754" y="-90" type="curve" smooth="yes"/>
      <point x="754" y="-160"/>
      <point x="672" y="-184"/>
      <point x="555" y="-184" type="curve" smooth="yes"/>
      <point x="408" y="-184"/>
      <point x="362" y="-174"/>
      <point x="264" y="-174" type="curve" smooth="yes"/>
      <point x="166" y="-174"/>
      <point x="117" y="-190"/>
      <point x="98" y="-215" type="curve"/>
    </contour>
  </outline>
</glyph>
<glyph name="uniA648" format="2">
  <advance width="1548"/>
  <unicode hex="A648"/>
  <outline>
    <contour>
      <point x="621" y="893" type="line"/>
      <point x="928" y="893" type="line"/>
      <point x="928" y="1462" type="line"/>
      <point x="621" y="1462" type="line"/>
    </contour>
    <contour>
      <point x="1374" y="0" type="line"/>
      <point x="1374" y="381" type="line" smooth="yes"/>
      <point x="1374" y="684"/>
      <point x="1176" y="918"/>
      <point x="768" y="918" type="curve" smooth="yes"/>
      <point x="381" y="918"/>
      <point x="174" y="702"/>
      <point x="174" y="377" type="curve" smooth="yes"/>
      <point x="174" y="0" type="line"/>
      <point x="483" y="0" type="line"/>
      <point x="483" y="330" type="line" smooth="yes"/>
      <point x="483" y="571"/>
      <point x="582" y="657"/>
      <point x="776" y="657" type="curve" smooth="yes"/>
      <point x="979" y="657"/>
      <point x="1065" y="555"/>
      <point x="1065" y="328" type="curve" smooth="yes"/>
      <point x="1065" y="0" type="line"/>
    </contour>
    <contour>
      <point x="326" y="1059" type="line"/>
      <point x="1223" y="1059" type="line"/>
      <point x="1223" y="1313" type="line"/>
      <point x="326" y="1313" type="line"/>
    </contour>
  </outline>
</glyph>
<glyph name="uniA64C" format="2">
  <advance width="2228"/>
  <unicode hex="A64C"/>
  <outline>
    <contour>
      <point x="745" y="-20" type="curve" smooth="yes"/>
      <point x="899" y="-20"/>
      <point x="1010" y="27"/>
      <point x="1112" y="127" type="curve"/>
      <point x="1214" y="27"/>
      <point x="1329" y="-20"/>
      <point x="1483" y="-20" type="curve" smooth="yes"/>
      <point x="1915" y="-20"/>
      <point x="2109" y="315"/>
      <point x="2109" y="768" type="curve" smooth="yes"/>
      <point x="2109" y="1210"/>
      <point x="1909" y="1481"/>
      <point x="1544" y="1481" type="curve" smooth="yes"/>
      <point x="1438" y="1481"/>
      <point x="1309" y="1434"/>
      <point x="1229" y="1372" type="curve"/>
      <point x="1337" y="1157" type="line"/>
      <point x="1384" y="1188"/>
      <point x="1454" y="1235"/>
      <point x="1534" y="1235" type="curve" smooth="yes"/>
      <point x="1698" y="1235"/>
      <point x="1804" y="1077"/>
      <point x="1804" y="766" type="curve" smooth="yes"/>
      <point x="1804" y="442"/>
      <point x="1686" y="250"/>
      <point x="1444" y="250" type="curve" smooth="yes"/>
      <point x="1372" y="250"/>
      <point x="1313" y="272"/>
      <point x="1264" y="319" type="curve"/>
      <point x="1264" y="715" type="line"/>
      <point x="954" y="715" type="line"/>
      <point x="954" y="319" type="line"/>
      <point x="905" y="279"/>
      <point x="850" y="250"/>
      <point x="786" y="250" type="curve" smooth="yes"/>
      <point x="545" y="250"/>
      <point x="424" y="442"/>
      <point x="424" y="766" type="curve" smooth="yes"/>
      <point x="424" y="1077"/>
      <point x="530" y="1235"/>
      <point x="694" y="1235" type="curve" smooth="yes"/>
      <point x="774" y="1235"/>
      <point x="844" y="1188"/>
      <point x="891" y="1157" type="curve"/>
      <point x="999" y="1372" type="line"/>
      <point x="920" y="1434"/>
      <point x="791" y="1481"/>
      <point x="684" y="1481" type="curve" smooth="yes"/>
      <point x="319" y="1481"/>
      <point x="119" y="1210"/>
      <point x="119" y="768" type="curve" smooth="yes"/>
      <point x="119" y="315"/>
      <point x="313" y="-20"/>
    </contour>
  </outline>
</glyph>
<glyph name="uniA67D" format="2">
  <unicode hex="A67D"/>
  <anchor x="-2" y="1118" name="_top"/>
  <outline>
    <contour>
      <point x="276" y="1653" type="line"/>
      <point x="94" y="1653" type="line"/>
      <point x="-12" y="1268" type="line"/>
      <point x="170" y="1268" type="line"/>
    </contour>
    <contour>
      <point x="-279" y="1653" type="line"/>
      <point x="-279" y="1569" type="line" smooth="yes"/>
      <point x="-279" y="1440"/>
      <point x="-221" y="1384"/>
      <point x="-113" y="1384" type="curve" smooth="yes"/>
      <point x="-35" y="1384"/>
      <point x="12" y="1399"/>
      <point x="39" y="1413" type="curve"/>
      <point x="68" y="1554" type="line"/>
      <point x="33" y="1536"/>
      <point x="-4" y="1526"/>
      <point x="-47" y="1526" type="curve" smooth="yes"/>
      <point x="-76" y="1526"/>
      <point x="-94" y="1542"/>
      <point x="-94" y="1587" type="curve" smooth="yes"/>
      <point x="-94" y="1653" type="line"/>
    </contour>
  </outline>
</glyph>
<glyph name="uniA68C" format="2">
  <advance width="1186"/>
  <unicode hex="A68C"/>
  <outline>
    <contour>
      <point x="422" y="504" type="line" smooth="yes"/>
      <point x="422" y="127"/>
      <point x="610" y="-20"/>
      <point x="885" y="-20" type="curve" smooth="yes"/>
      <point x="965" y="-20"/>
      <point x="1024" y="-10"/>
      <point x="1067" y="2" type="curve"/>
      <point x="1067" y="260" type="line"/>
      <point x="1024" y="250"/>
      <point x="977" y="240"/>
      <point x="922" y="240" type="curve" smooth="yes"/>
      <point x="813" y="240"/>
      <point x="731" y="287"/>
      <point x="731" y="502" type="curve" smooth="yes"/>
      <point x="731" y="1204" type="line"/>
      <point x="1145" y="1204" type="line"/>
      <point x="1145" y="1462" type="line"/>
      <point x="41" y="1462" type="line"/>
      <point x="41" y="1204" type="line"/>
      <point x="422" y="1204" type="line"/>
    </contour>
  </outline>
</glyph>
<glyph name="uniA70B" format="2">
  <advance width="856"/>
  <unicode hex="A70B"/>
  <outline>
    <contour>
      <point x="561" y="0" type="line"/>
      <point x="696" y="0" type="line"/>
      <point x="696" y="1409" type="line"/>
      <point x="561" y="1409" type="line"/>
    </contour>
    <contour>
      <point x="266" y="295" type="curve" smooth="yes"/>
      <point x="324" y="295"/>
      <point x="373" y="332"/>
      <point x="373" y="410" type="curve" smooth="yes"/>
      <point x="373" y="489"/>
      <point x="324" y="524"/>
      <point x="266" y="524" type="curve" smooth="yes"/>
      <point x="207" y="524"/>
      <point x="160" y="489"/>
      <point x="160" y="410" type="curve" smooth="yes"/>
      <point x="160" y="332"/>
      <point x="207" y="295"/>
    </contour>
  </outline>
</glyph>
<glyph name="uniA71E" format="2">
  <advance width="553"/>
  <unicode hex="A71E"/>
  <outline>
    <contour>
      <point x="184" y="1397" type="line"/>
      <point x="129" y="692" type="line"/>
      <point x="424" y="692" type="line"/>
      <point x="369" y="1397" type="line"/>
    </contour>
    <contour>
      <point x="420" y="1663" type="curve"/>
      <point x="420" y="1759"/>
      <point x="356" y="1800"/>
      <point x="279" y="1800" type="curve" smooth="yes"/>
      <point x="201" y="1800"/>
      <point x="137" y="1759"/>
      <point x="137" y="1663" type="curve" smooth="yes"/>
      <point x="137" y="1563"/>
      <point x="201" y="1524"/>
      <point x="279" y="1524" type="curve" smooth="yes"/>
      <point x="356" y="1524"/>
      <point x="420" y="1563"/>
    </contour>
  </outline>
</glyph>
<glyph name="uniA72A" format="2">
  <advance width="1296"/>
  <unicode hex="A72A"/>
  <outline>
    <contour>
      <point x="692" y="-20" type="curve" smooth="yes"/>
      <point x="872" y="-20"/>
      <point x="1024" y="6"/>
      <point x="1153" y="59" type="curve"/>
      <point x="1153" y="322" type="line"/>
      <point x="1018" y="258"/>
      <point x="850" y="225"/>
      <point x="721" y="225" type="curve" smooth="yes"/>
      <point x="483" y="225"/>
      <point x="389" y="303"/>
      <point x="389" y="440" type="curve" smooth="yes"/>
      <point x="389" y="561"/>
      <point x="494" y="641"/>
      <point x="805" y="641" type="curve" smooth="yes"/>
      <point x="928" y="641" type="line"/>
      <point x="928" y="858" type="line"/>
      <point x="483" y="1128" type="line"/>
      <point x="690" y="1239" type="line"/>
      <point x="819" y="1239"/>
      <point x="940" y="1221"/>
      <point x="1075" y="1161" type="curve"/>
      <point x="1186" y="1382" type="line"/>
      <point x="1020" y="1460"/>
      <point x="889" y="1483"/>
      <point x="610" y="1483" type="curve"/>
      <point x="145" y="1235" type="line"/>
      <point x="145" y="1036" type="line"/>
      <point x="479" y="840" type="line"/>
      <point x="227" y="791"/>
      <point x="80" y="666"/>
      <point x="80" y="416" type="curve" smooth="yes"/>
      <point x="80" y="154"/>
      <point x="287" y="-20"/>
    </contour>
  </outline>
</glyph>
<glyph name="uniA730" format="2">
  <advance width="907"/>
  <unicode hex="A730"/>
  <outline>
    <contour>
      <point x="418" y="0" type="line"/>
      <point x="418" y="442" type="line"/>
      <point x="797" y="442" type="line"/>
      <point x="797" y="635" type="line"/>
      <point x="418" y="635" type="line"/>
      <point x="418" y="924" type="line"/>
      <point x="825" y="924" type="line"/>
      <point x="825" y="1118" type="line"/>
      <point x="176" y="1118" type="line"/>
      <point x="176" y="0" type="line"/>
    </contour>
  </outline>
</glyph>
<glyph name="uniA737" format="2">
  <advance width="1972"/>
  <unicode hex="A737"/>
  <outline>
    <contour>
      <point x="1812" y="1118" type="line"/>
      <point x="1507" y="1118" type="line"/>
      <point x="1507" y="592" type="line" smooth="yes"/>
      <point x="1507" y="354"/>
      <point x="1452" y="223"/>
      <point x="1266" y="223" type="curve" smooth="yes"/>
      <point x="1141" y="223"/>
      <point x="1085" y="305"/>
      <point x="1085" y="465" type="curve" smooth="yes"/>
      <point x="1085" y="602" type="line"/>
      <point x="780" y="602" type="line"/>
      <point x="780" y="389" type="line" smooth="yes"/>
      <point x="780" y="102"/>
      <point x="938" y="-20"/>
      <point x="1178" y="-20" type="curve" smooth="yes"/>
      <point x="1317" y="-20"/>
      <point x="1450" y="29"/>
      <point x="1522" y="143" type="curve"/>
      <point x="1538" y="143" type="line"/>
      <point x="1579" y="0" type="line"/>
      <point x="1812" y="0" type="line"/>
    </contour>
    <contour>
      <point x="618" y="1141" type="curve" smooth="yes"/>
      <point x="461" y="1141"/>
      <point x="309" y="1102"/>
      <point x="190" y="1040" type="curve"/>
      <point x="291" y="834" type="line"/>
      <point x="395" y="881"/>
      <point x="498" y="915"/>
      <point x="606" y="915" type="curve" smooth="yes"/>
      <point x="715" y="915"/>
      <point x="780" y="862"/>
      <point x="780" y="745" type="curve" smooth="yes"/>
      <point x="780" y="696" type="line"/>
      <point x="586" y="690" type="line" smooth="yes"/>
      <point x="252" y="678"/>
      <point x="86" y="571"/>
      <point x="86" y="334" type="curve" smooth="yes"/>
      <point x="86" y="92"/>
      <point x="233" y="-20"/>
      <point x="461" y="-20" type="curve" smooth="yes"/>
      <point x="698" y="-20"/>
      <point x="791" y="92"/>
      <point x="866" y="195" type="curve"/>
      <point x="1085" y="195" type="line"/>
      <point x="1085" y="745" type="line" smooth="yes"/>
      <point x="1085" y="1012"/>
      <point x="918" y="1141"/>
    </contour>
    <contour>
      <point x="780" y="518" type="line"/>
      <point x="780" y="426" type="line"/>
      <point x="780" y="283"/>
      <point x="678" y="203"/>
      <point x="547" y="203" type="curve" smooth="yes"/>
      <point x="459" y="203"/>
      <point x="399" y="238"/>
      <point x="399" y="332" type="curve" smooth="yes"/>
      <point x="399" y="438"/>
      <point x="465" y="508"/>
      <point x="662" y="514" type="curve" smooth="yes"/>
    </contour>
  </outline>
</glyph>
<glyph name="uniA73A" format="2">
  <advance width="1970"/>
  <unicode hex="A73A"/>
  <outline>
    <contour>
      <point x="0" y="0" type="line"/>
      <point x="315" y="0" type="line"/>
      <point x="616" y="948" type="line"/>
      <point x="631" y="993"/>
      <point x="680" y="1159"/>
      <point x="700" y="1241" type="curve"/>
      <point x="721" y="1159"/>
      <point x="766" y="1016"/>
      <point x="786" y="948" type="curve"/>
      <point x="1055" y="0" type="line"/>
      <point x="1452" y="0" type="line"/>
      <point x="1970" y="1462" type="line"/>
      <point x="1655" y="1462" type="line"/>
      <point x="1378" y="592" type="line" smooth="yes"/>
      <point x="1354" y="514"/>
      <point x="1294" y="315"/>
      <point x="1270" y="221" type="curve"/>
      <point x="1241" y="328"/>
      <point x="1176" y="541"/>
      <point x="1161" y="592" type="curve" smooth="yes"/>
      <point x="915" y="1462" type="line"/>
      <point x="518" y="1462" type="line"/>
    </contour>
    <contour>
      <point x="367" y="612" type="line"/>
      <point x="1608" y="612" type="line"/>
      <point x="1608" y="850" type="line"/>
      <point x="367" y="850" type="line"/>
    </contour>
  </outline>
</glyph>
<glyph name="uniA73B" format="2">
  <advance width="1815"/>
  <unicode hex="A73B"/>
  <outline>
    <contour>
      <point x="887" y="758" type="line"/>
      <point x="887" y="592" type="line"/>
      <point x="1391" y="592" type="line"/>
      <point x="1391" y="758" type="line"/>
    </contour>
    <contour>
      <point x="780" y="575" type="line"/>
      <point x="780" y="426" type="line"/>
      <point x="780" y="283"/>
      <point x="678" y="203"/>
      <point x="547" y="203" type="curve" smooth="yes"/>
      <point x="459" y="203"/>
      <point x="399" y="238"/>
      <point x="399" y="332" type="curve" smooth="yes"/>
      <point x="399" y="463"/>
      <point x="479" y="535"/>
      <point x="662" y="559" type="curve" smooth="yes"/>
    </contour>
    <contour>
      <point x="860" y="0" type="line"/>
      <point x="1239" y="0" type="line"/>
      <point x="1815" y="1118" type="line"/>
      <point x="1468" y="1118" type="line"/>
      <point x="1200" y="512" type="line" smooth="yes"/>
      <point x="1163" y="428"/>
      <point x="1112" y="307"/>
      <point x="1085" y="236" type="curve"/>
      <point x="1069" y="236" type="line"/>
      <point x="1077" y="319"/>
      <point x="1083" y="471"/>
      <point x="1083" y="553" type="curve" smooth="yes"/>
      <point x="1083" y="745" type="line" smooth="yes"/>
      <point x="1083" y="1012"/>
      <point x="918" y="1141"/>
      <point x="618" y="1141" type="curve" smooth="yes"/>
      <point x="461" y="1141"/>
      <point x="309" y="1102"/>
      <point x="190" y="1040" type="curve"/>
      <point x="291" y="834" type="line"/>
      <point x="395" y="881"/>
      <point x="498" y="915"/>
      <point x="606" y="915" type="curve" smooth="yes"/>
      <point x="715" y="915"/>
      <point x="780" y="862"/>
      <point x="780" y="778" type="curve" smooth="yes"/>
      <point x="780" y="750" type="line"/>
      <point x="602" y="731" type="line" smooth="yes"/>
      <point x="270" y="696"/>
      <point x="86" y="582"/>
      <point x="86" y="334" type="curve" smooth="yes"/>
      <point x="86" y="92"/>
      <point x="233" y="-20"/>
      <point x="432" y="-20" type="curve" smooth="yes"/>
      <point x="618" y="-20"/>
      <point x="707" y="31"/>
      <point x="803" y="152" type="curve"/>
      <point x="811" y="152" type="line"/>
    </contour>
  </outline>
</glyph>
<glyph name="uniA762" format="2">
  <advance width="1235"/>
  <unicode hex="A762"/>
  <outline>
    <contour>
      <point x="485" y="764" type="curve" smooth="yes"/>
      <point x="653" y="764" type="line"/>
      <point x="313" y="438" type="line"/>
      <point x="313" y="221" type="line"/>
      <point x="430" y="221" type="line" smooth="yes"/>
      <point x="762" y="221"/>
      <point x="856" y="117"/>
      <point x="856" y="-2" type="curve" smooth="yes"/>
      <point x="856" y="-123"/>
      <point x="778" y="-246"/>
      <point x="522" y="-246" type="curve" smooth="yes"/>
      <point x="393" y="-246"/>
      <point x="223" y="-213"/>
      <point x="88" y="-150" type="curve"/>
      <point x="88" y="-412" type="line"/>
      <point x="219" y="-465"/>
      <point x="373" y="-492"/>
      <point x="545" y="-492" type="curve" smooth="yes"/>
      <point x="969" y="-492"/>
      <point x="1167" y="-279"/>
      <point x="1167" y="0" type="curve" smooth="yes"/>
      <point x="1167" y="260"/>
      <point x="1016" y="416"/>
      <point x="653" y="442" type="curve"/>
      <point x="1014" y="803" type="line"/>
      <point x="1014" y="967" type="line"/>
      <point x="557" y="967" type="line" smooth="yes"/>
      <point x="362" y="967"/>
      <point x="305" y="1042"/>
      <point x="305" y="1182" type="curve" smooth="yes"/>
      <point x="305" y="1294"/>
      <point x="373" y="1364"/>
      <point x="459" y="1364" type="curve" smooth="yes"/>
      <point x="514" y="1364"/>
      <point x="547" y="1348"/>
      <point x="606" y="1323" type="curve"/>
      <point x="688" y="1516" type="line"/>
      <point x="623" y="1542"/>
      <point x="543" y="1567"/>
      <point x="432" y="1567" type="curve" smooth="yes"/>
      <point x="211" y="1567"/>
      <point x="49" y="1434"/>
      <point x="49" y="1165" type="curve" smooth="yes"/>
      <point x="49" y="893"/>
      <point x="213" y="764"/>
    </contour>
  </outline>
</glyph>
<glyph name="uniA766" format="2">
  <advance width="1286"/>
  <unicode hex="A766"/>
  <outline>
    <contour>
      <point x="494" y="434" type="line"/>
      <point x="647" y="434" type="line" smooth="yes"/>
      <point x="1057" y="434"/>
      <point x="1194" y="645"/>
      <point x="1194" y="879" type="curve" smooth="yes"/>
      <point x="1194" y="1133"/>
      <point x="1032" y="1298"/>
      <point x="672" y="1298" type="curve" smooth="yes"/>
      <point x="494" y="1298" type="line"/>
      <point x="494" y="1462" type="line"/>
      <point x="184" y="1462" type="line"/>
      <point x="184" y="330" type="line"/>
      <point x="4" y="330" type="line"/>
      <point x="4" y="127" type="line"/>
      <point x="184" y="127" type="line"/>
      <point x="184" y="0" type="line"/>
      <point x="494" y="0" type="line"/>
      <point x="494" y="127" type="line"/>
      <point x="721" y="127" type="line"/>
      <point x="721" y="330" type="line"/>
      <point x="494" y="330" type="line"/>
    </contour>
    <contour>
      <point x="494" y="664" type="line"/>
      <point x="494" y="1067" type="line"/>
      <point x="618" y="1067" type="line" smooth="yes"/>
      <point x="799" y="1067"/>
      <point x="881" y="1006"/>
      <point x="881" y="879" type="curve" smooth="yes"/>
      <point x="881" y="725"/>
      <point x="786" y="664"/>
      <point x="594" y="664" type="curve" smooth="yes"/>
    </contour>
  </outline>
</glyph>
<glyph name="uniA78D" format="2">
  <advance width="1567"/>
  <unicode hex="A78D"/>
  <outline>
    <contour>
      <point x="1382" y="0" type="line"/>
      <point x="1382" y="1462" type="line"/>
      <point x="1073" y="1462" type="line"/>
      <point x="1073" y="889" type="line"/>
      <point x="494" y="889" type="line"/>
      <point x="494" y="1462" type="line"/>
      <point x="184" y="1462" type="line"/>
      <point x="184" y="631" type="line"/>
      <point x="1073" y="631" type="line"/>
      <point x="1073" y="0" type="line"/>
    </contour>
  </outline>
</glyph>
<glyph name="uniA798" format="2">
  <advance width="1124"/>
  <unicode hex="A798"/>
  <outline>
    <contour>
      <point x="127" y="-492" type="curve" smooth="yes"/>
      <point x="350" y="-492"/>
      <point x="489" y="-383"/>
      <point x="489" y="-131" type="curve"/>
      <point x="489" y="1208" type="line"/>
      <point x="1022" y="1208" type="line"/>
      <point x="1022" y="1462" type="line"/>
      <point x="184" y="1462" type="line"/>
      <point x="184" y="-125" type="line" smooth="yes"/>
      <point x="184" y="-207"/>
      <point x="139" y="-248"/>
      <point x="76" y="-248" type="curve" smooth="yes"/>
      <point x="29" y="-248"/>
      <point x="-14" y="-236"/>
      <point x="-37" y="-227" type="curve"/>
      <point x="-37" y="-461" type="line"/>
      <point x="-8" y="-473"/>
      <point x="57" y="-492"/>
    </contour>
    <contour>
      <point x="-35" y="578" type="line"/>
      <point x="854" y="578" type="line"/>
      <point x="854" y="831" type="line"/>
      <point x="-35" y="831" type="line"/>
    </contour>
  </outline>
</glyph>
<glyph name="uniA7A6" format="2">
  <advance width="1352"/>
  <unicode hex="A7A6"/>
  <outline>
    <contour>
      <point x="1352" y="0" type="line"/>
      <point x="952" y="592" type="line"/>
      <point x="1090" y="649"/>
      <point x="1186" y="788"/>
      <point x="1194" y="961" type="curve"/>
      <point x="1346" y="981" type="line"/>
      <point x="1346" y="1163" type="line"/>
      <point x="1176" y="1141" type="line"/>
      <point x="1120" y="1356"/>
      <point x="936" y="1462"/>
      <point x="610" y="1462" type="curve" smooth="yes"/>
      <point x="184" y="1462" type="line"/>
      <point x="184" y="1004" type="line"/>
      <point x="6" y="979" type="line"/>
      <point x="6" y="797" type="line"/>
      <point x="184" y="821" type="line"/>
      <point x="184" y="0" type="line"/>
      <point x="494" y="0" type="line"/>
      <point x="494" y="502" type="line"/>
      <point x="696" y="502" type="line"/>
      <point x="1008" y="0" type="line"/>
    </contour>
    <contour>
      <point x="494" y="1047" type="line"/>
      <point x="494" y="1208" type="line"/>
      <point x="588" y="1208" type="line" smooth="yes"/>
      <point x="733" y="1208"/>
      <point x="823" y="1176"/>
      <point x="860" y="1096" type="curve"/>
    </contour>
    <contour>
      <point x="594" y="754" type="curve" smooth="yes"/>
      <point x="494" y="754" type="line"/>
      <point x="494" y="864" type="line"/>
      <point x="874" y="915" type="line"/>
      <point x="852" y="799"/>
      <point x="768" y="754"/>
    </contour>
  </outline>
</glyph>
<glyph name="uniAB4E" format="2">
  <advance width="1346"/>
  <unicode hex="AB4E"/>
  <outline>
    <contour>
      <point x="1186" y="723" type="line"/>
      <point x="881" y="723" type="line"/>
      <point x="881" y="592" type="line" smooth="yes"/>
      <point x="881" y="354"/>
      <point x="825" y="223"/>
      <point x="639" y="223" type="curve" smooth="yes"/>
      <point x="514" y="223"/>
      <point x="459" y="305"/>
      <point x="459" y="465" type="curve" smooth="yes"/>
      <point x="459" y="1118" type="line"/>
      <point x="154" y="1118" type="line"/>
      <point x="154" y="389" type="line" smooth="yes"/>
      <point x="154" y="102"/>
      <point x="311" y="-20"/>
      <point x="551" y="-20" type="curve" smooth="yes"/>
      <point x="690" y="-20"/>
      <point x="823" y="29"/>
      <point x="895" y="143" type="curve"/>
      <point x="911" y="143" type="line"/>
      <point x="952" y="0" type="line"/>
      <point x="1186" y="0" type="line"/>
    </contour>
  </outline>
</glyph>
<glyph name="uniFE21" format="2">
  <unicode hex="FE21"/>
  <anchor x="0" y="1118" name="_top"/>
  <outline>
    <contour>
      <point x="0" y="1608" type="curve" smooth="yes"/>
      <point x="-10" y="1608" type="line"/>
      <point x="-10" y="1405" type="line"/>
      <point x="0" y="1405" type="line" smooth="yes"/>
      <point x="305" y="1405"/>
      <point x="506" y="1321"/>
      <point x="610" y="1202" type="curve"/>
      <point x="815" y="1202" type="line"/>
      <point x="707" y="1466"/>
      <point x="428" y="1608"/>
    </contour>
  </outline>
</glyph>
<glyph name="afii10066.loclSRB" format="2">
  <advance width="1268"/>
  <outline>
    <contour>
      <point x="1126" y="1567" type="line"/>
      <point x="449" y="1518"/>
      <point x="207" y="1425"/>
      <point x="207" y="1192" type="curve" smooth="yes"/>
      <point x="207" y="1034"/>
      <point x="338" y="963"/>
      <point x="436" y="909" type="curve"/>
      <point x="262" y="846"/>
      <point x="92" y="721"/>
      <point x="92" y="455" type="curve" smooth="yes"/>
      <point x="92" y="145"/>
      <point x="317" y="-20"/>
      <point x="629" y="-20" type="curve" smooth="yes"/>
      <point x="946" y="-20"/>
      <point x="1176" y="145"/>
      <point x="1176" y="465" type="curve" smooth="yes"/>
      <point x="1176" y="727"/>
      <point x="1034" y="868"/>
      <point x="809" y="987" type="curve" smooth="yes"/>
      <point x="608" y="1094"/>
      <point x="500" y="1118"/>
      <point x="500" y="1182" type="curve" smooth="yes"/>
      <point x="500" y="1257"/>
      <point x="715" y="1266"/>
      <point x="1159" y="1311" type="curve"/>
    </contour>
    <contour>
      <point x="639" y="772" type="curve"/>
      <point x="760" y="707"/>
      <point x="864" y="633"/>
      <point x="864" y="475" type="curve" smooth="yes"/>
      <point x="864" y="319"/>
      <point x="778" y="225"/>
      <point x="631" y="225" type="curve" smooth="yes"/>
      <point x="489" y="225"/>
      <point x="406" y="319"/>
      <point x="406" y="471" type="curve" smooth="yes"/>
      <point x="406" y="633"/>
      <point x="532" y="735"/>
    </contour>
  </outline>
</glyph>
<glyph name="circumflextildecomb" format="2">
  <outline>
    <contour>
      <point x="-465" y="1528" type="curve"/>
      <point x="-739" y="1528" type="line"/>
      <point x="-803" y="1436"/>
      <point x="-901" y="1341"/>
      <point x="-975" y="1268" type="curve"/>
      <point x="-975" y="1241" type="line"/>
      <point x="-834" y="1241" type="line"/>
      <point x="-756" y="1282"/>
      <point x="-674" y="1329"/>
      <point x="-602" y="1393" type="curve"/>
      <point x="-532" y="1329"/>
      <point x="-453" y="1282"/>
      <point x="-371" y="1241" type="curve"/>
      <point x="-229" y="1241" type="line"/>
      <point x="-229" y="1268" type="line"/>
      <point x="-309" y="1346"/>
      <point x="-401" y="1436"/>
    </contour>
    <contour>
      <point x="-233" y="1821" type="curve"/>
      <point x="-358" y="1821" type="line"/>
      <point x="-371" y="1763"/>
      <point x="-395" y="1733"/>
      <point x="-451" y="1733" type="curve" smooth="yes"/>
      <point x="-530" y="1733"/>
      <point x="-612" y="1821"/>
      <point x="-743" y="1821" type="curve" smooth="yes"/>
      <point x="-881" y="1821"/>
      <point x="-952" y="1718"/>
      <point x="-965" y="1585" type="curve"/>
      <point x="-840" y="1585" type="line"/>
      <point x="-823" y="1647"/>
      <point x="-801" y="1673"/>
      <point x="-743" y="1673" type="curve" smooth="yes"/>
      <point x="-668" y="1673"/>
      <point x="-575" y="1585"/>
      <point x="-457" y="1585" type="curve" smooth="yes"/>
      <point x="-313" y="1585"/>
      <point x="-248" y="1688"/>
    </contour>
  </outline>
</glyph>
<glyph name="k.sc" format="2">
  <advance width="1161"/>
  <anchor x="631" y="0" name="bottom"/>
  <anchor x="602" y="1192" name="top"/>
  <anchor x="1120" y="1192" name="topright"/>
  <outline>
    <contour>
      <point x="143" y="1192" type="line"/>
      <point x="143" y="0" type="line"/>
      <point x="438" y="0" type="line"/>
      <point x="438" y="414" type="line"/>
      <point x="543" y="483" type="line"/>
      <point x="831" y="0" type="line"/>
      <point x="1161" y="0" type="line"/>
      <point x="752" y="662" type="line"/>
      <point x="1163" y="1192" type="line"/>
      <point x="842" y="1192" type="line"/>
      <point x="541" y="807" type="line" smooth="yes"/>
      <point x="508" y="758"/>
      <point x="467" y="709"/>
      <point x="438" y="659" type="curve"/>
      <point x="438" y="1192" type="line"/>
    </contour>
  </outline>
</glyph>
<glyph name="oe.sc" format="2">
  <advance width="1714"/>
  <anchor x="858" y="0" name="bottom"/>
  <anchor x="858" y="1192" name="top"/>
  <outline>
    <contour>
      <point x="672" y="1212" type="curve" smooth="yes"/>
      <point x="283" y="1212"/>
      <point x="98" y="967"/>
      <point x="98" y="600" type="curve" smooth="yes"/>
      <point x="98" y="229"/>
      <point x="285" y="-16"/>
      <point x="670" y="-16" type="curve" smooth="yes"/>
      <point x="731" y="-16"/>
      <point x="823" y="-10"/>
      <point x="872" y="0" type="curve"/>
      <point x="1620" y="0" type="line"/>
      <point x="1620" y="236" type="line"/>
      <point x="1165" y="236" type="line"/>
      <point x="1165" y="502" type="line"/>
      <point x="1587" y="502" type="line"/>
      <point x="1587" y="735" type="line"/>
      <point x="1165" y="735" type="line"/>
      <point x="1165" y="961" type="line"/>
      <point x="1620" y="961" type="line"/>
      <point x="1620" y="1192" type="line"/>
      <point x="879" y="1192" type="line"/>
      <point x="827" y="1206"/>
      <point x="737" y="1212"/>
    </contour>
    <contour>
      <point x="674" y="975" type="curve" smooth="yes"/>
      <point x="745" y="975"/>
      <point x="823" y="961"/>
      <point x="864" y="938" type="curve"/>
      <point x="864" y="256" type="line"/>
      <point x="821" y="236"/>
      <point x="743" y="223"/>
      <point x="672" y="223" type="curve" smooth="yes"/>
      <point x="494" y="223"/>
      <point x="412" y="367"/>
      <point x="412" y="598" type="curve" smooth="yes"/>
      <point x="412" y="829"/>
      <point x="494" y="975"/>
    </contour>
  </outline>
</glyph>
<glyph name="three.osf" format="2">
  <advance width="1157"/>
  <outline>
    <contour>
      <point x="1030" y="817" type="curve" smooth="yes"/>
      <point x="1030" y="1034"/>
      <point x="856" y="1163"/>
      <point x="563" y="1163" type="curve" smooth="yes"/>
      <point x="371" y="1163"/>
      <point x="207" y="1116"/>
      <point x="68" y="1014" type="curve"/>
      <point x="197" y="807" type="line"/>
      <point x="309" y="879"/>
      <point x="408" y="913"/>
      <point x="520" y="913" type="curve" smooth="yes"/>
      <point x="641" y="913"/>
      <point x="729" y="860"/>
      <point x="729" y="754" type="curve" smooth="yes"/>
      <point x="729" y="618"/>
      <point x="608" y="549"/>
      <point x="399" y="549" type="curve" smooth="yes"/>
      <point x="287" y="549" type="line"/>
      <point x="287" y="313" type="line"/>
      <point x="397" y="313" type="line" smooth="yes"/>
      <point x="637" y="313"/>
      <point x="750" y="252"/>
      <point x="750" y="113" type="curve" smooth="yes"/>
      <point x="750" y="-27"/>
      <point x="653" y="-96"/>
      <point x="442" y="-96" type="curve" smooth="yes"/>
      <point x="326" y="-96"/>
      <point x="184" y="-63"/>
      <point x="61" y="0" type="curve"/>
      <point x="61" y="-260" type="line"/>
      <point x="209" y="-322"/>
      <point x="326" y="-340"/>
      <point x="483" y="-340" type="curve" smooth="yes"/>
      <point x="854" y="-340"/>
      <point x="1073" y="-178"/>
      <point x="1073" y="94" type="curve" smooth="yes"/>
      <point x="1073" y="297"/>
      <point x="950" y="414"/>
      <point x="709" y="444" type="curve"/>
      <point x="709" y="451" type="line"/>
      <point x="913" y="502"/>
      <point x="1030" y="635"/>
    </contour>
  </outline>
</glyph>
<glyph name="tildedieresis" format="2">
  <outline>
    <contour>
      <point x="-354" y="1239" type="curve"/>
      <point x="-229" y="1239" type="line"/>
      <point x="-213" y="1300"/>
      <point x="-193" y="1327"/>
      <point x="-137" y="1327" type="curve" smooth="yes"/>
      <point x="-63" y="1327"/>
      <point x="27" y="1239"/>
      <point x="141" y="1239" type="curve" smooth="yes"/>
      <point x="279" y="1239"/>
      <point x="342" y="1341"/>
      <point x="356" y="1475" type="curve"/>
      <point x="231" y="1475" type="line"/>
      <point x="219" y="1417"/>
      <point x="197" y="1386"/>
      <point x="143" y="1386" type="curve" smooth="yes"/>
      <point x="66" y="1386"/>
      <point x="-14" y="1475"/>
      <point x="-141" y="1475" type="curve" smooth="yes"/>
      <point x="-272" y="1475"/>
      <point x="-342" y="1372"/>
    </contour>
    <contour>
      <point x="-203" y="1518" type="curve" smooth="yes"/>
      <point x="-127" y="1518"/>
      <point x="-72" y="1561"/>
      <point x="-72" y="1640" type="curve" smooth="yes"/>
      <point x="-72" y="1724"/>
      <point x="-127" y="1765"/>
      <point x="-203" y="1765" type="curve" smooth="yes"/>
      <point x="-281" y="1765"/>
      <point x="-332" y="1724"/>
      <point x="-332" y="1640" type="curve" smooth="yes"/>
      <point x="-332" y="1561"/>
      <point x="-281" y="1518"/>
    </contour>
    <contour>
      <point x="201" y="1518" type="curve" smooth="yes"/>
      <point x="276" y="1518"/>
      <point x="332" y="1561"/>
      <point x="332" y="1640" type="curve" smooth="yes"/>
      <point x="332" y="1724"/>
      <point x="276" y="1765"/>
      <point x="201" y="1765" type="curve" smooth="yes"/>
      <point x="123" y="1765"/>
      <point x="72" y="1724"/>
      <point x="72" y="1640" type="curve" smooth="yes"/>
      <point x="72" y="1561"/>
      <point x="123" y="1518"/>
    </contour>
  </outline>
</glyph>
<glyph name="uni02E7_uni02E5_uni02E8" format="2">
  <advance width="1110"/>
  <outline>
    <contour>
      <point x="815" y="0" type="line"/>
      <point x="950" y="0" type="line"/>
      <point x="950" y="1409" type="line"/>
      <point x="815" y="1409" type="line"/>
      <point x="815" y="596" type="line"/>
      <point x="487" y="1409" type="line"/>
      <point x="76" y="774" type="line"/>
      <point x="186" y="700" type="line"/>
      <point x="459" y="1118" type="line"/>
      <point x="815" y="233" type="line"/>
    </contour>
  </outline>
</glyph>
<glyph name="uni1FDD02C9" format="2">
  <advance width="819"/>
  <anchor x="403" y="1118" name="_top"/>
  <anchor x="414" y="1794" name="top"/>
  <outline>
    <contour>
      <point x="643" y="1774" type="curve"/>
      <point x="377" y="1774" type="line"/>
      <point x="377" y="1753" type="line"/>
      <point x="420" y="1665"/>
      <point x="510" y="1532"/>
      <point x="582" y="1446" type="curve"/>
      <point x="727" y="1446" type="line"/>
      <point x="727" y="1470" type="line"/>
      <point x="702" y="1542"/>
      <point x="664" y="1673"/>
    </contour>
    <contour>
      <point x="748" y="1384" type="line"/>
      <point x="70" y="1384" type="line"/>
      <point x="70" y="1194" type="line"/>
      <point x="748" y="1194" type="line"/>
    </contour>
    <contour>
      <point x="225" y="1794" type="curve" smooth="yes"/>
      <point x="139" y="1794"/>
      <point x="90" y="1733"/>
      <point x="90" y="1651" type="curve" smooth="yes"/>
      <point x="90" y="1534"/>
      <point x="184" y="1430"/>
      <point x="356" y="1425" type="curve"/>
      <point x="356" y="1511" type="line"/>
      <point x="281" y="1518"/>
      <point x="236" y="1548"/>
      <point x="236" y="1595" type="curve"/>
      <point x="307" y="1597"/>
      <point x="342" y="1634"/>
      <point x="342" y="1696" type="curve" smooth="yes"/>
      <point x="342" y="1759"/>
      <point x="295" y="1794"/>
    </contour>
  </outline>
</glyph>
